<mxfile host="app.diagrams.net" modified="2024-06-07T01:50:56.227Z" agent="Mozilla/5.0 (Windows NT 10.0; Win64; x64) AppleWebKit/537.36 (KHTML, like Gecko) Chrome/127.0.0.0 Safari/537.36 Edg/127.0.0.0" etag="_8a2bPHZQSGrniAORcR0" version="24.4.14" type="github" pages="3">
  <diagram id="C5RBs43oDa-KdzZeNtuy" name="spring mvc时序图">
    <mxGraphModel dx="2495" dy="912" grid="1" gridSize="10" guides="1" tooltips="1" connect="1" arrows="1" fold="1" page="1" pageScale="1" pageWidth="827" pageHeight="1169" math="0" shadow="0">
      <root>
        <mxCell id="WIyWlLk6GJQsqaUBKTNV-0" />
        <mxCell id="WIyWlLk6GJQsqaUBKTNV-1" parent="WIyWlLk6GJQsqaUBKTNV-0" />
        <mxCell id="TfcwKBwIOK69jwk8q8nv-3" value="&lt;div style=&quot;&quot;&gt;&lt;pre style=&quot;&quot;&gt;&lt;pre style=&quot;&quot;&gt;&lt;span data-slate-fragment=&quot;JTVCJTdCJTIydHlwZSUyMiUzQSUyMnBhcmFncmFwaCUyMiUyQyUyMmNoaWxkcmVuJTIyJTNBJTVCJTdCJTIydGV4dCUyMiUzQSUyMkh0dHBTZXJ2bGV0JTIyJTdEJTVEJTdEJTVE&quot;&gt;HttpServlet&lt;/span&gt;&lt;font face=&quot;Fira Code Medium, monospace&quot;&gt;&lt;span style=&quot;font-size: 10.5pt;&quot;&gt;&lt;br&gt;&lt;/span&gt;&lt;/font&gt;&lt;/pre&gt;&lt;/pre&gt;&lt;/div&gt;" style="shape=umlLifeline;whiteSpace=wrap;html=1;container=1;dropTarget=0;collapsible=0;recursiveResize=0;outlineConnect=0;portConstraint=eastwest;newEdgeStyle={&quot;curved&quot;:0,&quot;rounded&quot;:0};points=[[0,0,0,0,5],[0,1,0,0,-5],[1,0,0,0,5],[1,1,0,0,-5]];perimeter=rectanglePerimeter;targetShapes=umlLifeline;participant=label;fontColor=default;labelBackgroundColor=none;" parent="WIyWlLk6GJQsqaUBKTNV-1" vertex="1">
          <mxGeometry x="80" y="400" width="100" height="2390" as="geometry" />
        </mxCell>
        <mxCell id="TfcwKBwIOK69jwk8q8nv-6" value="" style="html=1;points=[[0,0,0,0,5],[0,1,0,0,-5],[1,0,0,0,5],[1,1,0,0,-5]];perimeter=orthogonalPerimeter;outlineConnect=0;targetShapes=umlLifeline;portConstraint=eastwest;newEdgeStyle={&quot;curved&quot;:0,&quot;rounded&quot;:0};" parent="TfcwKBwIOK69jwk8q8nv-3" vertex="1">
          <mxGeometry x="45" y="120" width="10" height="1860" as="geometry" />
        </mxCell>
        <mxCell id="TfcwKBwIOK69jwk8q8nv-5" value="" style="shape=umlLifeline;perimeter=lifelinePerimeter;whiteSpace=wrap;html=1;container=1;dropTarget=0;collapsible=0;recursiveResize=0;outlineConnect=0;portConstraint=eastwest;newEdgeStyle={&quot;curved&quot;:0,&quot;rounded&quot;:0};participant=umlActor;" parent="WIyWlLk6GJQsqaUBKTNV-1" vertex="1">
          <mxGeometry x="-70" y="400" width="20" height="2400" as="geometry" />
        </mxCell>
        <mxCell id="TfcwKBwIOK69jwk8q8nv-13" value="" style="html=1;points=[[0,0,0,0,5],[0,1,0,0,-5],[1,0,0,0,5],[1,1,0,0,-5]];perimeter=orthogonalPerimeter;outlineConnect=0;targetShapes=umlLifeline;portConstraint=eastwest;newEdgeStyle={&quot;curved&quot;:0,&quot;rounded&quot;:0};" parent="TfcwKBwIOK69jwk8q8nv-5" vertex="1">
          <mxGeometry x="5" y="105" width="10" height="1985" as="geometry" />
        </mxCell>
        <mxCell id="TfcwKBwIOK69jwk8q8nv-14" value="用户发起请求" style="html=1;verticalAlign=bottom;endArrow=block;curved=0;rounded=0;entryX=0;entryY=0;entryDx=0;entryDy=5;entryPerimeter=0;" parent="WIyWlLk6GJQsqaUBKTNV-1" source="TfcwKBwIOK69jwk8q8nv-13" target="TfcwKBwIOK69jwk8q8nv-6" edge="1">
          <mxGeometry width="80" relative="1" as="geometry">
            <mxPoint x="370" y="710" as="sourcePoint" />
            <mxPoint x="450" y="710" as="targetPoint" />
          </mxGeometry>
        </mxCell>
        <mxCell id="TfcwKBwIOK69jwk8q8nv-20" value="&lt;span style=&quot;white-space: pre;&quot; data-slate-fragment=&quot;JTVCJTdCJTIydHlwZSUyMiUzQSUyMnBhcmFncmFwaCUyMiUyQyUyMmNoaWxkcmVuJTIyJTNBJTVCJTdCJTIydGV4dCUyMiUzQSUyMkZyYW1ld29ya1NlcnZsZXQlMjIlN0QlNUQlN0QlNUQ=&quot;&gt;FrameworkServlet&lt;/span&gt;" style="shape=umlLifeline;perimeter=lifelinePerimeter;whiteSpace=wrap;html=1;container=1;dropTarget=0;collapsible=0;recursiveResize=0;outlineConnect=0;portConstraint=eastwest;newEdgeStyle={&quot;curved&quot;:0,&quot;rounded&quot;:0};" parent="WIyWlLk6GJQsqaUBKTNV-1" vertex="1">
          <mxGeometry x="270" y="400" width="100" height="2730" as="geometry" />
        </mxCell>
        <mxCell id="TfcwKBwIOK69jwk8q8nv-16" value="" style="html=1;points=[[0,0,0,0,5],[0,1,0,0,-5],[1,0,0,0,5],[1,1,0,0,-5]];perimeter=orthogonalPerimeter;outlineConnect=0;targetShapes=umlLifeline;portConstraint=eastwest;newEdgeStyle={&quot;curved&quot;:0,&quot;rounded&quot;:0};" parent="TfcwKBwIOK69jwk8q8nv-20" vertex="1">
          <mxGeometry x="45" y="160" width="10" height="1780" as="geometry" />
        </mxCell>
        <mxCell id="TfcwKBwIOK69jwk8q8nv-21" value="根据请求方法选择处理方法&lt;br&gt;如：GET -&amp;gt; doGet" style="html=1;verticalAlign=bottom;endArrow=block;curved=0;rounded=0;" parent="TfcwKBwIOK69jwk8q8nv-20" target="TfcwKBwIOK69jwk8q8nv-16" edge="1">
          <mxGeometry width="80" relative="1" as="geometry">
            <mxPoint x="-135" y="165" as="sourcePoint" />
            <mxPoint x="180" y="40" as="targetPoint" />
          </mxGeometry>
        </mxCell>
        <mxCell id="TfcwKBwIOK69jwk8q8nv-42" value="" style="html=1;points=[[0,0,0,0,5],[0,1,0,0,-5],[1,0,0,0,5],[1,1,0,0,-5]];perimeter=orthogonalPerimeter;outlineConnect=0;targetShapes=umlLifeline;portConstraint=eastwest;newEdgeStyle={&quot;curved&quot;:0,&quot;rounded&quot;:0};" parent="TfcwKBwIOK69jwk8q8nv-20" vertex="1">
          <mxGeometry x="50" y="190" width="10" height="1720" as="geometry" />
        </mxCell>
        <mxCell id="TfcwKBwIOK69jwk8q8nv-43" value="调用processRequest" style="html=1;align=left;spacingLeft=2;endArrow=block;rounded=0;edgeStyle=orthogonalEdgeStyle;curved=0;rounded=0;" parent="TfcwKBwIOK69jwk8q8nv-20" target="TfcwKBwIOK69jwk8q8nv-42" edge="1">
          <mxGeometry relative="1" as="geometry">
            <mxPoint x="55" y="170" as="sourcePoint" />
            <Array as="points">
              <mxPoint x="85" y="200" />
            </Array>
          </mxGeometry>
        </mxCell>
        <mxCell id="TfcwKBwIOK69jwk8q8nv-31" value="DispatcherServlet" style="shape=umlLifeline;perimeter=lifelinePerimeter;whiteSpace=wrap;html=1;container=1;dropTarget=0;collapsible=0;recursiveResize=0;outlineConnect=0;portConstraint=eastwest;newEdgeStyle={&quot;curved&quot;:0,&quot;rounded&quot;:0};fillColor=#ffe6cc;strokeColor=#d79b00;" parent="WIyWlLk6GJQsqaUBKTNV-1" vertex="1">
          <mxGeometry x="510" y="400" width="100" height="2000" as="geometry" />
        </mxCell>
        <mxCell id="TfcwKBwIOK69jwk8q8nv-33" value="" style="html=1;points=[[0,0,0,0,5],[0,1,0,0,-5],[1,0,0,0,5],[1,0.23,0,0,0],[1,1,0,0,-5]];perimeter=orthogonalPerimeter;outlineConnect=0;targetShapes=umlLifeline;portConstraint=eastwest;newEdgeStyle={&quot;curved&quot;:0,&quot;rounded&quot;:0};" parent="TfcwKBwIOK69jwk8q8nv-31" vertex="1">
          <mxGeometry x="45" y="290" width="10" height="1620" as="geometry" />
        </mxCell>
        <mxCell id="TfcwKBwIOK69jwk8q8nv-37" value="" style="html=1;points=[[0,0,0,0,5],[0,1,0,0,-5],[1,0,0,0,5],[1,1,0,0,-5]];perimeter=orthogonalPerimeter;outlineConnect=0;targetShapes=umlLifeline;portConstraint=eastwest;newEdgeStyle={&quot;curved&quot;:0,&quot;rounded&quot;:0};" parent="TfcwKBwIOK69jwk8q8nv-31" vertex="1">
          <mxGeometry x="50" y="330" width="10" height="1500" as="geometry" />
        </mxCell>
        <mxCell id="TfcwKBwIOK69jwk8q8nv-38" value="调用doDispatch" style="html=1;align=left;spacingLeft=2;endArrow=block;rounded=0;edgeStyle=orthogonalEdgeStyle;curved=0;rounded=0;entryX=1;entryY=0;entryDx=0;entryDy=5;entryPerimeter=0;" parent="TfcwKBwIOK69jwk8q8nv-31" source="TfcwKBwIOK69jwk8q8nv-33" target="TfcwKBwIOK69jwk8q8nv-37" edge="1">
          <mxGeometry relative="1" as="geometry">
            <mxPoint x="60" y="310" as="sourcePoint" />
            <Array as="points">
              <mxPoint x="85" y="310" />
              <mxPoint x="85" y="335" />
            </Array>
          </mxGeometry>
        </mxCell>
        <mxCell id="UzaOYRNjPjFEmirXTNGk-18" value="" style="html=1;points=[[0,0,0,0,5],[0,1,0,0,-5],[1,0,0,0,5],[1,1,0,0,-5]];perimeter=orthogonalPerimeter;outlineConnect=0;targetShapes=umlLifeline;portConstraint=eastwest;newEdgeStyle={&quot;curved&quot;:0,&quot;rounded&quot;:0};" vertex="1" parent="TfcwKBwIOK69jwk8q8nv-31">
          <mxGeometry x="55" y="1170" width="10" height="590" as="geometry" />
        </mxCell>
        <mxCell id="UzaOYRNjPjFEmirXTNGk-19" value="调用processDispatchResult&lt;div&gt;如果有异常进行异常处理，重新设置ModelAndView&lt;/div&gt;" style="html=1;align=left;spacingLeft=2;endArrow=block;rounded=0;edgeStyle=orthogonalEdgeStyle;curved=0;rounded=0;" edge="1" target="UzaOYRNjPjFEmirXTNGk-18" parent="TfcwKBwIOK69jwk8q8nv-31">
          <mxGeometry relative="1" as="geometry">
            <mxPoint x="60" y="1150" as="sourcePoint" />
            <Array as="points">
              <mxPoint x="90" y="1180" />
            </Array>
          </mxGeometry>
        </mxCell>
        <mxCell id="TfcwKBwIOK69jwk8q8nv-34" value="调用doService" style="html=1;verticalAlign=bottom;endArrow=block;curved=0;rounded=0;entryX=0;entryY=0;entryDx=0;entryDy=5;entryPerimeter=0;" parent="WIyWlLk6GJQsqaUBKTNV-1" source="TfcwKBwIOK69jwk8q8nv-42" target="TfcwKBwIOK69jwk8q8nv-33" edge="1">
          <mxGeometry width="80" relative="1" as="geometry">
            <mxPoint x="390" y="690" as="sourcePoint" />
            <mxPoint x="490" y="700" as="targetPoint" />
          </mxGeometry>
        </mxCell>
        <mxCell id="eIotClVCNdmH4BLausW9-1" value="HandlerMapping" style="shape=umlLifeline;perimeter=lifelinePerimeter;whiteSpace=wrap;html=1;container=1;dropTarget=0;collapsible=0;recursiveResize=0;outlineConnect=0;portConstraint=eastwest;newEdgeStyle={&quot;curved&quot;:0,&quot;rounded&quot;:0};fillColor=#ffe6cc;strokeColor=#d79b00;" parent="WIyWlLk6GJQsqaUBKTNV-1" vertex="1">
          <mxGeometry x="710" y="400" width="100" height="1740" as="geometry" />
        </mxCell>
        <mxCell id="eIotClVCNdmH4BLausW9-2" value="" style="html=1;points=[[0,0,0,0,5],[0,1,0,0,-5],[1,0,0,0,5],[1,1,0,0,-5]];perimeter=orthogonalPerimeter;outlineConnect=0;targetShapes=umlLifeline;portConstraint=eastwest;newEdgeStyle={&quot;curved&quot;:0,&quot;rounded&quot;:0};" parent="eIotClVCNdmH4BLausW9-1" vertex="1">
          <mxGeometry x="45" y="360" width="10" height="80" as="geometry" />
        </mxCell>
        <mxCell id="eIotClVCNdmH4BLausW9-3" value="获取处理器链&lt;br&gt;HandlerExecutionChain" style="html=1;verticalAlign=bottom;endArrow=block;curved=0;rounded=0;entryX=0;entryY=0;entryDx=0;entryDy=5;" parent="WIyWlLk6GJQsqaUBKTNV-1" target="eIotClVCNdmH4BLausW9-2" edge="1">
          <mxGeometry relative="1" as="geometry">
            <mxPoint x="570" y="765" as="sourcePoint" />
          </mxGeometry>
        </mxCell>
        <mxCell id="eIotClVCNdmH4BLausW9-4" value="return" style="html=1;verticalAlign=bottom;endArrow=open;dashed=1;endSize=8;curved=0;rounded=0;exitX=0;exitY=1;exitDx=0;exitDy=-5;" parent="WIyWlLk6GJQsqaUBKTNV-1" source="eIotClVCNdmH4BLausW9-2" edge="1">
          <mxGeometry relative="1" as="geometry">
            <mxPoint x="570" y="835" as="targetPoint" />
          </mxGeometry>
        </mxCell>
        <mxCell id="UzaOYRNjPjFEmirXTNGk-0" value="HandlerAdapter" style="shape=umlLifeline;perimeter=lifelinePerimeter;whiteSpace=wrap;html=1;container=1;dropTarget=0;collapsible=0;recursiveResize=0;outlineConnect=0;portConstraint=eastwest;newEdgeStyle={&quot;curved&quot;:0,&quot;rounded&quot;:0};fillColor=#ffe6cc;strokeColor=#d79b00;" vertex="1" parent="WIyWlLk6GJQsqaUBKTNV-1">
          <mxGeometry x="930" y="400" width="100" height="1420" as="geometry" />
        </mxCell>
        <mxCell id="UzaOYRNjPjFEmirXTNGk-1" value="" style="html=1;points=[[0,0,0,0,5],[0,1,0,0,-5],[1,0,0,0,5],[1,1,0,0,-5]];perimeter=orthogonalPerimeter;outlineConnect=0;targetShapes=umlLifeline;portConstraint=eastwest;newEdgeStyle={&quot;curved&quot;:0,&quot;rounded&quot;:0};" vertex="1" parent="UzaOYRNjPjFEmirXTNGk-0">
          <mxGeometry x="45" y="490" width="10" height="80" as="geometry" />
        </mxCell>
        <mxCell id="UzaOYRNjPjFEmirXTNGk-8" value="调用业务方法" style="html=1;points=[[0,0,0,0,5],[0,1,0,0,-5],[1,0,0,0,5],[1,1,0,0,-5]];perimeter=orthogonalPerimeter;outlineConnect=0;targetShapes=umlLifeline;portConstraint=eastwest;newEdgeStyle={&quot;curved&quot;:0,&quot;rounded&quot;:0};fillColor=#dae8fc;strokeColor=#6c8ebf;" vertex="1" parent="UzaOYRNjPjFEmirXTNGk-0">
          <mxGeometry x="45" y="740" width="10" height="80" as="geometry" />
        </mxCell>
        <mxCell id="UzaOYRNjPjFEmirXTNGk-2" value="获取HandlerAdapter" style="html=1;verticalAlign=bottom;endArrow=block;curved=0;rounded=0;entryX=0;entryY=0;entryDx=0;entryDy=5;" edge="1" target="UzaOYRNjPjFEmirXTNGk-1" parent="WIyWlLk6GJQsqaUBKTNV-1">
          <mxGeometry relative="1" as="geometry">
            <mxPoint x="570" y="895" as="sourcePoint" />
          </mxGeometry>
        </mxCell>
        <mxCell id="UzaOYRNjPjFEmirXTNGk-3" value="return" style="html=1;verticalAlign=bottom;endArrow=open;dashed=1;endSize=8;curved=0;rounded=0;exitX=0;exitY=1;exitDx=0;exitDy=-5;" edge="1" source="UzaOYRNjPjFEmirXTNGk-1" parent="WIyWlLk6GJQsqaUBKTNV-1">
          <mxGeometry relative="1" as="geometry">
            <mxPoint x="570" y="965" as="targetPoint" />
          </mxGeometry>
        </mxCell>
        <mxCell id="UzaOYRNjPjFEmirXTNGk-4" value="HandlerExecutionChain" style="shape=umlLifeline;perimeter=lifelinePerimeter;whiteSpace=wrap;html=1;container=1;dropTarget=0;collapsible=0;recursiveResize=0;outlineConnect=0;portConstraint=eastwest;newEdgeStyle={&quot;curved&quot;:0,&quot;rounded&quot;:0};fillColor=#ffe6cc;strokeColor=#d79b00;" vertex="1" parent="WIyWlLk6GJQsqaUBKTNV-1">
          <mxGeometry x="1130" y="400" width="139" height="2060" as="geometry" />
        </mxCell>
        <mxCell id="UzaOYRNjPjFEmirXTNGk-5" value="" style="html=1;points=[[0,0,0,0,5],[0,1,0,0,-5],[1,0,0,0,5],[1,1,0,0,-5]];perimeter=orthogonalPerimeter;outlineConnect=0;targetShapes=umlLifeline;portConstraint=eastwest;newEdgeStyle={&quot;curved&quot;:0,&quot;rounded&quot;:0};" vertex="1" parent="UzaOYRNjPjFEmirXTNGk-4">
          <mxGeometry x="64.5" y="600" width="10" height="80" as="geometry" />
        </mxCell>
        <mxCell id="UzaOYRNjPjFEmirXTNGk-15" value="" style="html=1;points=[[0,0,0,0,5],[0,1,0,0,-5],[1,0,0,0,5],[1,1,0,0,-5]];perimeter=orthogonalPerimeter;outlineConnect=0;targetShapes=umlLifeline;portConstraint=eastwest;newEdgeStyle={&quot;curved&quot;:0,&quot;rounded&quot;:0};" vertex="1" parent="UzaOYRNjPjFEmirXTNGk-4">
          <mxGeometry x="64.5" y="1000" width="10" height="80" as="geometry" />
        </mxCell>
        <mxCell id="UzaOYRNjPjFEmirXTNGk-35" value="" style="html=1;points=[[0,0,0,0,5],[0,1,0,0,-5],[1,0,0,0,5],[1,1,0,0,-5]];perimeter=orthogonalPerimeter;outlineConnect=0;targetShapes=umlLifeline;portConstraint=eastwest;newEdgeStyle={&quot;curved&quot;:0,&quot;rounded&quot;:0};" vertex="1" parent="UzaOYRNjPjFEmirXTNGk-4">
          <mxGeometry x="64.5" y="1590" width="10" height="80" as="geometry" />
        </mxCell>
        <mxCell id="UzaOYRNjPjFEmirXTNGk-6" value="调用拦截器进行前置处理" style="html=1;verticalAlign=bottom;endArrow=block;curved=0;rounded=0;entryX=0;entryY=0;entryDx=0;entryDy=5;" edge="1" target="UzaOYRNjPjFEmirXTNGk-5" parent="WIyWlLk6GJQsqaUBKTNV-1">
          <mxGeometry relative="1" as="geometry">
            <mxPoint x="570" y="1005" as="sourcePoint" />
          </mxGeometry>
        </mxCell>
        <mxCell id="UzaOYRNjPjFEmirXTNGk-7" value="return" style="html=1;verticalAlign=bottom;endArrow=open;dashed=1;endSize=8;curved=0;rounded=0;exitX=0;exitY=1;exitDx=0;exitDy=-5;" edge="1" source="UzaOYRNjPjFEmirXTNGk-5" parent="WIyWlLk6GJQsqaUBKTNV-1">
          <mxGeometry relative="1" as="geometry">
            <mxPoint x="570" y="1075" as="targetPoint" />
          </mxGeometry>
        </mxCell>
        <mxCell id="UzaOYRNjPjFEmirXTNGk-9" value="调用实际的Handler处理器代码&lt;div&gt;返回ModelAndView&lt;/div&gt;" style="html=1;verticalAlign=bottom;endArrow=block;curved=0;rounded=0;entryX=0;entryY=0;entryDx=0;entryDy=5;" edge="1" target="UzaOYRNjPjFEmirXTNGk-8" parent="WIyWlLk6GJQsqaUBKTNV-1">
          <mxGeometry relative="1" as="geometry">
            <mxPoint x="570" y="1145" as="sourcePoint" />
          </mxGeometry>
        </mxCell>
        <mxCell id="UzaOYRNjPjFEmirXTNGk-10" value="return" style="html=1;verticalAlign=bottom;endArrow=open;dashed=1;endSize=8;curved=0;rounded=0;exitX=0;exitY=1;exitDx=0;exitDy=-5;" edge="1" source="UzaOYRNjPjFEmirXTNGk-8" parent="WIyWlLk6GJQsqaUBKTNV-1">
          <mxGeometry relative="1" as="geometry">
            <mxPoint x="570" y="1215" as="targetPoint" />
          </mxGeometry>
        </mxCell>
        <mxCell id="UzaOYRNjPjFEmirXTNGk-11" value="RequestToViewNameTranslator" style="shape=umlLifeline;perimeter=lifelinePerimeter;whiteSpace=wrap;html=1;container=1;dropTarget=0;collapsible=0;recursiveResize=0;outlineConnect=0;portConstraint=eastwest;newEdgeStyle={&quot;curved&quot;:0,&quot;rounded&quot;:0};" vertex="1" parent="WIyWlLk6GJQsqaUBKTNV-1">
          <mxGeometry x="1360" y="400" width="200" height="1190" as="geometry" />
        </mxCell>
        <mxCell id="UzaOYRNjPjFEmirXTNGk-12" value="" style="html=1;points=[[0,0,0,0,5],[0,1,0,0,-5],[1,0,0,0,5],[1,1,0,0,-5]];perimeter=orthogonalPerimeter;outlineConnect=0;targetShapes=umlLifeline;portConstraint=eastwest;newEdgeStyle={&quot;curved&quot;:0,&quot;rounded&quot;:0};" vertex="1" parent="UzaOYRNjPjFEmirXTNGk-11">
          <mxGeometry x="95" y="880" width="10" height="80" as="geometry" />
        </mxCell>
        <mxCell id="UzaOYRNjPjFEmirXTNGk-13" value="Handler返回MV不含有view&lt;br&gt;设置默认的viewName" style="html=1;verticalAlign=bottom;endArrow=block;curved=0;rounded=0;entryX=0;entryY=0;entryDx=0;entryDy=5;" edge="1" target="UzaOYRNjPjFEmirXTNGk-12" parent="WIyWlLk6GJQsqaUBKTNV-1">
          <mxGeometry relative="1" as="geometry">
            <mxPoint x="570" y="1285" as="sourcePoint" />
          </mxGeometry>
        </mxCell>
        <mxCell id="UzaOYRNjPjFEmirXTNGk-14" value="return" style="html=1;verticalAlign=bottom;endArrow=open;dashed=1;endSize=8;curved=0;rounded=0;exitX=0;exitY=1;exitDx=0;exitDy=-5;" edge="1" source="UzaOYRNjPjFEmirXTNGk-12" parent="WIyWlLk6GJQsqaUBKTNV-1">
          <mxGeometry relative="1" as="geometry">
            <mxPoint x="570" y="1355" as="targetPoint" />
          </mxGeometry>
        </mxCell>
        <mxCell id="UzaOYRNjPjFEmirXTNGk-16" value="调用拦截器进行后置处理" style="html=1;verticalAlign=bottom;endArrow=block;curved=0;rounded=0;entryX=0;entryY=0;entryDx=0;entryDy=5;" edge="1" target="UzaOYRNjPjFEmirXTNGk-15" parent="WIyWlLk6GJQsqaUBKTNV-1">
          <mxGeometry relative="1" as="geometry">
            <mxPoint x="570" y="1405" as="sourcePoint" />
          </mxGeometry>
        </mxCell>
        <mxCell id="UzaOYRNjPjFEmirXTNGk-17" value="return" style="html=1;verticalAlign=bottom;endArrow=open;dashed=1;endSize=8;curved=0;rounded=0;exitX=0;exitY=1;exitDx=0;exitDy=-5;" edge="1" source="UzaOYRNjPjFEmirXTNGk-15" parent="WIyWlLk6GJQsqaUBKTNV-1">
          <mxGeometry relative="1" as="geometry">
            <mxPoint x="570" y="1475" as="targetPoint" />
          </mxGeometry>
        </mxCell>
        <mxCell id="UzaOYRNjPjFEmirXTNGk-20" value="LocaleResolver" style="shape=umlLifeline;perimeter=lifelinePerimeter;whiteSpace=wrap;html=1;container=1;dropTarget=0;collapsible=0;recursiveResize=0;outlineConnect=0;portConstraint=eastwest;newEdgeStyle={&quot;curved&quot;:0,&quot;rounded&quot;:0};" vertex="1" parent="WIyWlLk6GJQsqaUBKTNV-1">
          <mxGeometry x="1654" y="400" width="100" height="2290" as="geometry" />
        </mxCell>
        <mxCell id="UzaOYRNjPjFEmirXTNGk-25" value="" style="html=1;points=[[0,0,0,0,5],[0,1,0,0,-5],[1,0,0,0,5],[1,1,0,0,-5]];perimeter=orthogonalPerimeter;outlineConnect=0;targetShapes=umlLifeline;portConstraint=eastwest;newEdgeStyle={&quot;curved&quot;:0,&quot;rounded&quot;:0};" vertex="1" parent="UzaOYRNjPjFEmirXTNGk-20">
          <mxGeometry x="45" y="1220" width="10" height="80" as="geometry" />
        </mxCell>
        <mxCell id="UzaOYRNjPjFEmirXTNGk-21" value="ViewResolver" style="shape=umlLifeline;perimeter=lifelinePerimeter;whiteSpace=wrap;html=1;container=1;dropTarget=0;collapsible=0;recursiveResize=0;outlineConnect=0;portConstraint=eastwest;newEdgeStyle={&quot;curved&quot;:0,&quot;rounded&quot;:0};fillColor=#ffe6cc;strokeColor=#d79b00;" vertex="1" parent="WIyWlLk6GJQsqaUBKTNV-1">
          <mxGeometry x="1850" y="400" width="100" height="1980" as="geometry" />
        </mxCell>
        <mxCell id="UzaOYRNjPjFEmirXTNGk-28" value="" style="html=1;points=[[0,0,0,0,5],[0,1,0,0,-5],[1,0,0,0,5],[1,1,0,0,-5]];perimeter=orthogonalPerimeter;outlineConnect=0;targetShapes=umlLifeline;portConstraint=eastwest;newEdgeStyle={&quot;curved&quot;:0,&quot;rounded&quot;:0};" vertex="1" parent="UzaOYRNjPjFEmirXTNGk-21">
          <mxGeometry x="45" y="1353" width="10" height="80" as="geometry" />
        </mxCell>
        <mxCell id="UzaOYRNjPjFEmirXTNGk-26" value="本地化处理" style="html=1;verticalAlign=bottom;endArrow=block;curved=0;rounded=0;entryX=0;entryY=0;entryDx=0;entryDy=5;" edge="1" target="UzaOYRNjPjFEmirXTNGk-25" parent="WIyWlLk6GJQsqaUBKTNV-1" source="UzaOYRNjPjFEmirXTNGk-18">
          <mxGeometry relative="1" as="geometry">
            <mxPoint x="580" y="1635" as="sourcePoint" />
          </mxGeometry>
        </mxCell>
        <mxCell id="UzaOYRNjPjFEmirXTNGk-27" value="return" style="html=1;verticalAlign=bottom;endArrow=open;dashed=1;endSize=8;curved=0;rounded=0;exitX=0;exitY=1;exitDx=0;exitDy=-5;" edge="1" source="UzaOYRNjPjFEmirXTNGk-25" parent="WIyWlLk6GJQsqaUBKTNV-1" target="UzaOYRNjPjFEmirXTNGk-18">
          <mxGeometry relative="1" as="geometry">
            <mxPoint x="580" y="1705" as="targetPoint" />
          </mxGeometry>
        </mxCell>
        <mxCell id="UzaOYRNjPjFEmirXTNGk-29" value="根据viewName处理视图，返回View" style="html=1;verticalAlign=bottom;endArrow=block;curved=0;rounded=0;entryX=0;entryY=0;entryDx=0;entryDy=5;" edge="1" target="UzaOYRNjPjFEmirXTNGk-28" parent="WIyWlLk6GJQsqaUBKTNV-1" source="UzaOYRNjPjFEmirXTNGk-18">
          <mxGeometry relative="1" as="geometry">
            <mxPoint x="590" y="1745" as="sourcePoint" />
          </mxGeometry>
        </mxCell>
        <mxCell id="UzaOYRNjPjFEmirXTNGk-30" value="return" style="html=1;verticalAlign=bottom;endArrow=open;dashed=1;endSize=8;curved=0;rounded=0;exitX=0;exitY=1;exitDx=0;exitDy=-5;" edge="1" source="UzaOYRNjPjFEmirXTNGk-28" parent="WIyWlLk6GJQsqaUBKTNV-1" target="UzaOYRNjPjFEmirXTNGk-18">
          <mxGeometry relative="1" as="geometry">
            <mxPoint x="590" y="1815" as="targetPoint" />
          </mxGeometry>
        </mxCell>
        <mxCell id="UzaOYRNjPjFEmirXTNGk-31" value="View" style="shape=umlLifeline;perimeter=lifelinePerimeter;whiteSpace=wrap;html=1;container=1;dropTarget=0;collapsible=0;recursiveResize=0;outlineConnect=0;portConstraint=eastwest;newEdgeStyle={&quot;curved&quot;:0,&quot;rounded&quot;:0};" vertex="1" parent="WIyWlLk6GJQsqaUBKTNV-1">
          <mxGeometry x="2060" y="400" width="100" height="2040" as="geometry" />
        </mxCell>
        <mxCell id="UzaOYRNjPjFEmirXTNGk-32" value="" style="html=1;points=[[0,0,0,0,5],[0,1,0,0,-5],[1,0,0,0,5],[1,1,0,0,-5]];perimeter=orthogonalPerimeter;outlineConnect=0;targetShapes=umlLifeline;portConstraint=eastwest;newEdgeStyle={&quot;curved&quot;:0,&quot;rounded&quot;:0};" vertex="1" parent="UzaOYRNjPjFEmirXTNGk-31">
          <mxGeometry x="45" y="1470" width="10" height="80" as="geometry" />
        </mxCell>
        <mxCell id="UzaOYRNjPjFEmirXTNGk-33" value="调用render方法，渲染视图" style="html=1;verticalAlign=bottom;endArrow=block;curved=0;rounded=0;entryX=0;entryY=0;entryDx=0;entryDy=5;" edge="1" target="UzaOYRNjPjFEmirXTNGk-32" parent="WIyWlLk6GJQsqaUBKTNV-1" source="UzaOYRNjPjFEmirXTNGk-18">
          <mxGeometry relative="1" as="geometry">
            <mxPoint x="610" y="1885" as="sourcePoint" />
          </mxGeometry>
        </mxCell>
        <mxCell id="UzaOYRNjPjFEmirXTNGk-34" value="return" style="html=1;verticalAlign=bottom;endArrow=open;dashed=1;endSize=8;curved=0;rounded=0;exitX=0;exitY=1;exitDx=0;exitDy=-5;" edge="1" source="UzaOYRNjPjFEmirXTNGk-32" parent="WIyWlLk6GJQsqaUBKTNV-1" target="UzaOYRNjPjFEmirXTNGk-18">
          <mxGeometry relative="1" as="geometry">
            <mxPoint x="610" y="1955" as="targetPoint" />
          </mxGeometry>
        </mxCell>
        <mxCell id="UzaOYRNjPjFEmirXTNGk-36" value="调用拦截器，请求完成，进行处理" style="html=1;verticalAlign=bottom;endArrow=block;curved=0;rounded=0;entryX=0;entryY=0;entryDx=0;entryDy=5;" edge="1" target="UzaOYRNjPjFEmirXTNGk-35" parent="WIyWlLk6GJQsqaUBKTNV-1" source="UzaOYRNjPjFEmirXTNGk-18">
          <mxGeometry relative="1" as="geometry">
            <mxPoint x="1124.5" y="1995" as="sourcePoint" />
          </mxGeometry>
        </mxCell>
        <mxCell id="UzaOYRNjPjFEmirXTNGk-37" value="return" style="html=1;verticalAlign=bottom;endArrow=open;dashed=1;endSize=8;curved=0;rounded=0;exitX=0;exitY=1;exitDx=0;exitDy=-5;" edge="1" source="UzaOYRNjPjFEmirXTNGk-35" parent="WIyWlLk6GJQsqaUBKTNV-1" target="UzaOYRNjPjFEmirXTNGk-18">
          <mxGeometry relative="1" as="geometry">
            <mxPoint x="1124.5" y="2065" as="targetPoint" />
          </mxGeometry>
        </mxCell>
        <mxCell id="UzaOYRNjPjFEmirXTNGk-38" value="return" style="html=1;verticalAlign=bottom;endArrow=open;dashed=1;endSize=8;curved=0;rounded=0;exitX=0;exitY=1;exitDx=0;exitDy=-5;exitPerimeter=0;" edge="1" parent="WIyWlLk6GJQsqaUBKTNV-1" source="TfcwKBwIOK69jwk8q8nv-33" target="TfcwKBwIOK69jwk8q8nv-42">
          <mxGeometry relative="1" as="geometry">
            <mxPoint x="330" y="2310" as="sourcePoint" />
            <mxPoint x="250" y="2310" as="targetPoint" />
          </mxGeometry>
        </mxCell>
        <mxCell id="UzaOYRNjPjFEmirXTNGk-39" value="return" style="html=1;verticalAlign=bottom;endArrow=open;dashed=1;endSize=8;curved=0;rounded=0;exitX=0;exitY=1;exitDx=0;exitDy=-5;exitPerimeter=0;" edge="1" parent="WIyWlLk6GJQsqaUBKTNV-1" source="TfcwKBwIOK69jwk8q8nv-16" target="TfcwKBwIOK69jwk8q8nv-6">
          <mxGeometry relative="1" as="geometry">
            <mxPoint x="280" y="2360" as="sourcePoint" />
            <mxPoint x="200" y="2360" as="targetPoint" />
          </mxGeometry>
        </mxCell>
        <mxCell id="UzaOYRNjPjFEmirXTNGk-40" value="return" style="html=1;verticalAlign=bottom;endArrow=open;dashed=1;endSize=8;curved=0;rounded=0;exitX=0;exitY=1;exitDx=0;exitDy=-5;exitPerimeter=0;" edge="1" parent="WIyWlLk6GJQsqaUBKTNV-1" source="TfcwKBwIOK69jwk8q8nv-6" target="TfcwKBwIOK69jwk8q8nv-5">
          <mxGeometry relative="1" as="geometry">
            <mxPoint x="90" y="2380" as="sourcePoint" />
            <mxPoint x="10" y="2380" as="targetPoint" />
          </mxGeometry>
        </mxCell>
      </root>
    </mxGraphModel>
  </diagram>
  <diagram id="avfXMK9cuai-W5BS7vSG" name="简化时序图">
    <mxGraphModel dx="2363" dy="1292" grid="1" gridSize="10" guides="1" tooltips="1" connect="1" arrows="1" fold="1" page="1" pageScale="1" pageWidth="827" pageHeight="1169" math="0" shadow="0">
      <root>
        <mxCell id="0" />
        <mxCell id="1" parent="0" />
        <mxCell id="LML6ed7zfzYtvznoztVl-1" value="" style="shape=image;verticalLabelPosition=bottom;labelBackgroundColor=default;verticalAlign=top;aspect=fixed;imageAspect=0;image=data:image/png,iVBORw0KGgoAAAANSUhEUgAABjcAAAMUCAIAAAB/3OJXAAAgAElEQVR4Aey9XYwc133gyzzqPfuQ3H3OU4CL5CUPeQjgZC9CwB3ZjrRK5Mi2HIdZjpIIshPIG1q5NiIwMUg7ER1jqUi01mbWNq0rU74kLGKIUGOHZiRTV/RYsemu6urqrp5uj66QXhDotW4DA/TF+axz6qOne6Y/qnt+A4JTn6dO/er0qerf/M+/jvX4gQAEIAABCEAAAhCAAAQgAAEIQAACEIDAsgkcW3YFOD4EIAABCEAAAhCAAAQgAAEIQAACEIAABHpYKhoBBCAAAQhAAAIQgAAEIAABCEAAAhCAwPIJYKmWfw2oAQQgAAEIQAACEIAABCAAAQhAAAIQgACWijYAAQhAAAIQgAAEIAABCEAAAhCAAAQgsHwCWKrlXwNqAAEIQAACEIAABCAAAQhAAAIQgAAEIIClog1AAAIQgAAEIAABCEAAAhCAAAQgAAEILJ8Almr514AaQAACEIAABCAAAQhAAAIQgAAEIAABCGCpaAMQgAAEIAABCEAAAhCAAAQgAAEIQAACyyeApVr+NaAGEIAABCAAAQhAAAIQgAAEIAABCEAAAlgq2gAEIAABCEAAAhCAAAQgAAEIQAACEIDA8glgqZZ/DagBBCAAAQhAAAIQgAAEIAABCEAAAhCAAJaKNgABCEAAAhCAAAQgAAEIQAACEIAABCCwfAJYquVfA2oAAQhAAAIQgAAEIAABCEAAAhCAAAQggKWiDUAAAhCAAAQgAAEIQAACEIAABCAAAQgsnwCWavnXgBpAAAIQgAAEIAABCEAAAhCAAAQgAAEIYKloAxCAAAQgAAEIQAACEIAABCAAAQhAAALLJ4ClWv41oAYQgAAEIAABCEAAAhCAAAQgAAEIQAACWCraAAQgAAEIQAACEIAABCAAAQhAAAIQgMDyCWCpln8NqAEEIAABCEAAAhCAAAQgAAEIQAACEIAAloo2AAEIQGBFCHR3klYcNcJme0UqTDUhAAEIQAACEIAABCAAAQhMQwBLNQ0ttoUABCCwNAJJFNT1TyPuLq0aHBgCEIAABCAAAQhAAAIQgMC8CGCp5kWWciEAAQjMloCjqcJ4Z7ZlUxoEIAABCEAAAhCAAAQgAIHlE8BSLf8aUAMIQAACExFImjaaKmx2JtqFjSAAAQhAAAIQgAAEIAABCKwOASzV6lwragoBCBx1Ao6mCprJUafB+UMAAhCAAAQgAAEIQAAC60YAS7VuV5TzgQAE1phAO81NFUTkUF/jK82pQQACEIAABCAAAQhA4EgSwFIdycvOSUMAAitKoERTdZJ2h4TqK3pNqTYEIAABCEAAAhCAAAQgYAhgqQwJfkMAAhBYAQLths1NZaOpuq1GvV4PgkacoKpW4BpSRQhAAAIQgAAEIAABCECghACWqgQMiyEAAQgsnUB3ZyennaSRqsufUOWmcuKr6nVU1dKvGhWAAAQgAAEIQAACEIAABA5KAEt1UHLsBwEIQGBeBLpJHIWhCJoKmzuZg3RbzShuJXaAX9IMlbNy/g8acTvvtzIFMQsBCEAAAhCAAAQgAAEIQKBiBLBUFbsgVAcCEIBAr5Oap33e5bcT5x2V0VVh1LIuC6gQgAAEIAABCEAAAhCAAASqTwBLVf1rRA0hAIEjR2DH0VRj3uXXbaVZqsJmpydjsIykkr8DVNWRazycMAQgAAEIQAACEIAABFaXAJZqda8dNYcABNaXQDcWCdHVTyPOJadSJ+4kpLKZ1Hu9bqcVZQKsSFa1vi2FM4MABCAAAQhAAAIQgMA6EcBSrdPV5FwgAIG1IeBqqjDOJqcSp+kMC6w3WhmRJVWVfRugtF2oqrVpHJwIBCAAAQhAAAIQgAAE1pUAlmpdryznBQEIrDgB52V+QZRkT8ZNSFVssXo9MQIwHRKIqsoyZB4CEIAABCAAAQhAAAIQqBgBLFXFLgjVgQAEIKAJtFPD5Azokyu7zmC/sJlTWB7CAlVFsiqPEDMQgAAEIAABCEAAAhCAQEUIYKkqciGoBgQgAIEsAUdF1b3kVElxcvVuNzPuTxXY7WQjqmRYFaoqy5t5CEAAAhCAAAQgAAEIQGDJBLBUS74AHB4CEIBAKYFUUwVhs20268RpcnQnIZXMUxU0mu2O66q67WwqdZWSXf9PsipDld8QgAAEIAABCEAAAhCAwPIJYKmWfw2oAQQgAIESAu04arbaO552cvJVhXHH7OjmqarrMKlcEJVczisADTN+QwACEIAABCAAAQhAAAIVI4ClqtgFoToQgAAExhAoSUjVbaU5rEyUVBC67/gTwViO7CpIVtWIE2eDMXVgFQQgAAEIQAACEIAABCAAgfkQwFLNhyulQgACEDgogU7HG7PnFuMmpHIG+6UjA73hfGYmaMSFJeZVlYnCco/JNAQgAAEIQAACEIAABCAAgQURwFItCDSHgQAEIDAJARksFURu3JPdTWae0urJcVTOYvEuwLx7Gpt8Sm7uRl3VnXGE9tBMQAACEIAABCAAAQhAAAIQmD8BLNX8GXMECEAAApMRSMfzFXgqN2m6I5K6aZ4qZ6du0oq8EX/1oBH7Ca7cKnXTZFVOIe4WTEMAAhCAAAQgAAEIQAACEJg7ASzV3BFzAAhAAAITEXA1VL3eiHfcvdyVYTMxq1KvVa+H/h69nuOeTLIqnVfd7O79lpvrw+4kSeEgQW8HZiAAAQhAAAIQgAAEIAABCMyUAJZqpjgpDAIQgMDBCLgWql4Pm34mc3etGNVnfpw8VXURLeXvJbeS7skb0bd/8qluWyRjD8KoqEBzbH5DAAIQgAAEIAABCEAAAhCYMQEslQZ6gh8IQOBABJ577rkZd0tHsLiO94q+3Jg7J/FU3XVUrrtyMqUXqKrpklV5ydiL3dcRvEicMgQgAAEIQAACEIAABCAwdwJYKo34vvvu+4Vf+A/8g8B6E/jFX/wPs/137NgxLNVh+2l30F5dWKiuV6K32nVUTkKqeuDnoCqJlirKq97yxhXKI3diEUnl/aCqvGvCDAQgAAEIQAACEIAABCAwHwJYKs31vvvu+8xn/sto9Ab/IACBCQk0m/83luqwPbPnoOpB1Or4JXrhUmEzXevuKHOp5xVUcQ6qbhKH1kA5Ga784+ZTWskRgC2SVfmcmIMABCAAAQhAAAIQgAAEZkkAS6VpYqkmFBNsBgFLAEt12M7YNU11kS89lVCyaH+9816/Xs9JSOWaplwSqiAXBeV4Lzcyq+hccqXVUVVFnFgGAQhAAAIQgAAEIAABCMyIAJZKg8RSWfXABAQmJIClOlQ/7CuouuegRMH+en8g4E4aDuWvkDXKx0GlqsodJtho+WMLi0+nm0TZ8X91MaKwKPtVcQkshQAEIAABCEAAAhCAAAQgMBkBLJXmhKWaUEywGQQsASzVZN1s0VbddjMddpd/pV9GUWUUlmuaSoObujvtTHqpoBG3W6lxymmxonr2Os4edpygnkjdV+GuLIQABCAAAQhAAAIQgAAEIDAlASyVBoalsuqBCQhMSABLNWV/azbPKKpsNFQ3k708u74otqkkXXrBq/20YXKHCZp65X534oZjpoJGq5URX2IEYNTu9Xo7cSNsxIRX5RCyAAIQgAAEIAABCEAAAhCYhgCWStPCUk0oJtgMApYAlmqaztZs6w/ky77STwzW88bXZRWVKMakiwrCzJv9SoKb8nnVg/0H+3WdzFdCRjVMXndzdOWvZP26LfNSwJIamJPnNwQgAAEIQAACEIAABCAAgXEEsFSaDpbKqgcmIDAhASzVuM61ZJ0XRxV4+dILZFLULs0c1e0k4n173SSOfFdVIoq6aSqr+n6Oar9oLi3KRMJ3kdqq441eFGMQm7wLsOT6sxgCEIAABCAAAQhAAAIQGEcAS6XpYKkmFBNsBgFLAEs1rnMtX2eiqWxiKJFCKqOa6gW5qmyJwkw1Wzt2XgVXOWPzROhTsy0klv1ppyFaYTPzKkG7kZzIRnOFzTJV1t3Z0YfICzaZYN2rgX8U5iAAAQhAAAIQgAAEIAABCOQJYKk0EyyVVQ9MQGBCAliqfJc64ZJOHMdG4bTc3E8ma1Rkxtf5BXY7raaOnAoanjxy3vqX6qow0jFNTrSTyiPlF2vm8uMNvWAvs1nJ7wJVFfAuwBJYLIYABCAAAQhAAAIQgAAEighgqTQVLNWEYoLNIGAJYKmKOtWpl7lD8YRgCptFScjzI/vEhuZgJjxL7B8EXmKrehjF6Yi8jNsy+4tkV0k2M3pxRZxd0sl2M2zEbRFZ5WetUsKsZAxiujtTEIAABCAAAQhAAAIQgAAEJAEslW4IWCqrHpiAwIQEsFSzuY/YNOW5YXpSHrUKRgMKmRWlr9TLDufLGycdXxXGzjhBW/v85sEUhqrnKLIwaosDSFWlD2l+oaosbyYgAAEIQAACEIAABCAAgTICWCpNBks1oZhgMwhYAliqso51yuWtqBGpSCR3xyRu+GnRte8JXD8ldigZzpd3T/mEVCIjlnk9n9FJ4nfuGG7F/GnHUck4sHRtvgKiXPKqp4SYggAEIAABCEAAAhCAAAQyBLBUGgiWyqoHJiAwIQEsVaY/ne3sTjpOz/ipRrOVGw3YdfJa5d/dV2KwRLhTu1nkpzxX1UjDtUrOzXdUcT4tO6qqhByLIQABCEAAAhCAAAQgAIECAlgqDQVLNaGYYDMIWAJYqoI+dYaLurHOqx6ERXpKHsm1RP5wPvUCPptsKoi8ZOs9Z5CgK6bqQZgJ4Bo3Uq/bdkSXfWVhHoFUVX62rLoeHJjfmCUQgAAEIAABCEAAAhCAwNElgKXS1x5LZdUDExCYkACWat63jnYrbiUiJ3nZj01p5Qy2s/7JvM1POKIom5AqiVJrlE7VZTRWPv6pcKSeG8VVH+OodOW7nZbjtNzc72Vnx3IIQAACEIAABCAAAQhA4KgRwFLpK46lmlBMsBkELAEs1SJvGEkzavrhUL2dODRxUE6oVDpSMIzHCC6xr0w/Za1Wve5GY+VUlbuy13MPXq83shKsgEwnra04Un5wYME+LIIABCAAAQhAAAIQgAAEjhYBLJW+3lgqqx5mPLH32qC/1e/fHI7eOGDJ/Vd+eu+g+x74oOw4AQEs1QJvF0lTRjw54+/cUCYvIZVNVGWCqQqrqUYEuqnXw2aS2dLJapXJvO4qp6CRsWeZUuSsuwOOqogQyyAAAQhAAAIQgAAEIACBXg9LpVsBluqACmlfl5F87sTx48ePf+LmvlsWbLD1/Wc+dP/x48f/8tlBwVrU1ZIJYKkWdxPRkkqFTgVh1Iyc9FEZg5QO5hsbTCUqXxyNpU/LX+meq6ucnCgudxN/2tFddTWq0F/PHAQgAAEIQAACEIAABCAAAUEAS6XbAZaqkpbqjcHmY8JxHT/+J5dembSG2oup/Q73/4nPJdixcgJYqsXdRrqdVmSH95lhfup3PgTKDq0bG0zV67mp171oLHFebmZ0f+W0jso9TH0iqdVrNxvawjVai4PMkSAAAQhAAAIQgAAEIACBZRPAUukrgKUqd0BbP9760qtl/157ZZ+hfIeKpXpjNLp57S+Fabr/v3yuUa5LvMpjqSYEdejNsFQL7sCLVFVRgqc001QYj6mil3o9myYqLcPLVtVzhwhOpJwO4KjcgwSN9phTYBUEIAABCEAAAhCAAAQgsF4EsFT6emKpPNHj+YuvPD0mIGnfaKPxlqr7xU8+8uDD4/89UDt+vPbA+G0eefDhT37xp6ra6oiFFdt75dVXvtEfTjBQ7rufECddWIgHZ4Ki1nd7LNUybgfdnXYcNcIgCMMoTgrTo6f6KYiyqaZslZ1BePlorNKVadHOWwVtmfkJz1FlRibmt06X2NxawoSli5mCAAQgAAEIQAACEIAABNabAJZKX18s1b6W6tE/f/KzZ5x/f/7wRB5nvKWaR9xTuaVKvvpRUedHPv2DfUUVlmoCuYalqurtwQ75q5cNmHNSrwf+eD4x2M9zRI4IcwKsxGjDMGoVazLDxR0bOGXK9PQU0FQGJ78hAAEIQAACEIAABCCw/gSwVPoaY6n2tVRPf9ePG5rQ40xkqR58+v8qH1RYNtgws9yOPSyxVIPvfuIB4age/uLt633x2sHCf+ZdhBOe3QQqpxysz3MFi8JSVfUW0W7IFwIKkdTcKaikG+HUiDNbdFt272yi86Ihh85bBzNHyjiqzGEyG2dnd5o2DVfxOWR3YB4CEIAABCAAAQhAAAIQWAMCWCp9EbFU5TJFj/grtVTjR+09XBNqyBuy99iVrhE02mF96GuJWXJ4WVNoqVqf+5P3yors8595FyGWaoILgaWq6j0gjXkqDERyhu3lB+GNXSlOWKoqY8F0IvcCVeUMGqznw7V8ckkzDLLjF9NzqO/7qkK/NOYgAAEIQAACEIAABCAAgZUlgKXSlw5LdXBLpU3TPvrHWe04qYylGt4sCXEqjHvSCwc/8w1X3lIZRfXwE86IRXf04mcfe/R+WcGHPv0DZWewVFiqle3W0+TjQRDmszrtjBtM58Q/5bNVuUS6SZyGXClXFYTNVkeND3SDtfbNse4c05VqaTW9cYtJ0t5xBiG6dWIaAhCAAAQgAAEIQAACEFh1AlgqfQWxVAe3VHuvDYpHz0mLtP30o8L/PH4t3ebmcM94pYylUm7IEVqTTJ746ite5X1LNfi3p9Moqoceu9Iyh7YWZu/6tafeLw7krsVSWT7lE8RSreANwM051WhndI+7MhIru93MFv4ZF6gqmazKiYPaN/u5c0zfZyWRDdhKhZmK0ArCyPgwv0LMQQACEIAABCAAAQhAAAKrTQBLpa8flsoTPZ6Y2G/En7dxzgFpD2VG0mU2zliq25/e531/5k1/9zvD9/7k0nWv8qmleq3xzcdkLqran3z1Sv/2px59r1BRL0Wvpdv3v/Hcn8kxiQ89fm3XqTyWKnOlimaxVKvX/bv+SKQ/d98S6AZAhSJblVRC/jYFZ9xN4sjmkNIjAO2vMO4U7OIsciuUSeOetOJW0nEDp3bihi1ZJm/XoVtOeUxCAAIQgAAEIAABCEAAAqtMAEulrx6WKhU3WR+xQEvlHvreV754+plG/mV8/W987S8f1DFW93/os/98fejuNXpjlFqqm99/5uHj733w6U2tsQZKVL33wU9+9Rv9vdd++s9PnpAD/e7/s6d/fM9RVKM3RliqDNWiWSzVqnX+bq4oq3tMTqlsQipXCZltSk+4KFlVvR5ESekecoVzzHo+RVZu304r58P2rVmuEBZAAAIQgAAEIAABCEAAAtUlgKXS1wZLta+l+qtX/ORQrzwuVNGJzyXSX/S3n3n6xIeeu+u7HuuMjk8WS5WqkOtXnpAmyvVQe1s/+OpjD+soqtqJM1/6ad5h2SPqit3sv+NETo3eGEbPfPJh7bjEL2GsLg/S45r6Y6nyTHJLsFTV7dqLauYmpAozSaWCRsPGQ6nkUJ183qmGG3lVcIQiVTXOIjkVqqeD+jIFJ3EjDMOgHsjwLp283So2NTHuIJnimIUABCAAAQhAAAIQgAAEqkwAS6WvDpZqX0vlqB1nUsugrZf+TC584ov9jMuYasSfu+/wyksmZur+E59+9Xufs3bp/hNPvtr13JNX+TSWyignU+xw9/K1fzjx6Aec+h+vPfDY48998xuN/k0vJgtLZaB5bP2FWKoqd+7ZunXbqZiSQ+ukU8ronnrdex9fQd6p/VNCFe3UaLZzg/PcAYZjXgKYxn81Wvacup1WM7Rpq6yqIq+6JcQEBCAAAQhAAAIQgAAEVpMAlkpfNyxVuYzQI/7uf+BBL2nUAzKdk4mlGt3+lBw8V/v7274bOrClkkKk/9qn1aA8LZYefuy57+WG+PnqxBnxJ2vys5uNN5/92hlHTt3/4Mf/4dkfd6/c/Oon/kSdhS699sAjH/2rM08+963LfSxVhmrRLJZqpbp9G+mkg5Jk5e1Co6vcler0CqyTSJGes04ejG4SexYpHyo1JiGVV1KvZXJR5cYPHqhmfuHMQQACEIAABCAAAQhAAAKVIoCl0pcDS7WvpXr6u75+ynocE05lvZXyGoezVKJW9y5/7ZPyHXzHj9//6S8VjM7LCBQTS9X43qcedSXUe2uP/vmnX3rzlfQNg3LH4e7lV7/65Mc/IqWb1FWP/uNl8lKVt4e0GWCpKtWbT1aZbpJk85mn0Url4+66SS4llIiqSspfAehaqLyjco65X0KqdNMwLjgcqmqyC89WEIAABCAAAQhAAAIQWAkCWCp9mbBU5VZi0uzpw+9+QoVTPf1dZzjepJZKH8UdjDfV9ImvvqJPwViqZO8bf//Q8fsf+NDHz3zu1bvXh3tvNK4++dl/+Ny1rW80+luDfE4rFXX1D59+NSF7eqqiyhvGG1iqlejl96mkkxxKJaQq3z4XeCUHCBYmq3LToueLdY5Zz68V+7qZpmKTMStotEsqVyTR3CJKdmMxBCAAAQhAAAIQgAAEIFAxAlgqfUGwVOUyYlJLNRpdee4j0iy54VTjLdXdp2Uq8xNX+nOwVKM3hkPHl40uP/eIL74+8ODDJ048febpl7a+mvzM9zLZSDF/bSZ666jOYqkq1p8fpDqOTpLZqvYtYxJV1bFiSbznr52JgHIzZAWN7FrHYGnPlEZlhc2dMfWbpGZjdmcVBCAAAQhAAAIQgAAEILB8AlgqfQ2wVLOwVG8MNh8THuj+Ey91jdYZb6mUDBJvAHxt0PffIejObj/9qCj34ee2c9t871MPSPX0V/9shJSNpcrIo73XBtE3Xt165rkzn/j4iQcfdnOof+BT398zFVZ7Yaky9IpmsVTL78JnUAOdiTyMsyMBx5VdMM4uCJttKZE8R5VXX6l0qtdzWbDclOo2KXpkg6miwmAqWZmwKetfoqrIqz7uarIOAhCAAAQgAAEIQAAClSGApdKXAks1E0s12rt87Zvf6LvGZ6yl+umljwrF9Id/mxRJkLRKupAPfS3xXdLotVefko7qI083bAlllspuYCd+drMffePVbz792W9dTo+l1mKpLKXyCSxVZXry5VQko6rU2D0nFqogjqqXZpmqFySkcg2WyecufweNZjtJOjvZsKxOK7JZ2h3llamZLGLfjO/LgchRIQABCEAAAhCAAAQgAAGHAJZKw8BSZTVN6iYmH/GXUUhydqyl+sEzMmf5Xz47TA83ppCcpQpUjNXxT27eTOufs1Q3Tx8XLyh87PHPnvn011750s271/sDE3hVdlwsVRkZZzmWyulLj+xkN4mVKJJRU137Rr56vZ6Po3JX5xNSOQYriNpCQHmmynuzYLfTbjYCf31mcGGBqhIZ38e/nPDIXkdOHAIQgAAEIAABCEAAApUggKXSlwFLlVoeR0PIhfOzVFtXnpAD+f4xF8qUqUNxLFUaSPXjfPRWmhvrG3/vDu6ToVfyv9oDj3zo43/95HPfLPJWWKrMJSiaxVJVohevQiW6nbZ4daA3Xs8JbdJV7LYcr5RTWE4QVmBWdnfasbOPkFJhFGstllFUjWbRKwdlXnXXZuXfN1gFgNQBAhCAAAQgAAEIQAACEJAEsFS6IWCp9rVUIhzpEeffAzIMKpVBRTFQozdGY2KpfvbsJ6Uuevq7JftaM1JsqW7++JufOHH/8Y9/a8urfC6WaiSTXjXe/JIY3PfXJ0488n75LsLUV+mpDzx50774D0tl4ZdPYKmO0n2k247j8WFIvoSKc4nOnUTtRQmpUhuV9VsFQVGpoQrCYj2VXhsvgMv4r3Q1UxCAAAQgAAEIQAACEIBAdQhgqfS1wFJ5oscTE2PfvncYS6VM0PHHrmXer+cd3R02mBvxN3pjNHxt6AZSWS+2X8WG97Yab37ppQtP/tVjDz6grNXpr6QQsFT5q5BbgqWqTlc+95qoSKcgjJNMaihzZPfNffWCVOxuTvV8PJNjsPIr5SGKVFW4jzeTO7q5roodVbeTJK1We5rs8eas+Q0BCEAAAhCAAAQgAAEIzJQAlkrjxFKlgiYrI7Sl+pP/9qVXt5x//00mPt9PBo3uPv2wCFX6xM1ssWa83r5Jqax4Ol5kqbLFmuitfSvm7zgcXP9p3wnpwlL5fAqbB5Zqpr1xpQvbaaY5oopyO2XG+uWEjxfPFLUzpstPSDUGhHyDXxpHpUYAjs005eivgmztPee8SuzYmNqwCgIQgAAEIAABCEAAAhCYNQEslSaKpSrUEHLhFHmphve2Bm5g1HDr1dPvl+Ppcpbqrk58/lf/XJDIfPgzb2H/lcdkIR/9WtcRSWUaRY34e2/NG5/ojlWcZHrC8YxldTgay7FUs+6QK1ueo5GUIwrCZtuO/+u23TznYTPnqHpj45k8g9UY65wkIKmq3FRTIllV8W5OrivxwsECvk7Nwjgjzwo2ZxEEIAABCEAAAhCAAAQgMFcCWCqNF0s1taUKvvjZM09+9oWv9B0j8/3P6hRP2V9Pfcl7i9/eK19T3ukjT3uJz01R+t1/x2sPPPLgw0oYHT9+/KFP/8BsUF5bE0uVrcGB5qcMyBpXq0lqvmrbYKnm2jtXq/CiAXf1IAwbYegJoyJHNTaeyYvCUgqszDl5RHIVysdCuYMQg0Y2gEuXFqdBYo2WdwRmIAABCEAAAhCAAAQgAIGFE8BSaeRYqpkYlp9eksMAfSN0/4lPf/+eHwOlLVXt6a2bhcftf+uEX8bx4+998LPfLd44W4KKpXrkEy+54xOnnZ5wPOOqeaUsq8PVH0u18B57yQfMmSF/8F29KB9Vz41nypukXhL7mssUGUZFr+zzAbhRWNmU6z0vgCu/1pTkhIkVR1uZDfkNAQhAAAIQgAAEIAABCMyfAJZKM8ZSzcZfDG/2+1vev3ve2L30KPe+8sV/+MqgzJKIcq7/+Hs6DdbNu9cH9u17ZbvY5f2vfDkX5JUe1242fqIoUmzqQsYfYvXXYqnm30VX8AilqipsFmRWd1/8F+QSUunTE0WGUWsnidMX/UlbFTRKs7MJPiEAACAASURBVLX3ej0nRisfwuXYp6KEVCnYdmTEWD1s5l5MmG7HFAQgAAEIQAACEIAABCAwfwJYKs0YS4WCgcC0BLBU8++iq3oEmRvKBkEFYZlNctI+1cvjmdKzLBj/Vy9RVY6GygdB7cQN657ya9Pj9XpuAvV6GHurmIEABCAAAQhAAAIQgAAEFkwAS6WBY6mmNRRsDwEs1YL765U7nCOSxscz6TPrOEmi6l66q3qQSVblDvZrtDJpz90ArnpubRajY9L2EVrZPZmHAAQgAAEIQAACEIAABGZMAEulgWKpcC4QmJYAlmrG/fGaFecmpJpA/3RaznA/MYJv3Lv8HLMUxtl3CjojAScJ4Oo6biwd85fEUcmLA9fsMnE6EIAABCAAAQhAAAIQqBIBLJW+GliqaQ0F20MAS1WlzrxqdXHH7gX7xDN1k1aUvmrPS8LuhUWpXFVh1GzYrfP52N2ArPzaIkyO8gr0e/5sIZkQruzunU4nE8eV3YJ5CEAAAhCAAAQgAAEIQGAKAlgqDQtLhXOBwLQEsFRT9LVHbdOCeCYZshSEYSMMo2Ycx3EzajRCm9zK5JEKY0f8uMWYDZzfQaOdkUTuSMA0W7twXeW+aafdaiWJc9ReK81qJY5WkhlLpW8fU/BRu+icLwQgAAEIQAACEIAABA5NAEulEWKppjUUbA8BLNWhe+B1LaAwIVXbGdHnmCZ3Moha7vA9p5iw2cm/XDAfouWERTkJqezSiY1S/lh5VeWOaJwkM/y6XmzOCwIQgAAEIAABCEAAAjMkgKXSMLFUOBcITEsASzXDvnitinJCkZyEVNYVuV7KTufjlZywqLQUJ1mVyF3l/7iRV+laO3rPHCt/KL8YMydVVSaJeyNu78jwra4j3dLqmV35DQEIQAACEIAABCAAAQgciACWSmPDUk1rKNgeAliqA/W6R2EnG4rkRjt1O201zE8O+mvo/6MobrXd0Xaaj5vXyi1FrBaqqtFsZ0h6sU3NxFkr1ZZxVPp3XlV1u5nRg7KEon3DqNWKrL7aL+uWUxEmIQABCEAAAhCAAAQgAIHxBLBUmg+WCucCgWkJYKnGd69HfW03abd3DgrBCYuabDSdm2Y9TUjlHt6qM+urGnFaPzm6MK+uVAFFqsqUMln13IowDQEIQAACEIAABCAAAQiUEcBSaTJYqmkNBdtDAEtV1rGy/JAEurFNX174mr5uu51Jm+4OJxzjjZyC627JbhxWWfKq7k47zqfWysZ5HfLM2R0CEIAABCAAAQhAAAJHmwCWSl9/LBXOBQLTEsBSHe3bxxzP3pFUcX4YngqbCuM0LZWTZr2eJqTKV9BxWV681U67GZrYKPW7TFX13JGIepeyCKz88VkCAQhAAAIQgAAEIAABCIwngKXSfLBU0xoKtocAlmp898raAxOIrTPKO6dUExnR5AVCRdl0VWklXJeVD4EqCpUKo1aSsWTOUETPawU2r3p6QKYgAAEIQAACEIAABCAAgSkJYKk0MCwVzgUC0xLAUk3Z37L5pAQ8FeSFKqWOql5X0VTuknGJzF2XlXdfpmb55FV19/iu6AqbcWRt2j4RWKZ4fkMAAhCAAAQgAAEIQAACYwlgqTQeLNW0hoLtIYClGtu7svIwBDrpoD8pgIIwasZx08kLpUf8uUJrXEKqdrprMCbeSta503YPpI7fiJNut2XTZZmsVjKvun3dn3JVYdQqeGnhYWiwLwQgAAEIQAACEIAABI4KASyVvtJYKpwLBKYlgKU6KjeK5ZxnkQBSGqher+vX8/mxTWmiqmyNHZc1Lt7KjvoTgwk7rWyolD163S/E7pZu4EVgZWvDPAQgAAEIQAACEIAABCBQQgBLpcFgqaY1FGwPASxVSb/K4tkRKBJAdZOQyo1tGhcg5bmseKe8ds7oQXWMElPWKMjp3iscLNgac7TyerAGAhCAAAQgAAEIQAACR5UAlkpfeSwVzgUC0xLAUh3VG8dCzrsdxzZzeTeJozAM6vUgTIfTOUqpXs9nQ7eVdF1WQUIq6cHCpk667hRqXFivyJSl1bDHkRO+qgqbib9azHU7CQMC81hYAgEIQAACEIAABCAAAUEAS6XbwX333fenf/oQ/yAAgakIHDt27LnnnqM3hcDMCagUUEIGlRTtDOKrj01IFdm0Ufl4qzSlul3nSC27TFTB909ybJ+bV92tpY7AsprLXddry/qU7eptygwEIAABCEAAAhCAAASOHAEslb7k//E//m/8gwAEDkAAS3Xk7huLOGEnT3mh0En1Ut0kMi+sluuyiuKt/NgpVYRTdjYYahpV1e1281Vy60PuqjwflkAAAhCAAAQgAAEIHHUCWKqj3gI4fwhAAAKVI5A0bQCUykjuq6pOHNpE5cURS+qMHN9UGm/Vbdm3/1kn5bgkZ4xgtxU1IvGqP5FX3a9f0Gi2JxjG59bHnMCEu1buElEhCEAAAhCAAAQgAAEIzIMAlmoeVCkTAhCAAAQOR6AgbKkehFGz6RuiogApfWBn7J4bb9Xd2fGDnHbihlFG1kmpcXlysRlOaNWVMGa9olcAliWrMvVpWx9mjmd+B/vsejiU7A0BCEAAAhCAAAQgAIGVIYClWplLRUUhAAEIHDUCRarKmB3xO4zL0lb1dAIoubUTb6XCmUIRE5XCdF4CaJyUVlxBI25LqeWGQVmX1e20mxnzVO6bHPEVRO2dJG4EfkBWHVWVXhKmIAABCEAAAhCAAASOKAEs1RG98Jw2BCAAgRUhUKaqgsYYR+WIJ+cFgE4aqrqXFspRSCY6q5MkNuiqJCxLAczXz0u7rjYqrE9RQJY/tnFFLhHVhAAEIAABCEAAAhCAwIwIYKlmBJJiIAABCEBgfgS6SSsK02xQ+7icwsinXq/XiTOhT1ZVOR7KhkqZs3HdVmAkllmpfnfd0XwmHivdpKw+YgtUVcqJKQhAAAIQgAAEIACBI08AS3XkmwAAIAABCKwXATe5us2Ibk+xwArJYXoi2skO8LNb93quo6o34h1nlZn0Nsk7KidBu5sgy+wtfnd32gUCbaKU7G4xTEMAAhCAAAQgAAEIQGDFCWCpVvwCUn0IQAACEDAEujsi5MrJXBVGzThuRo1GGDZEKFYYteW2UlVNkhYqI6CK0mB5mxRoLGc0YdBoO+mwTK3t7/zYwTrJqiwdJiAAAQhAAAIQgAAEjgIBLNVRuMqcIwQgAIGjQKAbu4bKkVVm0h/MV6KqnLzqnoDydzY8naGCIpt7LtTKTUgVxu1mWK8HIidWyxSQ/Y2qyhJhHgIQgAAEIAABCEDgCBHAUh2hi82pQgACEFhvAvtYqsKcUgVWSGe9ckcO1osdVS8R2kn/FDgq12GJEmxcVRiPvRIFwxJtCq2xO7ISAhCAAAQgAAEIQAACK00AS7XSl4/KQwACEIBASsBKIO2NRNSSHOsnRvw14iTdMjNVpKoCZ0RgOOZ1gt12U6R1L9jEDcVS7/2zFdzHUsnqFcV67ZM2PnNazEIAAhCAAAQgAAEIQGDFCGCpVuyCUV0IQAACECgjsNNutZJOpzMu+VPZvr1eN4mj9DWCJkKqXiigMqV0O518yionziqIVEKqqSyVPAZ51TOomYUABCAAAQhAAAIQWGsCWKq1vrycHAQgAIEjTWCnk3R2pnJW3U7uZXsHy2Dujhe0YwHHWqpuOwpDrbMyV60g1utgtcqUyywEIAABCEAAAhCAAASqRQBLVa3rQW0gAAEIQGCGBHSmqiCUb/trJUl5nFW30241G84wPyeaSowcjFrl++Zq7CekskMNraUKIrtM7ttN5LBBcciCoYOq+AJVNWWtctVkAQQgAAEIQAACEIAABKpFAEtVretBbSAAAQhAYIYE2pHnmtIZkbIqCBthGAbipXtFP0EjykqrSdNCWRtVr6uEVPqU7HJvaacVuVUIm77B8nCQrMrDwQwEIAABCEAAAhCAwJoRwFKt2QXldCAAAQhAICVgtVCRhhq7TL8QsCiAqREnY0cROgmp6v57BW11rKXKGKp62Bxftjw1XgGYXmGmIAABCEAAAhCAAATWigCWaq0uJycDAQhAAAIugZ12MwpD93V9Y9WUu9KKJJFXvRWF7rpxIwB39ChDsX129J5vqTqZUsOmyrHunkD5dLfTzg1QDBrN9k75LqyBAAQgAAEIQAACEIBAxQlgqSp+gageBCAAAQjMhEC3kyStOG5GjXSgnxr3F4ZhI2rGrXZnp9ttp6P8/KF3BQFMIi1URgp1rYiqi7ioTM3tyqDR9Eb51Y2hMorLcWSZMvzZbhK77yW0edr9rZiDAAQgAAEIQAACEIDAahDAUq3GdaKWEIAABCCwGAJeLFSz4x+022nZNOd1mXTKH/tnNVTBul6v56x2QrPcF/sZS1VvtPwjl82V5Gkv25zlEIAABCAAAQhAAAIQqDIBLFWVrw51gwAEIACBxRNw80oVBieZZFV+0qler9NMxwVm18nTyFmqwMRQmbO0liqMzSLvd7fdbMaOOnNKnDT8yiuPGQhAAAIQgAAEIAABCFSJAJaqSleDukAAAhCAQBUIOO4nk/88rV03SRxb1Ov1xgZhieRWcTqYUERSFb4wcJyl6nZ0CUGkE1i5Pq1Qi6XVZQoCEIAABCAAAQhAAAIrQABLtQIXiSpCAAIQgMBiCbjj6KwTGlsFN6FVNqopJ6hkXnV/rKAuvMxSWUOlRgoGUZLRYm6A1diKshICEIAABCAAAQhAAALVJYClqu61oWYQgAAEILA0Au7ovXwa9Fy1nKimwIlqKnoRn4yjitq5IuSCIksl8rYHTh4rkZa92+u20tCsCSpYfDiWQgACEIAABCAAAQhAoFIEsFSVuhxUBgIQgAAEqkLAHfYXjg9V8pRWrF77103iKE1TJSVTEBjZlI22suectVSZGKp63aRad2oXNPQAQFsKExCAAAQgAAEIQAACEFhNAliq1bxu1BoCEIAABOZNoBs30ggmJ0Aqe1x3eGDY7PQyLwJUZYRRq9O1DmoiS9VN3PcJ1utOqnVXi42pWbamzEMAAhCAAAQgAAEIQKDaBLBU1b4+1A4CEIAABJZHwBnHVy9LT9X1opriZjoOzyguKajkSUxhqYLQD8SSo/w0iX3ytC+PF0eGAAQgAAEIQAACEIDA4QhgqQ7Hj70hAAEIQGCNCbg50UU6qPypuiIrzJil3Gv8prBURnHlXwboabGy/Fb5irIEAhCAAAQgAAEIQAAC1SeApar+NaKGEIAABCCwNAI7zTSmKYhamXp4UU3xTs/GVQVhs9XJvcVvP0vVTfw06SINVbYYR4uVhXdlKsksBCAAAQhAAAIQgAAEVoUAlmpVrhT1hAAEIACBpRAQ5klIpyQnnfyEVDLQqttuNor8lKp5uaUqeBlg0Ijzh3QTUoU6T/tSqHBQCEAAAhCAAAQgAAEIzIEAlmoOUCkSAhCAAASOAAEbOFUvTVrlUyjOnt7ttKLQvPzPDvQL45wU6/V8LdbxS2cOAhCAAAQgAAEIQAACK08AS7Xyl5ATgAAEIACBJRBwo5omfM1eqrX0O/66SZxPtq7fCRjnzslNklX6ksDcXiyAAAQgAAEIQAACEIDA6hDAUq3OtaKmEIAABCBQFQJ+QqoJo5q6O52k00narThut+MoTXilI6jCqGWzYIU5S+UkpKpPqMWqQot6QAACEIAABCAAAQhAYDICWKrJOLEVBCAAAQhAwBLYaTfNIL3CN//ZDfMT3aTATwWNZlsmW7eZq7KWqmPX1OskpMpjZQkEIAABCEAAAhCAwFoQwFKtxWXkJCAAAQhAYOEExHi9MGoX5I8qrYobgqUDqLwk6ek7/nxL5SekknnaS4/BCghAAAIQgAAEIAABCKwsASzVyl46Kg4BCEAAAqtHIM1NVQ8acXvHd1zpWs9SpYsnzNO+elyoMQQgAAEIQAACEIAABHq9HpaKZgABCEAAAhBYHIGdOAwK/JSqQKqjHEtFQqrFXR2OBAEIQAACEIAABCCwXAJYquXy5+gQgAAEIAABS6DAUrmDBMN4wjzttkAmIAABCEAAAhCAAAQgsEoEsFSrdLWoKwQgAAEIrDWBnKXqthuBTmBVnzZP+1qT4uQgAAEIQAACEIAABNaSAJZqLS8rJwUBCEAAAqtIIGup0vl60Gj5OawOdH7dTrsVN6NGGDaiZhy3EvlmwQMVxU4QgAAEIAABCEAAAhCYOQEs1cyRUiAEIAABCEDgYATi0AZOxb1ep2ln64d1VN1OqxnasCxzFPk7CKM4mYEBO9gpsxcEIAABCEAAAhCAAARSAliqlAVTEIAABCAAgaUSSFqx/mklO3HDyqSweaiEVJ1WVCyo7AHq4o2DqKqlXnwODgEIQAACEIAABCDAO/5oAxCAAAQgAIGlEOi24jFeqNtKE1IFUfsQNeykAVqOlCqcDBqkZz8EaXaFAAQgAAEIQAACEDg0AWKpDo2QAiAAAQhAAAJTE9Dv7gujVlFqqCQd7Bc02gcfjpdTVEHQiNv2iN1OO47SYYX1ej2IDnG0qSGwAwQgAAEIQAACEIAABDwCWCoPBzMQgAAEIACBRRDQkkqGNOUG27kJqcJ458D1yTqqsFmooLredrNJ037gOrMjBCAAAQhAAAIQgMBRJoClOspXn3OHAAQgAIElEXDe3qcG34kYpx0RNOU5o8MkpPLc0z5RUl23PocRY0vCyWEhAAEIQAACEIAABNaDAJZqPa4jZwEBCEAAAqtGoJvEae4pkyfKy3J+mIRU3VaafL1er4f7ZZxyg7vC5sHjt1btKlBfCEAAAhCAAAQgAIEqEcBSVelqUBcIQAACEDhiBApVlVZWjdbBE1IlTdd37euoer2eG03VaB2xy8DpQgACEIAABCAAAQhUgwCWqhrXgVpAAAIQgMDRJVCkqg6XxtwLpAqbyQRsXUsVxhPswCYQgAAEIAABCEAAAhCYNQEs1ayJUh4EIAABCEDgAAS6SasZhWFQD8JG8Yv/Ji/Uk1SNeKKQLGefw4w0nLySbAkBCEAAAhCAAAQgAIEsASxVlgjzEIAABCAAgdUm4Ain+qTGaafdbIR6lGA2L1V3p92KojAMg6BeD4IwDKOo1e5MJL9WmyS1hwAEIAABCEAAAhBYLAEs1WJ5czQIQAACEIDAnAl0mqFJxj6xpNJV6u604yhyMq13Wk3jrmyZ6UTQiBNc1ZwvJ8VDAAIQgAAEIACBo0QAS3WUrjbnCgEIQAACR4CAm2HqMHnQO63ITcGeyil/KmjEhFUdgWbFKUIAAhCAAAQgAIFFEMBSLYIyx4AABCAAAQgsjIBjqSYd75evW6fVKFBUcrhfQXDV4XK954/OEghAAAIQgAAEIACBo0kAS3U0rztnDQEIQAACa0vAHfF3wFgqR3SpwKmgEbd33MF93aQVeboqdMYJri1aTgwCEIAABCAAAQhAYL4EsFTz5UvpEIAABCAAgUUTcLKnHySYqptxVOVD+vwtw2ay6DPleBCAAAQgAAEIQAAC60UAS7Ve15OzgQAEIAABCPRczdRouSFQGTidJJ/9PHGSr9fr9X1ipDpxmqq93ojHHCtzaGYhAAEIQAACEIAABCCQI4ClyiFhAQQgAAEIQGDFCbiD/ko9k4qECsKma6p2XOskXhG4r3dKnBzrYXNnxclRfQhAAAIQgAAEIACBZRLAUi2TPseGAAQgAAEIzIeA56nqYdTy38PXTWI3q5Q1VW4UVr0+Ng7L1tsNvmrEdjETEIAABCAAAQhAAAIQmJYAlmpaYmwPAQhAAAIQWAUCubf0BWEYNqKoEbp+SidH1zFTTkarej1sdiY7Tyf86iB5sAoPkhSMRSzckIUQgAAEIAABCEAAAmtEAEu1RheTU4EABCAAAQi4BLptP8eUUlLZ/8OmGdbnSarJk0zN3lKp8KygEbuDEd0zYxoCEIAABCAAAQhAYC0JYKnW8rJyUhCAAAQgAAFFoJvEUT54SpuqIDVUvV7PzTBVj9qTEnRH/M0klsrLjTWTEic9FbaDAAQgAAEIQAACEFguASzVcvlzdAhAAAIQgMACCHSTVhw1wiCo18U/MfQvbmUDlZyYqHqjNWmtuu5uYdFb/vTB1dHNsXfK0rKrpO4m4AtJNel1YDsIQAACEIAABCCwDgSwVOtwFTkHCEAAAhCAwOEJOLppcjnkBT7lUll1WmMCuQoH9Hn524PJ8rcf/tQpAQIQgAAEIAABCECgEgSwVJW4DFQCAhCAAAQgsHQCB7FUvlRqJs5JdFpRYEKiyn4H9u2CasfMqwnjHac8JiEAAQhAAAIQgAAE1p4Almo2l/gH/KwagdlceEqpNoFVa5VpfavNldpVlMBbb72VtqEDTf0/r9/6nvl57fYkRbz5/X81O3zve9/71+/fsTu9+f3X0sLMNre+d0v8mFn9+19j8y5BLy6rHnrOq6LUj3q17AVfuYmjfuUWe/7NZnPlWsjSK7zYS8TRlkxgue1tySfP4SGQI4ClyiE50ILz58/X+FkdAl/5ylcOdJ3ZacUIfOpTn1qdVpnW9MUXX1wx0FS3GgTeeuuttBmtztQDDzxQV+P6uu2GE3s1+ZjDauA/orV48sknV6etpTX91re+dUQv2JJOu9lspvSZmoDAX/zFXyzpWnHY5RB47rnnJmgXc9nkX/7lX5ZzzhwVAuUEsFTlbKZZg6WaS685t0KxVNO07hXeFku1whePqk9PYIUtVT2Md3ruqwLrWlxNT4E9FksAS7VY3qt6NCzVtI+0WKpVbesHrTeW6qDk2G89CWCpZnNdsVTT3n2Xuz2WajbtvvKl7G+pnt8ejEbJteW2x+zRiaWqfMuqaAVX2VLVw2YzdHJXhXYQYEVhUy1NwFiqC9v3RqPOZrY7q9Uu3BmMRoPt5/NrlrmEWKoFt2As1bTNHUu14Ca69MNhqZZ+CahApQhgqWZzObBU0959l7s9lmo27b7ypczKUm12RqNRUvD1K23Hm8loNLhzIV1wiCksVeVbVkUrKC2VkAX7iVcpFEbm5972bBruQdu8GPGX+SEhVUWbWEG1tKWSxr+wD8RSFVA7eouMpRL3yv06qKKuRDYw02dN+DvrRie4lRcdWi27Jm7y42WrbOqqbuMfGMqP4qzBUh21T4myVKIVHeymLJrotD+6oTLi76g1tpU4XyzVbC6TtlSFN9G94bCfbF87/7hz76nVavJmuc8Nz9/jsHOPP7uV/PDqhKVMei9/4vxW2B8MTbc4HPTDrfNPTHiQQ2wm++JpHnQeP38j2f62PiKWajbtvvKlfOrb0cC0Tfk794mbJJZqkm1qBZZKfoi8wwvXJeO2xqyq1WpYqsq3rIpW0Foq59uUaJm5n9wHQXSNvrrK73NnUwTLZH+cogrvgOppe8yqWi1nqQKVpaqilKmWT0BbqvLv8GMslfOt3jaswfbzhY3WbuD9PWBMXzpmVa1WI5bKv4xzn9OW6vnNRHQjqcQpagPptU4f8wpuxKLLKhSjoj/LN0hZQnb7wq5JHT8TGJgtsLCVpueVPuAWHmKCjhFLNfdGWbEDpJbK+6tnYUsznxHXZ2WbqPiuOUYKy48elqpijYDqOASwVA6MQ0x6lmpvsNtKEvvvHf01edjaPJ3etRZvqWQ3l7npOvXJTMrHu6Lbrbvd87f6yk8N+up8++pch7tbz7jbzWFa9MXT/DnO3x5LdYjGvkq7KkulH3ML7t+1WsGDb9pcS56eCz8X4vOVefwVHyL3AcI51phVWKpVamEVq6sZ8ad8k+OP0kYtbz1us3RW2UnR8sXNYtwDrtg485lyWrgqKm3nY1blLRWOqmLtanx1lKVyv/DYhqQm5Kri1mi2zPSf3qxfsrdK/8HPbc9OS0ubnzqMswpLNf6azmOtiaXK3nZLm4d/vfI3a7Vjcq0kEjTTO+m/DZvv9qPM6NRMu8rMygaULbBoG9Ogvd+ZE1E1UY12zKpaDUs1j3ZY5TLtiD+/7xItrXAwtb9Z7o6s23yy/XzxZ8TtWomlqnLDOLJ1w1LN5tJ7lsp9YFJ3qtOX7so/QQ/eKO4pvPvZvGZKu7nCA4q+z/ljV9E2p7Z6o9FomFxz5dvGue/sCnP1zq1zRfvMbJl4XMBSzab1rnEpxZZKPhc6z6repGua3Fu4arr5JaZJFzywZh8gnOfRMauwVGvcIOd9asZSqb+gDgq/v2XbnmnB7m/RzpdmqcJmZ96cKH+WBKSlKgzE00JfdptYqlkyX8WyUkvl9jVj0pY5d0yxR2ZWPgR6N287ox7CM1LJnc0UlS+8KDg6K+ULt/FPTc/lDpd2wmNWYalWsZUfrs7WUvntqPTrW9qQ1A5uI9efLPup8CdkyIL7QIulOtylY++5EMBSzQbrPpaqVqud3toVXcTu1lN+57O4udJurrAKou/bx1LJAvNKrnbudn/kjDcpLP7QC+UDShoKvm95/vbEUs2m3Ve+lDGWSjce7xkxa5rkLdy/tYu5ZFM2p/wKvcR8KLIPEM6xxqzCUlW+WVW3go6lUn2i7KVLW6q7wosQXKKlCqJ2dflSsyICwlKJzs3zUO73Hzk92L6TuH8D8G/amb7Xm3WLUvF9bjlj+tIxq4ilKrqS813W/Pef+QPw9UOmbh4qub77Ndu5Y4rW4s7K6fxzpizKBDWXFiWNqj+wQDQV94m34Fhub6mipL1W6rdnf84tTa5JW+aYVViq+bbHKpb+k//pNzMdoS/v47rFeq03bUiqxbltXj+mend2k21G/43f7VqxVFVsEEe+Tliq2TSB/S1VbeNqJHqf5NqG6kzkTTF9qnv82a3IjA0c7Q37nduXbIiSvI0N7ly6dGd3sCe7sGE/eT1dLwvcOPvS7aQ/HKoNRqPhoB9dP6cPpnsr3f2lT3gqq5TaZW/QDzfPnVS1UwMSk80zl7d75rlisLv90lldoNhK9pvv3r1kdtF71moXfjgY7Q2jK3ZBreYdyD87O2zkxauRSnrybtL+o8tnuwAAIABJREFUqYjHil52SqjVav90VywNL4ul8oxcS7Vx5vLtTl+ffsG52K5fMMdSzabdV76UWVgq7x7v3tT91lnwwCo/47bh6QnVaMeswlJVvllVt4I5S+U3UjmXfa51N/HvFH7bTe9W6R5ie2e5vFX5e5lBr2NWuSP+gka7W4K320lasf1pJZ2yDUv2Z/G8CAhLJVqC11XKLk4vUe5ANYz08SNtRvpxwlklny6yLSmdd7ZUzyrpKjU1STdLXqp5NYiScv1YKnmJ5V90ZPMw3YjbpWQMjp2V3dTgzoXM7Vg1s7RtOEUV3nBlUxFNVK6VFXC7KV9jibx92VdVFtz0vUZtZ9xibVNVf80aswpLVdKQ1nixG0ul2rPsyuSHZRpLZffN3O7VB8F+dZKb6V4aS7XG7Wp1Tw1LNZtrN4Glqp36joimGv7kkrpzpfdF8Tei20IFvduPXt/aunFruyPFkBVA6jY2HI5Gw354e+vGbZUReti6esrcBc/dFPFLo8HuXVHC1u0fKZ81jF6WWumZS1s37oot+ne3bmxdfUHud3ozkVmlBp3tWzduaRtlRurJ6g3FMQfJ9s2tW3cSKchMgeK4asTfaDSIbr988TNjMqaf3kzelbUTB9q6HcpkVsMkTdMlnzmGw9Hw7bu3btyOwq1zrpAy53jpJ4LA3a/LebmL7Wo3XrjdF65N8TEA721fkAbt3ItbWz+RZ/+Tra0bVy88haWaTbOvfinLt1Qmrkq0WvlBTr8+iVWbiXrycFZhqarfripbw7d6A/NXheI0FvpPqW6zNB2s+C36VfHMKh5eRcsUD8eixYr2ab5GZrd3lvvN2DuWWXXhTqJekuU+Pdvs6WG8k2fbTeJGGGTeAShngzCKE2RVHtlilzz55JPe84xsIe71ld+FBtvP61GBqUdI21LmC783636VOlAsVXE3i6VabDPpuZbKNAnRAtxpb1Sd6TR0M9GzohXZJiQb3ii5VtS0HEslSjCdW2YiyURRpW0yM6UO4XR3Mx3xV9gxkpdqwU106YdzLJVrptxp2Q6NQnW7WdPI9dsnzPcj225lIX6mFLdrxVIt/epTgTwBLFWeyUGWTGKp5K0x/ebgPtWJ4KPRYPsFe1PcEEZmONh+US6R92Y/A9TprbeFlLn7T2qXC7f7w9FedNUJa9p4UUYetexL/dxurlazsV3XbciWPOhoFF0RYkvd+4edVCVtXJHBYCqUSR3W6Cf1x6Hhu/3dH92+/OXP+G8z3LgcChmWpAeqbbywLb5K9ba0ZZPKadS/7aSyunj33dFoL5JxU+pgl8SSd+9eVHNyF9MLn7v1jhxj+EIa6XX6ukhcNfyR3lzBN9tjqQ7SyFdxH2Wp7B8vddyH++zrTuceOuUt3NlbT+q/vtoHZdkkxefLX6JaavZ/97Hgwp1kIOMHbctUW/OOv1VsbFWos4mlyvT2XiPMPte6K80XObFNkaUq+kS4X9vcsuy0+9HY3L4nNZqvybSlyiek6nbiRqGfcp1V0EBVLbXxPXmlodyo04+5F93TEOrRIu0q1d3f62WTTb8rdvvMvKWy7cydcHcp62axVAtuNamlkrdd2wbkxTLdiGgPZtq7O3t/5nGutfZTcqSCs9gG6auBhOWWalPsZL/5ywm/d9KFysqodmpqLrtZr+lmZsyJ+PUyc+5npLhjxFItuIku/XDWUsl+Ukc56ZEr2kzZtiraUfZu7n58TDvTu4u2mW2Qbj+JpVr61acCeQJYqjyTgyyZyFIpNeMqcNNlSEs12r113vc7po9Rd8e3jdNRi7/uDH8zG/q/5R3UHM7v5mq12lVhcTI34+e3B3vDwQ9FtJfsIk3gki5XFpipxsmzF29G+tV+9gb97u72i0Z+nZR7ZQ5UOyUtm8nSJZ9TBz/0UsvL3tMZ9CfPt9g6KT6dzdRRiQprq6VD1+Qh7DM0I/4O0spXcJ85xlJlnwbcJ07R/tSXMfuZmHRCflKwVCvY1ipR5RJLJTvh8iZoO0YbZbDZUcpV7CjWij5WPOC6D7WilbufAudbXPmhCtYk12rSUuUSUnXbzdC1UeOmg0ZMyvVlNcGrwc9G97a3tdmUjwuyMdh25WkIk9PXrpU7ZPpPb9Zvdd6qw3SzWKoFNxhjqcQVdB8+3ebhTrvRx6KRFDQq2Z+ox0v5jCfnzXd7t3fSnVW+/5Eby5Kleyq1VLJi8nv+HfvqHq8p5msoG7audv7A+y5JrvGOvwW30OUfTlkq1dicHlJ+ZPS3OXd6H0uVdo9yX9OG00+fXKI/L1iq5V9+apAjgKXKITnQgokslbqJGm0kuw8jttWIv9FIZKR6++7tb1865w6gS++g+q4nf6k7/e3z6bKNU397/tK3t7Zev5t0+gM5ms95d6nXtan7vbM2LUVNyer1b51xl6sjbnsyyazfeOr0xZdvbUd9nTlrNLit/oQlK69GGm7dEKMR1b9tFQvmDN/b/Y4dvygLfUYmYY+uKvckh/sZXOaBQ3fiEuywc9sWLiduyXGRngiznT6W6kDNfPV22t9SeQ+yooWbP5OKRujewlVLd5fIz4h5IPb/+G8+Fv5v9Vm4t31Btlj3QP52NSzV6jW1atR4jKUqbm+yTdqO0Vgq8UGQC82E2KzIUmUabm5WPSWb8Tj2w5LdTliqRssfuteJM4oqCBpx2yaj6nbaceRtEUSlKa2qcXHWtRb/623ZbYq+0fw5yu0nTUfq3L5V12o2lq0h0/eK2TE/xY1ZNauJu1ks1YJbpLRUUgMJSyXGJqueR7YW3Tzc6YyW0rN3ZCS+f6f2OhT1pK1fcuK0OrFcdkG5CXnQ4uZm+kbZE3Z0nJepZKbRZj2aVyt/ZsKOkViqBTfRpR9OWCrdgEeDe7ZHlf3h5JZKitSC6ELTCHWDv7e9KVKtYamWftmpQCkBLFUpmqlWTGKpVF4qGzEk71LpHXTjC1e3bfJvebscRCaXufoicd0PFZLfiu1D4cYXNlWyKn2nHfZ3f5SIVExGimVjqdSTXLrW9F7mt/8NXC2VHaX3ZGm2dn+fPLvZkYbMSXNefP83zyiqUzZPA7Ys+a5APYxRBka5QwJlP+484pQdwRB2tq/VGPE3Vete4Y3zlipRSd/K2oteLm7b5U+u9su2+5DqTts2rCbkB0eW7DRy87BuHhHcfbBUK9zmllr1mViqbefJVX2bko1X9KXyQ2Hbv9tmven0s+PeL+zD953sXzoeeOABPyFVtx35A/3CZmH+qcyIwKzpWuq1OCoHv/e/3h68LYdNbSY6PNwbk1JoqbzmImYy/ac367c6b5VTztTdLJZqwU202fz3bTHCfSDHuSeynxF/FpLXVz+qeU+e6tH3mrnImVnz10p1a5Ut0GypfosOxzwB6o1l3yWWuxNuc5XTbq8li9ItMC3wwvY9nf3HE6b5Gvo1mrZjxFItuIku/XDP3ZUv+ZMOd3BnW8p6PQJaf5uTbcy2OvF5cZtr2kR1yytucqZZ6oYtZ4mlWvrVpwJ5AliqPJODLJnAUm2ox/2yd/yZTuPxz3z5sklVbtIq+b2S3lKNpHvn1tlarXbyciS80HD39Uvn//aUtllPbYls7amHks9wdlaW6aw1xze/vWcFvVCWYDrEC2+ITBTZ1/CpLdWh1ZZqnKObzcocIv0tOlb9V7V0YU3nmxd5suRwv/7rTt4qZ5cNmYKqL0m4u3vTzvZYqoM08dXcJ2+pVOZm0zaMKrKfC7Oi4Le8/UvJlX5LF/d4/YnwvzvJ9qaVV1HbdspPv1zZp20s1Wo2t+XXehaWSjRD+xCsG6q4X4y3VOajpBq9uU047TydTJ+b5caDOxceeOBBj13GUY2PknKDroJm4hXEzCIIiHf8yR/x2NDZzIbAaOPv+IK0Ldgpv/+0i+WE+1XKW3O4bhZLtYjG4Ryj+e8/G8ieIf1qLa6g0lWqedhuRM7Kx9T0TzuZWbcpqAda74nXH488xlJ5xRZaKtE4RTXkM0D6COHtKGuTX6IyXqle0R/n6FZfTec7RiyV03yOxORP/qdsaWlDEg1S6yr1mGo7PTmbfpRUG8o0UbeRmR3dm7vbtWKpjkQLW7WTxFLN5ortb6meuSUim5wE51IDqRvz+dtvD0dDN1O4GcqueiXZYY0yeZdUnib1xsCXZV7zog0cDyW/DNtv44XpouTCYWfrtM6qk34bl32dLMF8/Th1Q0iwkRmR53aGNTVYT9XHNVbpRjIv1XD31hfkItl7ps8idjO1b3hZDvfzhx+6u6gUXZnTl3mphoO7Ov+6uz2xVLNp9StQyj6WSj8K2BAA2/JyE+ahwb2p+xsVfMuSn3H7fKonVDsfs4p3/K1Aw6pqFWdhqTLdvmzmov2Lu1VB+39+W33zFNupW1WmyatbxphVtdqDD7qWqpNJRxWE+2RHT9LAq1xyq6peqXWql7VUsgEk4qVp5jlBdZKy2ainHb/XTOe8/lNun2lGmdm0lY7pS8esqtVqWKoFN0KTlyqXTMdvBvJKF7UWcxcWmxd95U6LUVNiG6ccs4vfktKGJHcqslTPbw9SQeAUaHrF9LhuDdOlB+8YsVQLbqJLP5zOnl7WkNwYf/ttzm1pTpu3vWjBdyuzi3tDx1It/epTgTwBLFWeyUGWjLdUG2cu35Vv8urfSqOB5POTvuFd/FHuLXjqDX0qBEl2WOJ2a99hd/LsLZHXydwvlaZ5+5bJWF6rnTx3W7z2bjRKk51rS2XGDW5cFWprmFxLdzr9HSGeVMiSrF7m/u1ZqjSA66af9P2J87d68nSuqTxTp9STYnLjrDl07fErMvbLjuCTTw9FPemprd5o9G6//657IrJ/9XZRf38b3P2yzT6/cf51YQVTiaa2N6MmyUt1kFa+gvuMtVSy2cg7vbhV+1+rzE1c/pYfQPUHKPem7m2THbEiVoqW7xbrPHmMWYWlWsGGVpUqj7FU/nczby7te2U/6a1LZ8TtpqD9i13Mnchp4erTkbbzMat8S9VtNQrTpIdRyyalyuLeSb1WEBFNlcUz7/nUUpnIkbRFyXYgm41pJH6/aea0pSrcsqDVmd0O081iqebdMDLl72up5IUeJSb9k77IooeRz6K5PkS/m8/vo9Km4XZNY2KpxnV67nCEXCyVrZg9ZEEN5brc8gk7RixVpgmt/ex+lkp9C0uSe27LVPFWchx9ps2L1id3ST8j3tc6t2vFUq1961rFE8RSzeaqeZZqb7DbShLzb7cvkzSNRsPWZiqEdLCSeW47vZnIIXv9UKQANyP++reeSe9wopPZGyR3bm3d3E7ka58Hdy4Y76M0zWjQ274ldo+E1nm3P3jX/ZIsUzuNBtHNrasvSH/kHfTWtsrXc2/7wknZsXXEIDx/qL9vqWq1jRdu9/dk5yeSvstTfmcwlEsG4dX0ZPWBRoOOqN7tUBFxpJt8Ssg818ozr22YB4jdG35udX+XDTWucDSUAM25DJOUuBJ596JbN65eeIq8VLNp9tUvRVmq9AZtv05nowWd27xqefZ/2dJsjLR7U7ebyAn9LctdmD6JqqXOo+qYVViq6rerytZQWSr1ZS8TSGvbsNtEs4OzRGvPdPtyc9F0F2OpdrJJ011lFZSpKmeIYBhX9uqsa8WspVLdo4il8v/OL5ebpx2v/amZ9HtUYSst73XF7mP60jGriKVafGvcz1KZJ0zRCzmtxc46N9CCRpQGWJkezO4otxatSP3RyPZydiItTj5Lu39bSldlLVW2dZlg0oJH2VzN033HrKrxjr/FN9IlH3G8pZI94Ui/jSTtY2WjVbN+m3cbr5pWJdi/nrpdK5ZqydeewxcRwFIVUZl+mWepnO/EUi0NB+9Et19KI4lUZyHuUs6deOPM5e2eVjziTX+d25fPGAclb2ODO5cu3dnVb9Ab9KPr58xqWd7pS9s96a5EgFQ/ef3y2ZNyVN3IvOSuVjt9JdK7t67qzuuJ81tRX3ml0d6gH5p87dnv8LrKIn1U5v79xPnNO0n/XW3iRnvFJ1t74vxWaF//Nxq8E21+wam+6FgL8lKJo568GgntlZ6Frnlul40zl2/b9PMS4KXUk9VqtdNXQ80n+TaWavomvpp7eLFUuumIX5lPn1ikP2VeXme5mdcy3Zu6U54egJB5PE2fRNWmzvPomFVYqtVsa5Wo9VtvvaUeQwcd8beMTIP0WmzhTMHXNrmdaLrFlsr7RDgtXBWftvMxq9xYKk9SiXxUSdzw86jX60EjNwKwnW5UaKl24kYQNsuDsSpx8Va2EspSqYanmpy47umXKBWC53gHp+2JLfdrqF4bc/bNtjE177S0tPnlVmGpFt/cxloq9adW2Ugy37Rtp+Rc2VwrKFrgleP8IcoWaCfSvSe3VAV/l8pKf1tsruZpyxyzCku1+Da67COOs1Siuap+1dFSoo1l2nZxT2sbozvhdq1YqmVffI5fQABLVQDlAIu0pXI//TOclrexwr8xzvAgR6ooRvwdoJGv4i6f+tSncg1b/d2+6EYuP2jWw6bPkcZhKf+cfhLVQ4Namk84rV2YWW1+p9/izBL72zoFsqevYmOrQp3f6v9/ojlJQaCsgSsLcp+F3AK/SduWKSfsF0hXfvmPy+oT5O+mP1BjVrmWyo2kCpsdxXRfVeWM+KsXWCpnEGEYtXeqcKHWqg5PPvmkamxp32gDWxxXlWttxQt0u820ovys+YOZ8lyZ9ZN0s4z4W3ArLLdUshuxf7WVvZC9G6Y34sI+JHPhs7PmRi/KNNO23YmFJvBKL5Q1MU3LbqgnnELcr/fpZrKGtuaZ5dmqqaMUnpSpACP+FtxEl364UkslPxTmbu63UrfVqc2yTW38vP4IYKmWfvWpQJ4AlirP5CBLsFTp/XgVprBUB2nlK7hPzlL5d/eCtuo/LhdsMMWi9PFa7eQ8TIxZRSzVCja0qlT5rbd+ut3ZdgICVXse/5Aq16rvRQVf22TbFU1Xf8fLSQHna57TwlWTT9v5mFWOpXJG7tUzGaa6nVYUusP/6jaqypVUBenT/ULbVblW61OP7/+/ogl5isp2k+O+NeWsgd1rmom0jam9nJY2ZhWxVItvf8WWSrcQpxvJ/YFHex/nyk7UQETJuo1duJYkd9J+0XZiuUY79gnBFihrkttXR2SXWSp3edoycyeVriKWavFtdNlHLLJU+ibutTfZbNL7utGa2ddQ7vc5cWUrlmrZF5/jFxDAUhVAOcAiLNV+nWG11mOpDtDIV3GXnKWqVjssqw2xVKvY2KpQZ5M9vaxlVXS5fcefK5QKgqJ6UlVlRgAGQeAsabQy18F9Y2DQaO0krWYUBvWgXg/CKDd0MLMzsxMQuHc1eNv9Bl7RRparFrFUE1zcWW6Ss1Sz/JtQ7vLOYYGxVOK7fWGQYE45HbISxFLNsv2tQllZS6UcbmFjO2Tbyu2OpVqFBnLk6oilms0lx1LlerxKL8BSzabdV74ULFXlLxEVnCWBdbdUklWRqjJBVo246/H081wFoeOz9C5hs+3v4u3PzAQEbPb0St/1c5XDUk1wbWe5ibVUuUvBgmICWKpZtr9VKEtbquLmMN+lWKpVaCBHro5Yqtlc8h/ys2oEZnPhKaXaBFatVab1rTZXaldRAm+99VbahlZqSgF1A5/C5tgMUoXJqiJ/PF/XyapuPFbB7zDWCbAqelWrXq2VamheZatOdr3q12w2PfrMTEBgvZoAZ7MPgQlaxBw32adyrIbAwglgqRaOnANCAAIQgAAEIJAn4A/52zfIyVdVYTPxSnQL03IqCMNGGOZCqvYxYl6pzEAAAhCAAAQgAAEIzJcAlmq+fCkdAhCAAAQgAIHJCLhmKWudSkroJi2ZaSryh+65cVnCUQWNuJNqr267aXOxh80kXVFyEBZDAAIQgAAEIAABCCyKAJZqUaQ5DgQgAAEIQAACYwn4maQy5ql8z26365mmbqvhju0LCgrqCiMWFqwoPwprIAABCEAAAhCAAATmTwBLNX/GHAECEIAABCAAgYkIdGIb5SRCoKKWEwKlC1CRUGJVcYndVsPNk16WeCqrtooLYykEIAABCEAAAhCAwEIJYKkWipuDQQACEIAABCAwjoCMcvJCocKo2Wp3kk6n3Wo23LRShaYqSUfz1ev1MkeVrUE3acVRIwyCel3/CxtR3M47suyOzEMAAhCAAAQgAAEIzJIAlmqWNCkLAhCAAAQgAIHDEuj6pslVVpnpoBH7LwP0Y7HCZkm8lVPDbkdmtsoUbGeDsCiey9mfSQhAAAIQgAAEIACBGRLAUs0QJkVBAAIQgAAEIDATAvvII2GRwqafMr3X8xNSBVF7v6p0Ym90oHVT2QlyrO9HkvUQgAAEIAABCEBgNgSwVLPhSCkQgAAEIAABCMyYQHenHYtX+GV+grDRLBqM574jsF5vtLyU6vmq+XFX6hhBGDbkvzB72KIc7PkyWQIBCEAAAhCAAAQgcCgCWKpD4WNnCEAAAhCAAATmTqDbEXmp5L+dMvfkDxMMM0MBs1UsSH8VtzNldxM/1GrSJFfZYzEPAQhAAAIQgAAEIDApASxV7//gBwIHJTDp52w1tzsoFfY76gROnjxZ8SZ/6tSpo36R1vD8/9Nv/eZ70p/f/K3/NP4cva3f8573/Gbp9l7Bv1lvtirevKkeBCAAAQhAAAIQWGkCWKrer/zKr/w8PxCYnsB73vOelf7w71v5++67b3oq7HHUCdx3330rYal+7ud+7qhfKs5/egLHjh37t7uNfTtPNoAABCAAAQhAAAIQODABLJWwVL/wC79Q4wcC0xD4+Z//+aNgqX7pl35pGipsC4HaClkqrhYEpiLwy7/8y8eOHXvr3+7um5L9wM9k7AgBCEAAAhCAAAQggKXCUk31lM7GmgCWiqYAgUICWKpCLCxcAwLaUr31o+YOT48QgAAEILA4Am+++eb/zg8EDkTgc5/73OJaKkeaHQEsFZaqxs8BCGCpDgCNXY4CASzVUbjKR/McjaX6t2hFgqlu3Ljxj/xUksCrr746uyf5SUu6cuVKJWFQqRUg8LWvfW3Sdjaf7d58881jx479Ij8QmJLAsWPHsFTz+VDOvVQsFZbqaH7dOOxZY6kOS5D915QAlmpNLyynVVtFS3WMn0oSWJalqiQMKrUCBCpiqX71V3+VWxEEJifw27/921iqucukuR0AS4WlmvzDzpYpASxVyoIpCDgEsFQODCbXikBqqZLih7Jup9NJ5L+dbvEWi11648aNY8eO/dqv/dpv8VMZAr/2a7927NixJVqqX//1X68MDCqyAgR+4zd+49ixY1iqtbqZHZmTwVIt9qFjxkfDUmGpjkxfNdMTxVLNFCeFrQ8BLNX6XEvOxCdgLNWPW9knsW4SN8Kg7v8EYdRsJcvUVdZS+efB3DIJVMFSLfP8OfaqEcBSrdoVo74pASxV9mllpeaxVFiq9MPM1OQEsFSTs2LLI0UAS3WkLveROlltqX5U98xTN2mGvp7y54IwanW8PRb2lIilqmD7xFJV8KJQpTEEsFRj4LCq4gSwVAt73pjHgbBUWKqK9zAVrR6WqqIXhmotmwCWatlXgOPPi4CyVD+ux87T2D6Kygoroaqc3RYziaWaV1M4RLlYqkPAY9clEMBSLQE6h5wRASzVYh425nQULBWWakY9wRErBktVsQt+YfveaDQabD9fXK/NzkisvnOhePWMl/qVeX57MBqN7m0v5tgzPpXpi8NSTc9svz2uJaL5djaLt1MNbJSUrC7e6cBLL9wRzdl+lNQnK7l24PJWaUdlqcKWN+Cv24kbdqxf0Gi2kp1ur9tJWs3cGMAgai82pgpLVcHmhaWq4EWhSmMIYKnGwGFVxQlgqebkjxZTLJYKS1XxHqai1cNSVezC+GIoVzksVQ7JvBZgqWZPFks1e6YHKVFZqpZvqcSzmhj0FwQF0VIiX5VVWCKuarGiCkt1kMs8532wVHMGTPEzJoClmjFQilsgASzVYnTSnI6CpcJSLbC3WKNDYakqdjGxVFW5IFiq2V8JLNXsmR6kxFJLNfYBrduJvbxVjXhn7PYzXImlOshlnvM+WKo5A6b4GRPAUs0YKMUtkACWaoZPFIsvCkuFpVpgb7FGh8JSVexiYqmqckGwVLO/Eliq2TM9SIkHs1Qi1qodORFVQdRe0MMeluogl3nO+2Cp5gyY4mdMAEs1Y6AUt0ACWKoFPW3M5zBYKizVAnuLNToUlqpiF3N6S3Xy7OXXk/67Q5HxZzQa7Q0H70Rbzz6enpdM9zO4c+HxZ7eivtls0I+un9tINxJT7gbD3val035livJSPf7s5nanP9zTh+5HW+efcAvdFImIOpvnrkcDuc2wf/fyk+4G1Z3GUs3+2kxvqUSbfGegG9hoNBr2k9cvnz2ZVk2OgU02T569fGd3oFr33rDfuX3pdLqNmHrivGj9qqG+u7v94un981KdPHvxZtQX2avEz3Cwu/3SWfcjI0sYbL94aftteeC9we7N8/5RKzp3YEvV63Xjhk2kLob9zeeJLlsqlqqCLQlLVcGLQpXGEMBSjYHDqooTwFJlHwtWah5LhaWqeA9T0ephqSp2YXwxlKtcNi/VSbX9aPRuP2klSSsxX6oHt23+dWWp3t4VX7fVZu9oV9W/dc4e4fS1RC0dvpMkrV0hlYaDwbtOKvecpTp9JdJf4e/tJq1kV+R9H42GyWYqCKSlGg6Ho5EottMfdLZO2UNWewJLNfvrM6Wlsm1y8LZo28nbWjMNW1dtK5KfiP5uTzReuZlsuqIdRpetzDq9qRu3bP+yoQ4H9+Qu5kUE6pOVZk8/eeGW+pgI5yWarjJcgzsXrKhSnks07r3Brmj/g+1/mj2zeZSYWqpuEkdhYOOjgiBsRHErGZMb3YumarhvCZzjMyOWah7N4JBlYqkOCZDdF0wAS7Vg4BxuhgSwVHN8wph/0VgqLNUMe4MjVBSWqmIXezpLde71vvg+3nG8UG3jwg+FOxr+5JLJmnS3AAAgAElEQVQ+NWWXRqPBDy/aCKvT1+Xb1uwL+57aTESYyeDui8YwnTy72VHayrxwMGOp9C7D3e/YmKwN9b199I61X9JSiUOn3+0rBry0OliqUjQHXjGVpTp5NZJtcvsF64VqtdOqoe5uPaUroeyScKNnzGZG3SbX1JJT2u3+xMZXbZy9rrVV2Tv+dEu+d9fuIw4tPhDD6GV9IL3NnqtlD4xmoTsqSxUFd62eSuOj9FQQRnF7J2+rum5uqiBKZvN0l8Rxq5M/mC0cS7XQ9jHZwbBUk3Fiq6oQwFJV5UpQj+kJYKns88AqTmCpsFTTf+jZo1bDUlWsFZjYKBmWVPaf+Wp97tbbw+GesUj2TDIuQFuqZNOGlogtlT9KNuVep76zK44VXTVf9OXSp7bkUlO+b6mUIBv1MrFR525Lb3ZXB5Woo/RvnbGVW5kJLNXsL5VqmWXNWi/XbbL28l0xgq+z6bXJWlbjagNlQqJUnZU/0h8T1Yz3oqte+z+11RPHMx+lmhdLpQXZ0DRjTWLjSiT2MW1eW6rw8uxBzblEZan+7a23cnIquyAIG003tKrTdBKoz2rAnyk0jMpUFZZqzi3iIMVjqQ5CjX2WRwBLtTz2HPmwBLBUqyinbJ2xVFiqw3YBR3N/LFXFrruxVMPh8N2ifzKxjv1qbSr/+Gc+f/biy1tbr9+1o6JGHSWgajVtl277KXPUgbQRuNoS376T674QqJ299U7ZiL9TW28X7lJTkVyDN9TRpKXai1bve3ythqUyrWt2v5Wl2itq2O/KcaGyTZmGq4+78dTps89eunrj1naY9HXqKWNOa8YufduvpDyQ/ph8W4YNZm1X7ewt4VPtR8mzVF+/K0cDbl/wS62d1G73qlyuLFX/1tnMVtWfVZbqLddSBWHYEP9KoqvESMBmq+UGUtXD5kwiqbotJ9NVPYw79rkuncBSVbBRYakqeFGo0hgCWKoxcFhVcQJYqvSBYAWnsFRYqor3MBWtHpaqYhcmGyqSqV4ucuT0pTu7aW5plT1dZVLPWCo7q0v0LJUsdnj365mjKQVgjIAXS6Vt2qAnEwbJlFgqMVaisvnow8lv9XZcYbb4Ss9jqWZ/eTJRfpkD2KA/s3zjC5uRSnYm7JX8GapM6qZNakuVzupdXUslp9MBsKbwmruNtV3X5GpVT5PrTTds0chV0it9OGWp0lRWtuTKT2QsVRC13dF23aTVLNVVabBVo+XuZB8bu512M3JlVxCEkRePZTcVE7m3BhYWiqWqYJvCUlXwolClMQSwVGPgsKriBLBU3pPDqs1gqbBUFe9hKlo9LFXFLsxUlmrjcihTR73bj+7cuvri+bN/e0pEQ6nv2FZLqS//dlaf8GwslZEHud9YqoXcRE+dOvVzP/dzFWvD5dXJtMzMhhlL9YwMdhI50e/evnH54ufPfka8PjL7AZGCdT6WKteozYL1slRBWUiUsFWeb0oNVb0w5qnbiRslsVhiVzGgL/upSNwRhPUS8dXrYakyn5UqzGKpqnAVqMPkBLBUk7Niy6oRwFJlnx5Wah5LhaWqWpeyGvXBUlXsOmW/hGeq58VS6bxRu7dMxnO9ccYFTGCpSkb8bXgKQJWjA6PUiL/B9guZCmZmiaWa7410jS3VpZ/IXOU/ueQPQ81+QLwmaluf/AiMH/G3IV8gMG7EX26QoC1eTaxHLNUEyaW6naTt+6eCwX7jDZURXGHTDdvayYwgzEks8+nBUmXaXhVmsVRVuArUYXICWKrJWbFl1QhgqczjwEr+xlJhqarWpaxGfbBUFbtO2S/hmep5lsrTRnbDjasyxXM2L9XYWKpTN2SedJMWWpdlX7L2vFzgH04n5Xn9nD1w0QSWar431DW2VKqpZ8fTPSOz84/S4Kn9LZWRufa1gLKh6o9JsaVS+aeyCdezDXw9LFU9au/fRv3cUZkRgr1er+PpJqWkgrARRlGUy3UVxjvqgLlCy+uBpco2vgrMY6kqcBGowhQEsFRTwGLTihHAUpU/IKzAGixVdS3V5vMnRlfy//5o+NJHd7/wexc/nOsJTn5wcOXE6NIHs5lrcxvOb8Hjf/xQ9PzvT1WBC5//w9GVE4PPv39+tZpHyViqeVA9RJnTWCr7Dr4XbLjJxtnriRwEKF6OpqsxQSxV7eTlSEauJNfPmrJOb3ZUScYI+Jaqdtq8AfDLj6fn+8TF7Xuj0d4w+Y6K78JSzff2ucaWSsVSjTqbaaSgal1i3J1pk5PkparpgbHDzuZZ85q/09f0x6TYUtU2dCSXs0utZj5cg+1LssWviaUKGm54U1F79XNH5cblZVbX60EYJ356qa47sk9Hb7UjZ3RgUDrYT1YIS5X2sZWZwlJV5lJQkYkIYKkmwsRGlSSApSp6OFmZZViqlbNU1lt9LHnqfq9PWLql+uOHD6DJsFSV7S3uu+++X/qlX/LaWHVnprFUtVNXW1pJDd4WWcz774pv8P2fROLtZTZn+SSWqlbbeGF7oPLu3Ns1RanXrhkjkLFUtZr9qj/si13S1wv2b1/QOgBLNd+PxRpbqtrzt3WDVFnM35Zz7yaRlKc2xmr/WKparXZSfaxGo73BbitRCf51476j/xiRDd06eUFFbY32Bv2O/HDp2gyTa9qbrYmlEhmj4o5vldxWm4mTCpv+uDw/Iqou3vxXXJZTTiPudryEVDa+yj2wM42lquAtC0tVwYtClcYQwFKNgcOqihPAUjlPBKs3iaWquqXKBhn97v1n//Sh6NIfyTCrj0VPVql/OJAmw1JVtttYX0tVq508e/mOeu+YjDB5J7r1T2c3apfuCl21q4c4TWaparXaxheu3u3p7+KjQT+6fs5TADlLVavVHn92K3pHvXZNVGA46Ec3L9qIlVoNSzXfj8U6WyrVuvraw46G/eTO5vknaqe+I0an2nf2eU3U3kbcvFRq4clzV39kPil7g364eW5MXiq9y9nLryf2+KO9Yb+zvflsGjm46pbqR//2lkkXVa8Hjbi9k9NLuXzo2YRUmTiq/FhAt/1344Y+YCMK00PXs+LL3UdNY6ls067OBJaqOteCmkxCAEs1CSW2qSYBLFX+wWCFlmCpVs1SqW7gfe+7/T9kUNWLf3CxOh0DlmqFPvoTVHWlLFV1PgZHvSb33XffyZMnJ2hfy9xkxSzVUW9TVTn/X/7lXz527FgrqmdfyReEYdSM1U+Uf79fblyeO5CvXt8/EXvLaCrHUe2/F+/4q0rD8eqBpfJwMFN5AliqeV6iU1s9+afKH435MndORShHVzZW928882Q4rmws1TIftQ99bCzValqqWq32wYd2RdaqP4r+q/l85iXR++6/fObD/W+qwKsTo29+NDnzwNn3me1rNRXHlDxVO/sXH9x9UW32R4OLf7D1x7+TbqSm3nf/xdN/0L/0MZMq64+Glx6NPvN++/fxXBatD5vsPrWaV43sjiaW6gNn/+L3k6+a8l/0Cs9WpgLz5KWqwEWgClUkgKWq4lWhTrMgoC1Vq9XrdlpeWJNjj/KT2XF5aWyU2HYS29TNZ1kfn5BKPxvON5aqKErUwSwDQp1UaM6qOUxm3tCamZ3DAQ9c5NpZqosyBnm0e+NUKRP9RpH+7WdqC/iarQ6hBuJn/x8O+2/f3XJCO0vrPPMV+3xeZn68mRWIpZoZyqKCNlRn9e7dUk2lWs5edLm2iI9PUR1XeBmW6tCmaJkFYKlW1lLV7t/6sginGn7hd3X/kbVU77t1UYqnb35099kPJc9+ZPCyDL/6+gcvGFGlDNHu8x8eXjkxeunR5NkP7X5djyX0kl697wO3vyqXv/yx/pc+5Gx2YvD5D6ik0Rf/5kPJlz4qHNbL6nC/pzvcD/7n5CV5XLX8v8ttrpwYfOF31Y6qDqOXpJ+SdUgualc1OFvdlOpYqhW+a1H1eRLAUs2TLmUvk0BqqeRjW3enHecDp7KWKjvYr+crp4lsUy9rqbLiq+QxEku1zOZScuy1s1T6m/Mo865b5/T19/B3bp1dyNdsbalUYr6WyI6n/3X6gz2lrQbb6btTnIrOdRJLVdJNTbj4zTffPHbs2K/+6q/O9SotoXDtcId3v1588Is/ku/oGRdsVbwjS2u1GpZqws9XNTfDUq2updKRUKP/8ftnVVeUsVRPPiKc0ZcfSt/09L4PbF8Swmj3r3XadW2IrpwYPv+QjbE69/RHhLT65oeu/p7u4s79zaOiKEdv1Wq1s5/5sIyr+vCmcV61TAXE3vdv/Xep0pzyN/7o93aFL/vYXRmIZesw+LvftZFZp/9PWfjLj1yuai+LparqlaFeSyaApVryBeDwcyOQsVT2qa670+kk6b+W+xa+nIXyJFXQTGwpYyb8EYIi0/qYjZ1VWKq5tYWDF7x+lqr2jBqQZFI6ZtnoMU3jgq2yuxxqXlsq+7pet7CTZ/VLePu3z7nLFzCNpXK6pgNMrq2lqtX0m3nDwm88Kl+qiEPk5wAEsFQH+KxVZxcs1QpbqtpTUuVc+qB+2ZIviZT9GfzdB9xP9amnPzJ6+WODZ3T4lTZELz9y1ZomsbWO0ur/jZJZ92996WPDlz+WDi3UJT4QCdn0h9vmJeUFluqjv98X0VWZ8msXn/nY6Jsf658VddN1yCbYyhXunkYFprFUFbgIVKGKBLBUVbwq1GkWBMoslf9I13YkVYGFakdptFXY3PH3LZ7zxJYYIphL1168Xw9LNYvLPuMy1tBS1U5tvS1ilPoiWCr389SWeHHDXnTVPivmNpntgnGWqlarnbklXuY76t86M9vD7lcalqqkm5pw8Rpbqto/3RXhUnJMX7YZvRzJ1qqlqmrb9l29cuPHz1/bTt9XMuxHN86bP/mfvfXOaJQZdq1fS+23f3WUYk2WrdFqzWOpJvx8VXMzLNXaWqqaiqW68rHk9O+ee6i4V1GGKB0zaLYSMuvKidGXHlKD8szizO/3y8iscZZKl/P8fx5TjrZUzz3ol54r3F+99Dks1dIvARWoJgEsVTWvC7U6PIHJLJUzOq/oLXze6olionxJlQvOGvNwWTlL9cT5rbA/MO+flO9/vH35TPqAIL+DDbaff/z8jci+JnLwTrT5hXQbcR3dl7TuDaLr5/SYMhs+U5CXasx3Odk0pEQY3Ll06c6uquCgd+v84RtNroR1tFS1UzeEiRrJMX2ZMz6rpFB0VV3Cgq/ZJ89evBn1zWtyh4Pd7ZfOmut9kK/Z+1gq9Qpd/6v7xpmLt0IzHnBvOOhtu81SnFGm6Yp3p14953u3jTOXb3f6QzWocG84eCfyEmC5lkqZu1Gy6ZdQq12OxO5pVNrjz25uO2X2o63zT7iAZfa3zua565EazDjs370863d/k5fKJT6f6TQ/ul/+xlUpqWwcYu7jc/pqqD85g7eTpKVfyDvsbKphNGp7Vx/rz+NolFwzHzITzBVdSZf41VjhOSzVmCeE6q/CUq2wpdpQw+JKYqlqtffrZFIiyfqJ0YuPRp9/6NIf/o7bCSlDtPu0HgCY9kNP/IEY9GdLNisef/j+8x9/cOszv3/32Y+YpOzjLJUqf/D5cemlSrbBUi2/9+Adf6bh83sKAliqKWCx6UoRmMxSpanVixKjJ06kVRhP0s17w/2KvFd5IdWyVKc3E6V/7u3KPEG72kMNk6tP6XYgv1MNdnvie9fwHZFOqP+usB8i8sUOeDl5YfueXLY32G0lyTui0ME9+VWt1FLt811OHF5JhKEs7e0keXsw+GFpOuPDNNu1tFQ1Jz+6D0d9/R7e/Sf3Eo/SYJCTF27JKyiVZZIYIzO4c0E9rB7ga7baZWQbg1+hjSvye78Tt7Lxwi3dFFUqK1WfkZO7yjY51XRtfqt3btlhg6dfvKttgdpGFzJMrpmsG66lqm1sdkQbdk2BqKYKaTEZvk5fidwyd1WzHybaQIgdpKUailYrPi+d/qCzVZ7E3gcx8RyWamJUB98wI3N1QSfVOyhSm6natv34nFI6fri7ZT2+aat91Ta/LqO0Opvmq59ueKLxpZFTqkdNj3Lw06jenliq8geEFViDpVphS3Xh7/5Q6KcvP6TvSf6IP9FXqBfz6Zf3SVcl3NMfXP2g7kiUIUrMA2LavWSL+p2Lpz+sk68r5yW010flknGWSr34D0u1Aj1BURWxVOkngqmJCWCpJkbFhitGYEJLJXtT8RbAKO7ketadZmhH/E1iqbqtht1+8oRU+rBVslQ6KMDaB3ntT6vv6rvf0U8x/z977wPb1nXe/WtNX3Qr6r4rsF+KYo3b7d0KFNiK31pgndfV3hqvf9beKdXcqK5SO1piGWa9CmritIob1rVqx00lp1HW2I7lJbITJ4pcm5qtxJVr2U0VN6qt2JbrmuIfUSTFCwcFPBQQEAgIXr4459w/5/4hRVL3kufc+yUM6/Le8+d5Ps8lRX71nOdo+kJx4eqgvmZF0dosXNZqG2ht3rxgZLJ0Dl7VvswbwoQ1l2rp73KGSlUs5s7osoI/t2cwVSpFOZGkauKkodtQfBZphpyxfc3Wovn7G0MGdU3NXEzH6Dfr6r9ma2MaN4Mex8gju4+cvnGL5jotXNJuJ0XRRM+FOGfCaSqoLqZP0Fyn7b8gmWKL8SH9q76ibCHVghbfunnhSTr6I6dYh9wZIwtM0XUrXWC1otDEMlM+IOMwhlrizCNjOWLq4s1f9OvzRjTXTHWMqRjFhWlN1NN99fInVCovaZYayy29TktR1PMQHS8fLQPLyLTSxmZ14rRNA2l2nqnJ0qdvptNvFYu/v6q9Btga2De91zdL+VrP81CpHB9CZDoBlUpelWrJPf7M94FIa/ORb69P63vnFZ9fzz5HaCrV98yW2pE1l+rQXrYx36aFZ++5+P2vDG1u/j4pbOVId7JrW1rNKahUMr0lcLZCpXK8MHBiaQJQqZZmhBZyEqhGpeLeSa2HnOpUQVkqS5GrVMUFqbQp66FS0aym0v8tXB1gwT5xY2Gx+Lb9z/XsW7ddgbJ+dVcskpN7LWG2DZaZPmPpUsl3OT2Xyvw659c9GlSVSqutY3z1pfxYXG5x0hWLuJYMYuxupmdaMeiagqOlFFX9NVuTckrdlG8v3pw8Yoig2lzaV3oj6JaVVmxA3gujHTvQEmHyY7Y8Jm13tvgQaWZVqfTsM/4VoXnKCnj1T9LyWXpelT6jLTeNqVTWGkN6U69+QqXyimTZcbQsJ05yYtsOmHmIdpXKTdiiUxyisv3CxacURcva0zcQpDfhwqVD9M8D2sJSdvcafyooa6R8F6FSWT+ASPYMKpW0KhUrTK7vlEfeORwikfPtJLK1bYEkQ917nu7fp622s1ZYVxRFqyfFakXddXeOdLn/hmUxvKIoX6Hny+VS9bLNAe01pxTl219fjN2/eODubXr1dIeS5ZDAnM409AzqUjUUPyYXlwBUKnFjA8uWR8ATlcqSTFW+enqB16hmkpmKSq3zH0Lro1ItvrXo+o+qBIZKpaPfsn333v1DL5+/cDmd+90CK+JjU6kWLlnrQbGv9yw15qmLJG1qQc8C0EfVlkoZ6TO8SlXRdzldRHCrrGRM4slBYFUqLSmJ/1J95AZZsGlWWbJ/zWZ5Us5o6gudThHi7Nt7FV+zNZWKLd+bI+tGtbVyby/cOL1/u7UUFNtebWHaSK3Sghw5kyM38Bw14adprVTZmzcuvjzU/4ie26TfEKfmSNvcGft5hVWq/v1FckPbVCo9c8pY9KfpZVrijFaQ3jnmoWn6CtBeI1Sl8llahUqlx9nfn1ZxVi/zb9VPLSIvu6PYwmd6n9OV1OZCaaYFs4Qs9qZKBSnyUmLKVO5l8oWPbn3gr9DpL7iyo0Ol4j8SSHcMlUpOlequ5guDdAXfUS0rirxILSrVv44duH8xtsmxmo9JThaVqmjfX0/L0rrZQ+tVsWFPbhyzvhFEWL5V+T3+WF/HHn9DT95fPNnBlCnUpRL2XUP8XCrzT6alv1pof5AsFo0vQtYb2edn/Pcrn6cSZHioVL4GQqsSXSxWU+iULWlx6AUeGBrpfTmdm7R/wfNgYCGH8ESlUue5+unl9uvLc+1mZqorSKX9VqmHSmXNneHixrI8uLtuS/+YXmZHS3N5e3GBlp0y3pwt38GMsfh3UXbsXJzCt1EUS/oVu7TUdzlNRDB0LmN2rw+Cq1Ip7Lft4nW9npe1yhIDaQkxExM5OUn/ms2KQGs3T7Vfs7UPBpZQRvp/wYric9WmqEFszSkrgqbPTr7n52hxNH1VVOTQJZrZpN24xeLCrfTlMb2QuV7i/RnHvcIU0rdukGQqdh/yrxe2s5uWOahlb6VjGidWfG1BpcbwGgSreKV5R19l/JgOE5Z/AirV8hlWNoJF1WWvJlsGn+Xlw+4o4550HGgZi+wmJO+ZTPDNEeWV6qeL8SGFKcI+30KVue9LK6hUwn7HrMQwqFSyqVT/1rz/W19ND20iFalO/vvVrdyr2qJSKf0sj+nFtiNkdZ726N1NN+/TtS2mEBHB6PF/M/KfD/2onVZbv2foLtrrq603yVybct8zi6xHNrbmjrNCV1wu1V2tJLsq9vUT+nSK0nz+WdJscaC1l42mKJ3/oedz0fJYUKkqeaE2pI1MKlXJXaW1tR7kr+96WRPz9qzDke27Ux1mbPQUUKn8jABbAkA/jdpXgpSZ1jeV6mWSbtCYV1YZd3275I1Kpaq2FCln8Sq1kM+kEmY9qhm3OuwV/FYQSaXqp3uiF4sLN29Mnj8x2NvbQz50sC9dxi1k+Q5mxJF/F2XHNahUjq9wxgntuxw/izG1DwcBVqkUXZShMpUuu1g3DrOEmKlURiTsB7rEWeXXbDaFufxTC2KEpU0VLdXHFaZS2Wc2nnPf3iOP9A9N3Mj9TquBRppoQy2lUrFkMXaDcQMqClMl6KI/tviR6VnEYK1almGI/QAqlQ+vzYYPyZaI0sV37Aaw5CEab5gW+cmZimh3g92fubEtrCgVqz9Fj393oZdKycY7sL2r/M+hUlXwSUHcJlCpRFepqBqlFz4napHx7/50tykbkXcSq0ql3NVy9UXaeOT+W89uyB3YcPNFu7alqVTHSWZT8aftZpuRf7/I6V9DT9Ay7Sc3LR7ZSNocpe2Hv54+Qsbn0rX+7cYwObP4/Mbcga9qf01r+0qanizG/v3mgQ25Z1mJq/tzj2jGQ6US9u1BGpWKFkPlt9o1f7Gyz4X0812Afw2b/gpwBJXKxyBoVU6vXiV/17910dj1bIkpfVOp6JfM8LyyvFKpVOtSvplEanYuN1+gvwoK+WwmneQVqhmiUbGL1f6yEEilYmu73roxZF1vVbVKVWrFH1taZaTPOFf8LfldDirVEm8jlVzWK+m8qGg5GqbsonW3qFT2yuilpqjua3YJlUoreU4+Drx53qjVzqQr58K6UqbQ8539wxdyVK1iiWMlV/wxB0us+ONEhwhb7WWmoWnrsBauOvOzLJYhl8qCQ/onrPD5m+e3s7cjx9+iLC8fTcpc+pMA65W+QMpV6b+v2UK/m2mymFVfTis9PhcHoFJV+7FBqPZQqaRTqTYtDrWn9959qNXxarSpVHSPvxM/2njrOBOnOoqx+28NrD+x0eyoK0T/tv/7G7RmI/Y2tHXzkDkONWD3v/XepWhlpw58xViLv/vBtps/1bSwi5v1ie6669Rew4xNi0c3nN/8r/q1UhXWUZeq8W8UsqhUC+k0+c7u/Ou69of6hVye1nFoSC6VcaOH5gAqlX+h1pYAXOi1r6xZYkqoVEsAqvCyZyqVqqr5jE2K4jKnbIc1FKTSfn0IpFLxspGJW8t11b842TeA0xpa9COWfsIXPyKt2CvCTJ+xTMfu/6W+y1lmMU30/CjIuVSKoqkt8SG2NpmTXTSQlq/ZbLXR22lWL7wM6qq+ZrPG5s3AjRuJaRWmcqe1QufaGmpuGzWuOTvcfT6/uPi2/Zu8VriKCqPlq6cXk3SBAbvBLLlUisJUifzYqTRJzbrBVZFnXtgWfDlsg0rlQCL3CSbI3rwRJ59anev6LS8fRdlNd58s/v7qEa5wsLbn6WLO1GKZWkq3jLzxogZIu2mLxaLPdc0aGxCoVI3/MrkMC6BSiatS1eGFratUX67DXAGbAtXTRQgo+4W9cPnURSJT2VOjtZz5318du+xQqbb0npjM3XqLVUQtFt9eXPhd+vwBY9kr+7K0cHVg99BkboHmahXfXriVPK/XoaDe0w+dC5cP7R6+mPu9lo9vG8de60Tv0nngfPqWPvvCrfQZY6tpxjXS+9OLOb3B4i1iG12YoK+AEIF+CRugUpUAs/zT7Ps5rXJqWVljH5m/uxbVq0O7XVQq0kavXU3u3cVbuckTvVyeC73fcmNb+seSt1iJa2sbNqZ221vW/W3pPTKRvkUTDcjACzev/tTcnV1PH1i4Ojx09U36Enh74eaEtVq23SFRnnupUqmqWsjOJm2ClMvT5Gyu5s94P//ZaFNT0yc/+UlfCLp+6zZnstal0r4m5caMJBal8witA83fPLbvYNpgbCI9T6r/Aq0QxH0xi7BEqmLRFCYsKlVl3+Wss5h+eH0UbJVKUehKordu3Mi753taQ6ytwlvMj3FvPpHeMzny1rBwle6NRwNQzddsNoV5M1giuFtb4reYPsHe7rawXSMXc2e4t6ktvWN5asI0MUHXQM9zRmrjaEncj5yiFlsG2T18g74LLlxk21y6v16oUPv2InmPtQlYu8/fJO+vC1cHzU8mStcRUq/q7cXcL9gLCSqVJboBeMKqsJHIu4lH1pePoii7x+bYr9HFW2/SjQL0z423Lh0yEgi0VyUZlNtTkr2mikVNRQ0AOzcXoFLV/PlBhI5QqaBSaVXM3V7dOFeSAFSqkmjqeIH9wl64fIh9iLTvpEs/FC5cPmQ000zbon/B1ou26t+o9U+T1iSs4u9v5uZyt2iV3+Jb3LcsNn6eJv6z0rza54PF3Gn9q5jtmw/r8uZN8uGVzc4qoRaLt0R9dl0AACAASURBVC706+TMQq0Lb+ZyeaYRLCwQIQwqlTe/N7dv3/4Hf/AHOnBJfrJSu9oSAK1AlfNvrbtP069LxSKtB0yLEC8u0BrV5s1jtCE32Fwu96amQy3OnTJ2Uqff5W7m6Fc1cyj6xfMQ+XbXe2o6l2N3L32BXH25l3DccugCO/n24q28cfeSVQbGJ2b2elxcLBbpq+bm7xeuchkEIgfDY5WK3suFXCadMtOqEslkOs1pVzUWpCJD5zPJU6dOiaJSKYcuMimf3RhzrDz2Yi5Jb1ddgXJ8B6O3g+1dVNnNFIQiG+pNKgWQ+6mkSlXRdzn7LH7diUFXqRRWW4eEw21XE3uItxyif2Qi7wbkHWMup/865n6NklBQ8auyr9lsihIqlaJo6k9xMT7E3pQiz1y8xf4WtXCLvB/mb2l/mjJ+3RufGfQa/Nrngd9fpW+GxD5dkyqyDwzae2Nx8eYv9D9BsRvMJkUp2m5r5J110vgMoN17xhv14i3yIcR4oy7euqjPC5XKr9dpw8ZlFcqKRWceov43nqJWl0ozsXP/ePrWAn0DJNoW+Zvrhec4yZU0Y3XTbWsOTtFtLIvGLpMNc9nPiaFSefOhuUGjQKWCSgWVqpY3SKhUtVDzug/7MEpWixiL+bkp6FWyysNsRq9qq6Xy3B/1lQjb3ZnseEIf2sdc/iOm/sfVxeQJ7fs2+9BZLC6q5/u1JBT9j8DG32lt33z0LgvTR4w/j+5mO14bH161NtxWROzPp+QDuik0cI6KdYhcKn/iYS9FbN+1ms36yFiOfN1auDGs66T6fWvePNqHYO4Go3+RpR3NhEQt44AfSr8PTUWVZqwYy7WMz9DF398Y0udXdo+xLIN0THvdaC+utznB1x9kno/qh0rl+OxnKa2emqutIBXVqGZmRFKpFKVrP8kg1VJTF2/lr44d6DTqbbN3XnZvWL+D6Zuj6UoWDetukq/HvpcRreri0DApuWIKE9ZcKtplqe9ytvdqz+8efcDAq1Tar+Ni8ea4IXrrzuv18i0hZqnN+rdsKj7Se8PsVN3XbO0dxnLDWMY6dIkqm0Xz71KRH524qP1BiPyiJXmj5hZ+tG/X/vNJUwqgDU7pv/e1wS2DOBK0Xfb4Y/1YYmyJHWBsSa+LC7fSE0e4lC6oVJbI4gkI2AhApXJ8xpDpBFQqqFRQqWzvaRU9hUpVESafG7EPo/RLMqtvYn7H1pb73brYr38s1r9L9194c3HxbYfcY/1Wo33MtZWu1D5N6inTmpzET6ooipbkov15yvbNR+uij6DxYUtjcmP0KSvmav+zqtbRYbbPhGsYHipVDdCW7sKkJcsSALZQxVJtZzurUmGrsaLdt/rNE7tB/uyqbX9uzGxfFchUKvufc1k+l6Go2lQqTf+yVFch3y9PkporRf3VpL24WK0WY34ZDuqgUs1nuESqZMZl+7+KPmHm2TD+qlQyhExAG4OvUgkIHSYtg8CaNWuamppeeOGFit57fGv0xhtvNDU1ffzjH1+GK+gaOgJQqXx7RdZjYKhUUKmgUtXyrg2VqhZqXvfhVCqtcoS56I/KOkzr4ZtxJnR+f2/vkdj585M3zER6/a+vrItj3x+2K4peRVVXoIylTGxwphRoaVl6G21e9pTt+GOawgQCplLtp+tidEGBb0P++us8b7YQ5AgqlR+BYLUqbJoRW1nDnyyx1ZS+UTorj6LbF3lkd++BoVPjF64mc3qSgHmDUZXKucMUk8Z0ZdamUrE6F87N1FiN5GLuFJ2avbjcN+XUbRPzZx1UKlKuKj9H1/zVXpCqMJdiBa6gUgl4I0GlEjAoMKkMAahUZeDgkuAEoFLVQ0zybQ6oVKFWqQR/cxHZPKhUIkTHIj9ZF/3RS1qaiaUZsXv30OWb2sITmt1PVvKzSuoWlcr5FV1hCSbaagUqOS1MH7Kj4NOyXFUqfRa9I69SsUoBWl6V3sBY72CKCNwlsQ6hUvkQDyaPspvV8T+XYEXvT11F5ezQJCddpYo8OZbW6/1rwy0u0FeEeYPRLrakP7Kkj9TuNdRSm0rF7ny93BsppKL9Y0WItMHZ69Gy5IczVeTD+qhU9PNeIZ/Luy72m88kE8n0nPtF9lExN5vQqrBDpRLwdoJKJWBQYFIZAlCpysDBJcEJQKXyTUGqx8BQqaBSCf4OI6h5UKlECIxVfuIX/dHd0OhyP6NWjr7iL3IiSQtgvHUrffnCqeH9vXu2k2QoXlrSq6df1b/VG866qFSXvVWpLKv/jHn14pemiMBdEusQKpX38WAK7NuLi285/tEqP0YN9YpUqifYHmnFhTdvXBw/cWRv7/fJJtZW+UlhgqxTLbU2c1WpHDKafgIq1bI/1RWyKV2BKilV6YlUM6QulZ97/Hl/o4diRKhUoQhzgJyEShWgYIbOFahUy/7Y0cgBoFJBpQrde5YnDkOl8gTjMgexqlT6or/x7QqtnmMsKbI002r03LxgVHdmRrioVLaNVMi+Zhd+Rwqr3niR9rHlSenO9FIRoNyKv3K5VFYVQB+TiAhY8efd70q59viz3MDmLUGO2M1mlHwqseKP7e+jiUSs8Jmxv5U+nv3Gs6Vf6c3YTltlV/zZK17pXfWfzB3kUtVwO1sqq8/MuG4AyIlUM6de/pmPe/zpAcXPqghApaoKFxo3nABUqoaHAAbUTAAqVQ2fNMTpApUKKlXNr/1Qd4RKJUL47d/eWcqJev7E9cUit2OOpZlWGeqqNQNK20DN2CKKdSm6VqE2Flixod5On9I2+GNItOrp6Rh9alOybE81iEwg0PJWTiRJ6om9ejpzzVhpJQL9EjYgl6oEmJpP08TAUqHX94e6+AQZn5WvMkQrbUpjUz+aG2jJBzSMctxgrJn9PmTV040N5m25VKz+lP0VYcyhHUClqvEjoKWy+szMTDIz7xzJTLaamUm8MjYOlcp+/zX6OVSqRkcA81dHACpVdbzQWiQCUKmcnxIkOgOVCiqVSG8n8tgClUqEWFnkJ2IQW/S3sPD7YtH4Im3b48/Y7+wZo+h5pPdMTtsFW89y0lSq4sKNYT3nakvvWJ600lcO6vujF4sL8SG9kT6UsQmaTZayPdUgWlQqbb/qt29eeFK3cAtrwNUDEoF+CRugUpUAU+vpGN0gz7ij7MNoqqhWQ33LiTS5SRdzZ3r1u2c3u2+NYlIsl6qYH9NvWkXpOkKrTVluMKZSFRdvnjfuQ71Z7rS+wTzLQDR364toiVr5MW6vdP1FsXB1iBoPlarmz4iFXMZc8TfrtgFgbtbcIzCRHhuHSmV/wTT8OVSqhocABlRFACpVVbjQWCgCUKlq/rwhQkeoVFCphHo/kcYYqFQihMqhUmmL/kgu0oVew0Jrs+2n5jRJauFNUt351ls0dymevlUsFnUtgHVZXKTf+H+Xy82x8s/F4q2Lh4zMKSY5sUa0YvRNVpH67VsXDQnMJkvZnmomWlUqJcJmJ5oBsZBNvUiLW9+68CPDLUEPoFJ5Ghgty8/URh2ja/lTegZT5Bm6NpTczDf125vdo3pRs4GLZPFosVhkZc7fpM/eyqWpCGssxGMqFX0F0Pswf4ttOLA4x8lb7H4uLtycy9043U9M23LoInkhFYtvL9zK09eXNtli7rQmi7Hb25jI4ZC4J+pYPb3M50MqVSXTWdcm/JrA1Nw4VCrx7iaoVOLFBBaVIwCVqhwdXBObAFQq108KspyESgWVSuw3GFGtg0olQmSs8hO1SFu4pNfNoefszbb0nrisq07F4sLv0hee640oQzeIXKV11L5In+FaLt7KTZ7gMkT0XKr8WO9Pr95kX8XfXryVv3jiR3oWi2K20XBVpFKRHf36X76hjUktHHvSpmSJgN/dBqhU7lxqO6ul/i3eeK50f61NMXdau/EiT566oWriUHHhVvpMP5WcdJVKUToPnE/f0rTa4uKt3OWx/V3K9l/cJFlYcZbwxKqnL1wd3E+a0hrtZKjx/Z0WQ7jtMo1yVFt6T0zmjOGL5EVxdeyA2Q8qlY8fEDmVKpHOQqWy3K1iPIFKJUYcYEWlBKBSVUoK7cQjAJXKx88b/g8NlQoqlXhvKjJYBJVKhijVbmNFX6TdJafaJy3Xk1X8eeuGJiGUa9rga1CpGhwAj6a3CVsejSr3MGLkUpX9YMiv+INKJeTtBpVKyLDAqJIEoFKVRIMLwhOASlX2E4PoF6FSQaUS/j1GSAOhUgkZFs+MaqBKRaZ+ezE3blYNUpTOI9MkNWYxeYJL0/LMWW8HgkrlLc9GjQaVykleApVK5aqnoy6VM4QCnIFKJUAQYEIVBKBSVQELTQUjAJVKdCGqrH1QqaBSCfaOIok5UKkkCVSNZjZQpVL0skGLt0hdodzcTW3x1EL6FK9c1eiZ792gUvmOuC4TQKVyYpZBpVK5NX8zL2OPP2cUG30GKlWjI4D5qyMAlao6XmgtEgGoVGVVINEvQqWCSiXS24k8tkClkidWtVjaSJWKlA0au6oXqyaFqPXKQbV4Uvc+UKnqjtyXCaFSObFKoVKpeXObv1OnRpuamj75yU86fcGZRhGAStUo8pi3NgJQqWrjhl4iEIBKJboQVdY+qFRQqUR4G5HPBqhU8sUMFteFAFSqumDGJA0gIIdKpZo61alTp6BSNeBGKTslVKqyeHBROAJQqYQLCQyqmABUqrIqkOgXoVJBpar4tY6GHAGoVBwMHIKASQAqlckCR8EiIItKpar5uXRiZmYGKpWANyBUKgGDApPKEIBKVQYOLglOACqV6EJUWfugUmkq1V/gAQLVEAiJSlUNErQFAUJAIpUKAQOBagk0NTXNzc2V/VglyMVCNp2ESiXgNyioVAIGBSaVIQCVqgwcXBKcAFQqQT6R1GYGVCqiUv1vPNwIvOc977nttttWrFjhdhHn/vdnPvOZ2l51svRCjEsRePe7333bbbeVuorzW7ZsEfwm3759O8JUisA73/nOP/qjPyp1FeclUanIS3D8zM+w4k+0L1FQqUSLCOwpTwAqVXk+uCoyAahUgn8aL28eVKryfEJ99aWXXmpqavrZz34WagpwHgQcBHbu3NnU1JTNZh1XcAIEpCewYsWKrq4u6d2AA6o6Pj4OlUq0b1BQqUSLCOwpTwAqVXk+uCoyAahUUn8Ugkoldfj8NR4qlb98Mbq0BKBSSRs6GL40AahUSzOSpAVUKgG/PkGlEjAoMKkMAaFUqjvwAIEqCTQ1NfX19UnySxtmWghApbLgwBOeAFQqngaOQcAgAJXKQIGD4BGAShWYmBoq1T/iIQwBEVQqYWDAEAkIiKNS/R88ShB43/ve94d/+IclLuL0/4FKJemnGqhUkgauHmZPTExs2rRpamqqHpNhDhCQh8Dx48c3bdqUz+flMRmWgkClBLZu3frcc89V2hrtBCbAVKomPMQjcO7cufrfOCdPnhSPBCySg8ALL7xQ/zsWM1ZIYOPGjStXrqywMZqBgCwEoFLJEinYCQIgAAIgAAIgAAKVEhgfH3+OPo4cOcIOnnvuOf74ueeOPDPwtPk4eOhZveUR+jC6G72OHBn8L77LwDOHjaH9PPirv/qrv/7rv/ZzhrqO3SiVijnJosn/X1fnhZzsb/7mbz760Y8KaZoQRkGlqvRttxHtoFI1gjrm9J0AVCrfEWMCEAABEAABEAABEBCPQH4unZzRH6m5wpIW5jNm+5mZ5Gy9MkpXr169Zs2aJc1DAxCojcDatWtXrVpVW1/0AoHGEoBK1Vj+mN0nAlCpfAKLYUEABEAABEAABEBAdAIFJlUlM0srToW5lC5pzczMJNL12+cUKpXot5Hk9kGlkjyAoTb/hRde2LNnT6gRwPkgEoBKFcSoeuRTNpu9fv06iu94hBPDBIfA7Ozs9evXg+MPPAEBjsD169fT6TR3AodhIFAoLJ1HpWbTCVOkSqSyFXTxit0Xv/jFL33pS16NhnFAwEbgy1/+8mc/+1nbSTwFARAAARBoFAGoVI0iL8G82ONPgiDBxEYQwB5/jaCOOetEAHv81Qm0dNPkZi2L/TLz0nkAg0EABEAABEAABKQgAJVKijA1xkioVI3hjlmFJwCVSvgQwcDaCUClqp1dkHvON6ggVZCZwjcQAAEQAAEQAAFXAlCpXLHgJCEAlQr3AQi4EoBK5YoFJ4NBACpVMOLorReFuRS/2K+OBam89QOjgQAIgEDQCFy5cuW1114LmlfwJ/QEoFKF/hYoDQAqVWk2uBJqAlCpQh3+oDsPlSroEa7BP0tBqplK9gKsYRJ0AQEQAAEQqJ4A9virnhl6SEAAKpUEQWqUidevX3/uuedmZmYaZQDmBQExCUxOTj733HPz8yjLImZ8YNWyCLz44ov4q+yyCAav8xxfNT3ZkIJU3/zmNzs7O4OHFh4JQuCBBx74xje+IYgxMAMEqiIAlaoqXGgsCwGoVLJECnaCAAiAAAiAAAiAQCMIFHIZuuYvOZtrxPTq6tWr16xZ05CpMWkYCKxdu3bVqlVh8BQ+Bo8AVKrgxRQeqaoKlQq3AQiAAAiAAAiAAAiAwBIECrlsrrBEG58uQ6XyCSyGZQSgUuFOkJcAVCp5YwfLyxCASlUGDi6BAAiAAAiAAAiAAAg0mABUqgYHIOjTQ6UKeoSD7N+lS5fOnTsXZA/hWygJQKUKZdgrc/rq1as/+clPfvvb31bWHK1AICwEfvnLX/7kJz9BXaqwxDtkfj799NNnz54NmdNwV3QC3d3dDz/8sOhWwj5pCTzyyCPbtm2T1nwYDgIgAAJBIwCVKmgR9dAf7PHnIUwMFSQC2OMvSNGELzYC2OPPBgRPQQAEQAAEQAAEQAAE6kkAKlU9aUs2F1QqyQIGc+tFACpVvUhjngYQgErVAOiYEgRAAARAAARAAARAQCcAlUongZ8OAlCpHEhwAgQIAahUuA8CTAAqVYCDC9dAAARAAAQCRmB4eHjv3r0BcwrugABUKtwDJQlApSqJBhfCTQAqVbjjH3DvoVIFPMBwDwRAAARAIEAEsMdfgIIJV0wCUKlMFjiyESgUCvl8vlBo0L7TNmvwFASEIcBeGsKYA0NAwEsC8/PzeNv3EijG8oLAP/7jP/7TP/2TFyNhDBBwIfC5z33uU5/6lMsFnAIB4QlApRI+RDCwFgJQqWqhhj4gAAIgAAIgAAIgAAL1IbB69eo1a9bUZy7MEkICa9euXbVqVQgdh8sBIACVKgBBhAtOAlCpnExwBgRAAARAAARAAARAQBQCUKlEiURA7YBKFdDAhsKtSCTysY99LBSuwskwEYBKFaZow1cQAAEQAAEQAAEQkI0AVCrZIiaZvVCpJAsYzAUBEAg6AahUQY/wMvw7f/783Xff/etf/3oZY6ArCASQwIsvvnj33Xfn8/kA+gaXQk9gw4YNhw4dCj0GABCLwAv0IZZNsCZABF566aXnn38+QA7BFRAAARCQmwBUKrnj56v12OPPV7wYXF4C2ONP3tjB8iUJYI+/JRGhAQiAAAiAAAiAAAiAgH8EoFL5x1b6kaFSSR9COOAPAahU/nDFqEIQgEolRBhgBAiAAAiAAAiAAAiElQBUqrBGvgK/oVJVAAlNwkgAKlUYox4an6FShSbUcBQEQAAEQEB6Art3725tbZXeDTgAAlYCUKmsPPCMIzA2NvbpT3/6tdde487Jepi9NBYbGZvKLM/++WwqHo+nsssbBb2lJ3Do0KFPf/rTuVxOek/gAAg4CHz2s5/98Y9/7DiNEyDQSAJj9NFICzB3oAmcOXPm9OnTgXYRzgWWwMaNG1euXBlY9+BYWAlApQpr5EPm99TBDkXpGHijQrdHo4qi7Bh1tObOX4oNn4s7GuAECIAACIAACICAxwSwx5/HQDGclQD2+LPywDOZCEClkilasLViAlCpKkaFhjIT8FqlSg13tyhKS0fvWHxeZi6wHQRAAARAAASEJwCVSvgQyW0gVCq54xdu66FShTv+gfUeKlVgQxskx1Ij0ZYKMqFGdyg1P6IneWBczhR/WuXPpyaejLQoinJfT+wa1+gkScNyy8Oibd4Y6CCXo840LW4Izw6pNqd0HJxiIzI+Vk89mwsDgQAIgAAIgIBPBKBS+QQWwzICUKlwJ8hL4PHHH9+0aZO89sNyEHAlAJXKFQtOikTg0kCkWalkvV781VhsxPHvcLSd065aNu8ZPO5oMxKbuM67zKtR/PmxnmZFicaMU/HTe9qbW6MnU8YZFSqVyQJHIAACIAACIOABAahUHkDEEKUJQKUqzQZXQAAEQKABBKBSNQC6LFPGYrH3v//94+PjDTQ49Wo/TViqSKVy2JmdPt7T0aK0Png0tp/Updp3fHDbeqVlU0/silsFdCYwcZKWdrhpQEtGUqcGNimK+ZRMmM1Yh4JK5QhD8E709va+//3vz2atoQ+en/AolAT+/M///JFHHgml63BaXALX6UNc+2CZ5AR++9vfXr9u+XOl5A7BfBAAARCQmwBUKrnj56v1L730UlNT089+9jNfZyk5eHY6tquDLKlrbmtbX7VKlb0S69nUojS3bTs4kVJVsy5VYmLgoTZFaWnr7h+1aVW/Otqzq4f+6yTpV/d2ak+fGtXLpFOV6r7+8SsToyOx4YN9Pbt6uiNtbRtazQWJUKlKRjQ4F3bu3NnU1ASVKjgRhSccgRUrVnR1dXEncAgCIAACIAACIAACIAAC9SMAlap+rKWbqbEqlVZkqm3b4GSWHle4Q182PjHcs5moW3zOlKlS0TDEzw1sayOZUi2bu/uHJqYztuBwK/4y44O7eogWtaGtbZ0zz0ppaW1r29DRGe2LXaGDVK9SZa/E+ro6jMFb2iLRw+N8UXbqfnR0Pj5+sLujlbimtLRGdgxOJKxmE10vol3f0D3wamrpulTz8cmhvs576ZhKS+um7gHrxoUat1eZtKco69q7h6ats4bxGVSqMEY9ND5DpQpNqOEoCIAACIAACIAACIhIACqViFERxKYGq1S7OgyxpiKVKj5xtLezjWk4G7oHzsb55VjZS2OxkbEpXo2az04d7+ukWhWRfR48yqkvnEqlju9ZR1Shtg1tHV3RznsVRYn0jYxPxuPxFD+DHrQqVarUyWgryRdr6eimaVzdmszUunPMGJ26H+nubtWbdXcwvWz9nnFjh8HEaJRknCktGzqju3q6iU7XGokQ90pWT5+fOvogmVxpaeuM9vRENXoRvdq6quWgtbSuV5R1Hd1k2I59v9I9DfFPqFQhDn7wXYdKFfwYw0MQAAEQAIGgEGhvb//whz8cFG/gBwhoBKBS4VYoSeDXv/71d7/73atXr5ZsUa8LFalUavxoZ0vL5p7hicFul5ynEqc27RufGO7rivSf5Z3hVSr+vKqlNXHnUif7oocnDUWpuurp82NEAmuODFziRkzEokSE2jasa2p0UkVZH43pKw/V+al9m4hH+oZ92dEdRJ/r2EuWN7JHfITqX6VVKpZppUT6zZwsTepq3aPT0Nqsi8ZseVv6LOH8efr06e9+97v5fD6c7sPrYBPYuXNnLGbuERFsZ+GdLAR66UMWa2GndAQef/zxH/7wh9KZDYNBQFXVjRs3rly5EihAIGAEoFIFLKDBdKcylcrwnWpMW/tc9vuz7AA4GN1gL4WuD2GqVNlUfPrStCFCUdWm86ihFrH9B9dHRw0Rh+VSldDE9NPRUTbT2b72tpaWHdozfXZa/UoxVzgylcpIiWLNmH6kncwMb1MUZd2eMSO1ijTKxqhcZ3Rk42jCFhPIlPZ+W27U2B4id3XHmMtslpbHGllBX8eCnyAAAiAAAiElgD3+Qhr4ermNPf7qRRrzeE8AKpX3TDGiAASgUgkQBJiwFIFaVCq79OOcw2XDPlUlqtTEaF+E1n5iNZ6U5p4xvXf8+U5Fad/HUp9Y5pEtE4qpVHSFICllZfvHViQqukqlD6tmUnFSkX14oDfauYlNa1epek4brekBnUhToE730MQqe/oDtbbEir+JfrIa8L59+vaF+uDzsShZgai5zFSqzucNWU5vhp8gAAIgAAIgUC8CUKnqRTqk80ClCmngA+E2VKpAhBFO2AlApbITwXMBCdSiUhk79Gnb9rHN+/j/aXWnTQOGTDP+GCsiric8tbRGunv6Dg6PTnAlrqgeFB1R1cTYnvsURWmNnjTW2FFyVdalUq/FWK13fValpa2dVlK3qVTmUy1AvEpFj9uemLDHjm+jsuWK+iJBZmebvo+hSYkVvdKmYyqVvq7QPjyegwAIgAAIgEAdCEClqgPkME8BlSrM0Zfd91OnTg0MDMjuBewHARsBqFQ2IHhqEkgmk2fPnp2dnTVPNeioFpWqVDYTl9zU0mxZ8Rcf6u7oilJZila2cs3Gih/tVJS26J7u9YrS3NZjk6hUtbq6VNePdjaTrK2O7v5BWpGdFmR3XfHnj0plaGP2A6hU5e713/zmN2fPni0UCuUa4RoIyEng/PnzIpQjlBMerPaLwD333PP1r3/dr9ExbugJtLe3t7a2hh4DAIAACICAKASgUokSicba8T23x4YNG5qamjo6Otwufq+eBteiUrlqTBajXVf8sRZmXSpLD/Jkon8DVXSaI/2vWrOoWFOWo1Rq9jcGOkhvbcXfxBNk1V3bXlsOVPUqVYkVf+oIWb3nXpeKrfiL2hcJ2vxFLpUNCHuKPf5cseBkMAhgj79gxBFegAAIgAAIgAAIgICkBKBSSRo4j83eunVrUzWP7du3e2xB2eFqUam2D8eXeIz332fJpeJMKKFSZaeHo0RXUpTWvnNcczUVv64XWK9GpaJ+6UvwjPGuD5KqWPbq6WVzqTKx7mZFae6O6dsCssHGHqUb/x3UFjVappsfjTY7C64bRmgHUKnsROhzqFSuWHAyGASgUgUjjvACBEAABEAABEAABCQlAJVK0sB5bPbWrVv/5E/+5P9W9rjtttskUKmomLT0f1xdKo6pU6XKTh/v6aB1q9q3kp/tT06a7WnFFri+zwAAIABJREFU8ZbHaI31alQqlkvVEo2ZSVnZyX1Uo6pOpVLV8cdaiXi2IxbXt/lLnYySU6VyqVR14ol2WxdVVeMjpFfLpn0svwsqlRll7ggqFQcDh0EjAJUqaBGFPyAAAiAAAsEl8Oqrr46MjATXP3gWUgJQqUIaeJvbTKUqVvYQRqWiWhKXc6Q7Rc9v7YuNxMr+G4xuqCSXKhs/O9C9gQpUbdsGzsVVdbL/XkVZFx01Epcu7WtXlMihaWJANSqV+sZAhNSlUlo2dEZ39fR0d5BSWW3RPTRjy6hZ7p5KRicyVvOp81MDTN5a19G9qyfaRXYTbF1PdCqjjSWXSlVJl63Ur3XtndGenl3RznvpU67eFlSqLW6PT33qU01NTZs3b3ZevHjxon4f4icISEkAKpWUYYPRIAACIAACoSSAPf5CGfbgOw2VKvgxrsTDYKlU8YmRWOzV+FKOZ6dOx2Knp/SlenxzI5cqO95Ll/g1t207OG6kKWVPRokGtGNUy4Ei5Z9a9pylI1SlUqlq9kqsJ9JKxSGlpTUSPTg6nVWzx7aRelX6nn0VqVREdZoee7K7fR1NoFrX3tkbmy5Tl4q5Ox8fPxyNEEWL9WqL7BgYvWIigUr1wQ9+8P+r+NHU1ASVin8h4VhGAuPj41euXJHRctgcYAIb6CPADsK1xhK477771q9f31gbMDsI1EYAKlVt3NBLcAJQqQQPUJ3ME1ylqohCfHTfrp6emv89NRqfz6bi8Xgim70+SFQiVgF9fmr4YGzKSJvSTEmN7iBpSm3R4elsdmxXi6JsG7a3qchqNBKcwAc/+MGtW7dWkmU4NDQElUrwaMI8EAABSQmsXr16zZo1khoPs8UnsHbt2lWrVolvJywEAScBqFROJjgTAAJQqQIQRA9cCIJKpW2fp2UFVf2DFKga66Hr71hfS+UpJ2NjuRxr3R0zE5CcjXFGWgJQqaQNHQwHARAIDgGoVMGJpZCeQKUSMiwwqiICUKkqwoRGshGASiVbxPyxNwgqlQdk4qNPadlY/UOTxvq+kgPPxyeH+qNdHZEdgxOJkq1wQWoCUKmkDh+MBwEQCAYBqFTBiKOwXkClEjY0MGxJAjMzM9euXVuyGRqAgFwEoFLJFS+/rIVK5RdZjCs5AahUkgcQ5ldN4Ac/+AF2C6qaGjr4TOAx+vB5EgwfXgJ9fX2PPvpoeP2H5yAAAiAgGAGoVIIFpEHmQKVqEHhMKzoBqFSiRwj2eU0Ae/x5TRTjgQAIgAAIgAAIgAAIVEEAKlUVsALcFCpVgIML15ZDACrVcuihr4wEoFLJGDXYDAIgAAIgAAIgAAKBIQCVKjChXJYjUKmWhQ+dg0sAKlVwYwvP3AlApXLngrMgAAIgAAIgIB6BQ4cOPfzww+LZBYtAYFkEoFItC19gOkOlCkwo4Yi3BKBSecsTo4lP4MMf/vB3v/td8e2EhaEicIM+QuUynK0ngXg8fuPGjXrOiLlAwCsC2OPPK5IYRygCUKmECkfDjIFK1TD0mLhxBI4dO7bk5FCplkSEBiAAAiDgNwHs8ec34ZCPjz3+Qn4DSO0+VCqpwwfjSxGASlWKTLjOQ6UKV7zhLSVw7NixO+6444EHHijDAypVGTi4BAIgAAL1IQCVqj6cQzsLVKrQhj4AjkOlCkAQ4YKTAFQqJ5MwnoFKFcaow2dV/cQnPtHU1HT77beX0qqgUuE2AQEQAIGGE4BK1fAQBNsAqFTBjm+wvfvOd77zmc98Jtg+wrsQEoBKFcKgu7gMlcoFCk6FgMCxY8ea9IerVgWVKgR3AVwEARAQnQBUKtEjJLl9UKkkDyDMBwEQCBoBqFRBi2ht/kClqo0begWAAEun0qUqe14VVKoAhBguVEXg85///BNPPFFVFzQGAb8JnKYPv2fB+KElMDY29sorr4TWfTgOAiAAAqIRgEolWkQaYw9UqsZwx6wCEODTqZxaFVQqAUIEE+pKYMWKFV1dXXWdEpOBAAiAAAiAAAiAAAiAgE4AKpVOItw/q1Kp3vGOd3z0ox9V8ACBoBB43/veZ+hT/MHtt9/+3ve+d+vWrcUKHkNDQ01NTRcvXgz3ewm8l54AVCrpQwgHQAAEQAAEQAAEQEBmAlCpZI6ed7ZXq1J94AMf+P/xAIGgEHjPe97Di1P88Xvf+94NGzZUIFIVoVJ594aEkRpJACpVI+ljbhAAARAAARCohsB3vvOdO++8s5oeaAsCEhCASiVBkOpgYlUq1W233bZ9+/Y6WIUpQKAOBFxX/DU1NT3wwAOTk5NY8VeHEGAKoQjcc889AwMDQpkEY0BgiD7AAQR8IjA8PPzCCy/4NDiGBQFfCWzcuHHlypW+ToHBQaD+BKBS1Z+5iDNCpRIxKrCpLgT+/u//nk+eMvQpNjlUqroEAZOAAAiAQDkC2OOvHB1cWzYB7PG3bIQYoGEEoFI1DD0m9pMAVCo/6cozNlQqeWIFS70kYEukYvlT/ARQqXgaOAYBEACBhhCAStUQ7OGZFCpVeGIdPE+hUgUvpvBIVVWoVLgNCAGoVLgPwknASKRy6lMMCFSqcN4Y8BoEQEAoAlCphApH8IyBShW8mIbHo0OHDnV3d4fHX3gaEgJQqUIS6CXchEq1BCBcDiIBlkhVSp9iHkOlCmLk4VM5AoVCodxlXAOBRhCAStUI6iGa85//+Z9XrVoVIofhKgiAAAiITQAqldjxqZd1UKnqRRrzCETg2LFjk5OT5Q2CSlWeD64GjwD2+AteTOERCIAACIAACIAACEhEACqVRMHy0VSoVD7CxdAyE4BKJXP0YHstBKBS1UINfUAABEAABEAABEAABDwiAJXKI5CSDwOVSvIAwny/CECl8ossxhWVAFQqUSMDu0AABEAABEDATiCRSPzmN7+xn8VzEJCcAFQqyQPokflQqTwCiWGCRgAqVdAiCn+WIgCVailCuA4CIAACIAACohDAHn+iRAJ2eEoAKpWnOKUdDCqVtKGD4f4SgErlL1+MLh6B/fv3//znPxfPLlgUagLb6SPUCOC8nwS+973vffvb3/ZzBowNAn4RgErlF1mM21ACUKkail+YyaFSCRMKGCIWAahUYsUD1oAACISSAPb4C2XY6+f02rVrscdf/XBjJk8JQKXyFCcGE4UAVCpRItFYO6BSNZY/ZheWAFQqYUMDw0AABMJDACpVeGLdEE+hUjUEOyb1hABUKk8wYhDRCEClEi0ijbEHKlVjuGNW4QlApRI+RDAQBEAg+ASgUgU/xg31ECpVQ/Fj8mURePXVV2Ox2LKGQGcQEI8AVCrxYtIIi6BSNYI65pSAAFQqCYIEEz0l8NJLL124cMHTITEYCCyXwH/Qx3JHQX8QKEGgq6try5YtJS7iNAiAAAiAQL0JQKWqN3Ex54NKJWZcYFXDCUClangIYECdCWCPvzoDx3QgAAIgAAIgAAIgAAI8AahUPI3wHkOlCm/s4XlZAlCpyuLBxQASgEoVwKDCJRAAARAAARAAARCQhwBUKnli5aelUKn8pIuxJSYAlUri4MH0mghApaoJGzqBAAiAAAiAQAMIjI6OHjp0qAETY0oQ8JMAVCo/6cozNlQqeWIFS+tKACpVXXFjMgEIQKUSIAgwAQRAAARAAAQqIoA9/irChEayEYBKJVvE/LEXKpU/XDGq9ASgUkkfQjhQJYFr166lUqkqO6E5CPhLQKEPf+fA6CEm0NLS8vnPfz7EAOC6xASgUkkcPJhemgBUqtJswnQFKlWYog1fqyAAlaoKWGgKAiAAAv4QWL169Zo1a/wZG6OCgLp27dpVq1YBBAjISAAqlYxRg81LEoBKtSSiUDSAShWKMMPJ6glApaqeGXqAAAiAgMcEoFJ5DBTDWQlApbLywDOZCNx7770f+tCHZLIYtoJABQSgUlUAKQRNoFKFIMhwsRYCUKlqoYY+IAACIOApAahUnuLEYHYCUKnsRPAcBEAABBpKACpVQ/ELMzlUKmFCAUPEIgCVSqx4wBr/CXzzm998/vnn/Z8HM4BAFQQO0kcVHdAUBKoh8F//9V/79++vpgfaggAIgAAI+EgAKpWPcCUaGiqVRMGCqfUkAJWqnrQxlwgEsMefCFGADSAAAiAAAiAAAiAQWgJQqUIbeovjUKksOPAEBHQCUKl0EvgZFgJQqcISafgJAiAAAiAAAiAAAkISgEolZFjqbhRUqrojx4RyEIBKJUecYKV3BKBSeccSI4EACIAACICAvwR+/OMfd3R0+DsHRgeBuhOASlV35EJOCJVKyLDAqMYTgErV+BjAgvoS+Nu//dtHH320vnNiNhBYgsAF+liiES6DQK0EfvWrX7322mu19kY/EGgkgY0bN65cubKRFmBuEPCBAFQqH6BKOCRUKgmDBpPrQQAqVT0oYw4QAAEQKEsAe/yVxYOLyyWAPf6WSxD9G0cAKlXj2GNmHwlApfIRrkRDQ6WSKFgwtZ4EoFLVkzbmAgEQAAFXAlCpXLHgpFcEoFJ5RRLj1J8AVKr6M8eMdSAAlaoOkCWYAiqVBEGCiY0gAJWqEdQxJwiAAAhYCEClsuDAE68JQKXymijGqx+BXbt23X333fWbDzOBQF0IQKWqC2bhJ4FKJXyIYGBjCEClagx3zAoCIAACHAGoVBwMHHpPACqV90wxIgiAAAgsgwBUqmXAC1BXqFQBCiZc8ZIAVCovaWIsGQh8/OMf37VrlwyWwsYQEZikjxA5DFfrS+DXv/7166+/Xt85MRsIgAAIgEBJAlCpSqIJ1QWoVKEKN5ytnABUqspZoWUwCKxYsaKrqysYvsALEAABEAABEAABEAAB6QhApZIuZL4YDJXKF6wYVH4CUKnkjyE8qI4AVKrqeKE1CIAACIAACIAACICApwSgUnmKU9rBoFJJGzoY7i8BqFT+8sXo4hGASiVeTGARCIAACIAACLgT+MY3vvGxj33M/RrOgoC0BKBSSRs6Tw2HSuUpTgwWHAJQqYITS3hSGYFvfetbL774YmVt0QoE6kRgP33UaTJMEz4CBw8efOqpp8LnNzwOAoGNGzeuXLkyCJ7ABxDgCECl4mCE+BAqVYiDD9fLEYBKVY4OroEACIBAXQhgj7+6YA7vJNjjL7yxl99zqFTyxxAeuBCASuUCJYSnoFKFMOhwuRICUKkqoYQ2IAACIOArAahUvuLF4FCpcA/ISwAqlbyxg+VlCEClKgMnRJegUoUo2HC1GgJQqaqhhbYgAAIg4AsBqFS+YMWgOgGoVDoJ/JSPwEsvvdTX1yef3bAYBMoSgEpVFk9oLkKlCk2o4Wh1BKBSVccLreUncOXKlUQiIb8f8CBQBJqbm++6665AuQRnRCLwla985Ytf/KJIFsEWEAABEAg1AahUoQ6/4TxUKgMFDkCAJwCViqeB4zAQwB5/YYgyfAQBEAABEAABEAABYQlApRI2NHU1DCpVXXFjMnkIQKWSJ1aw1BsCUKm84YhRQAAEQAAEQAAEQAAEaiIAlaombIHrBJUqcCGFQ94QgErlDUeMIg8BqFTyxAqWggAIgAAIhJ3ApUuXzp07F3YK8D9wBKBSBS6kNTkElaombOgUfAJQqYIfY3hoJQCVysoDz0AABEAABEBAXALY40/c2MCyZRCASrUMeAHqCpUqQMGEK14SYCrV2xU8hoaGmpqaLl686OX0GAsE6k7g+PHjr7/+et2nxYQgUI5AJBL5xje+Ua4FroHAMgh0dnZ2dHQsYwB0BYGGEYBK1TD0mNhPAlCp/KQrz9hQqeSJFSytK4EPfvCDTdU8oFLVNTyYDARAIBwEVq9evWbNmnD4Ci8bQGDt2rWrVq1qwMSYEgSWTQAq1bIRYgARCUClEjEq9bcJKlX9mWNGKQh8v8oHVCopwgojQQAE5CIAlUqueElnLVQq6UIGgw0CUKkMFDgIEgGoVEGKZu2+QKWqnR16ggAIgAAIgAAI+EkAKpWfdDG2CpUKN4G8BC5fvjwxMSGv/bAcBFwJQKVyxRK6k1CpQhdyOLwMAufPn3/88cfn5+eXMQa6goCgBP7zP/9zbGxMUONgVlgJPPLII9FoNKzew2/fCXz/+99/+OGHfZ8GE4AACIAACFRGACpVZZyC3ipUKlX20lhsZGwqs7ygzmdT8Xg8lV3eKOgtJYGdO3c2NTVls4i+lOGD0eUJYI+/8nxwFQRAAARAAARAAARAwFcCUKl8xSvN4KFSqaYOdihKx8AbFUZnNKooyo5RR2vu/KXY8Lm4o4GqJiYGuntiCZcrtlPZRJw8JsdjI7HY0NiU7XKZp1Qro535/1JZZPmUgbbsS1Cplo0QA4hLACqVuLGBZSAAAiAAAiAAAiAQAgJQqUIQ5ApchEpVGhKnRlkaGedTw90titLS0TsWt2lDZ/e0KooSGZjSzmfHn+2JdnW0bWhj/1qaFbdHZOAKmYmqaW7XjXObBqZOEg3N8eA0uLINSkzBdbe4jCcaAahUuBUCTAAqVYCDC9dAAARAAAQCRuCFF17Ys2dPwJyCOyAAlQr3ACEgvEqVnT7e17mptYXqMS2tHZ29semyy61Gdzikm4pPRE/yd4WhRvEnVVXlz6cmnowQ2+7riV2zNJva36EoSutj4+zs5MGIJlFFunt29fTs6mxXFGVrH0mhOjvJsqFS+lJEujIxRi6NDEY3KG3RwdhIX0RRInvZyVjs9FT2+gRtoJ8ZicX2RiyZYkSlau8/x2VaDXUbDahK1T3MXYxzVy2e4AlH4Ac/+ME73/lOrPjjkOAwOAT++I//+IEHHgiOP/AkEATy9BEIV+CEiATm5+fz+byIlsEmEFiKAPb4W4oQrktJACqVlGHz3GixVarU6A6Sk6S0tHVGe3p2dXeso4JTW89o6cV08Vc54YYIPfTf4ShRhfRHy+Y9g8f1S0abkdjEdR4wr0bx58d6mhUlGjNOxU/vaW9ujZ5MGWfIwfzUvk1Ep7Kf1xqVGtwyhqpODWxSOg5OMWnMKqLZWqoqkaW4ZCjbU9XSgKpUUctqRmd7xww4AQIgAAIgAAL1JIA9/upJO4RzYY+/EAY9MC5DpQpMKOEITwAqFU8jvMciq1TZ491EVorsmzSSp+bjMapbGTlKFUQuO328p6NFaX3waIzkN3XsOz64bb3SsqkndsUYlxuGiDVuj00DetEoohwp5lPSN5txG2qiv725veekW+EqS0IWN7v9ECqVnQiegwAIgAAIhIcAVKrwxLohnkKlagh2TOoJAahUnmDEIKIRgEolWkQaY4/AKlV2+CGSRrXHtjF6Zniboijr9mhL6cpiy16J9WxqUZrbth2cSGn1nmi2UWJi4KE2kqPV3T9q06p+dZSuyNMX5d3bqT19alRXm6hKdV//+JWJ0ZHY8MG+nl093ZG2tg2tLXwqEzWM7QU3+UKPPqZxQFf8GYOTNYDav6O/UlV1+uiDXAWrdWxwpaVVO7nt+WkXv23JUFRua2nTupD1hmTdpJZsRXOpWlr1Olm2qy6D4xQIgAAIgAAI1J0AVKq6Iw/XhFCpwhXvYHn7zW9+8xOf+ESwfII3IKBCpcJNQAgIrFJN7Nvc1tIcjdkKk7MsJMW6Ws0ezGx8YrhnMykYxedMUWnGXBMXPzewrY2kTbVs7u4fmpjWy0Lpg3GL8jLjg7t6iBa1oa2NrTq0pltR/aijM9oXo+XP9RG0n1WVyqLL+qgQRjQsssixZXM3q2PV3qVpZ3QNoG0Sy4I+co2oVC0d2039q6ernahUl8hFiqK9c1dP99bItp20Dbta6QaIjtlxAgRAAARAAAS8JgCVymuiGM9CACqVBQeegAAIgECjCUClanQExJhfYJWqBKDrg5EyuVTxiaO9nW201nrLhu6Bs3F+JR6tSj42xatR89mp432dVKsictWDR7kkJU6lUsf3rFNILtOGto6uaOe9ZCFi38g4KXue4mcgNvOZU/uMBCy7N/zg9musHJWyY9StLhXpWJFKRcqrW53NpuLx1NThTrL74CQ5zl472tmiKG3R4StZlV7N2jVBp22hPvP888/fdddduVwu1BTgfEAJfPWrX3366acD6hzckpXAMfqQ1XrYLTyB48ePv/TSS8KbCQNBAARAICwEoFKFJdLl/ZRNpUrFokSCKl2XKn60s6Vlc8/wxCAtamVNeSr1bNO+8Ynhvq5I/1meVkkhieZGWZK5Uif7ooe18ll85pS7nEQmKTk4tYDmUhGVilRqjxya5qqnGyoVHcHukZ4plknx2/dxx9NHH1KU9XtG9VPTv4rt2dyi3Ns3rp9x6m48lJAf79y5s6mpCXv8hfw2CKr7K1as6OrqCqp38AsEQAAEQAAEQAAEQEBwAlCpBA9QncyTS6WaOkjyqJT10TJ7/OngqIiztU/b44/byM96ZjC6wV4K3TICkYpImtH0pWkjaYoul+s8qtepUi8NRJodVr0xQEq1k+352CM7dZrfVbCPeGI1b+ySOQMp0L5jVI0f7VSUntOaqkUXA1pUqrbooOnO3oi17JRdwar0OXVZNxs/LQSgUllw4ImcBHp7e7vdHu9617v+4R/+we1Kt5yOwmoQAAEQAAEQAAEQAAGZCEClkila/tkqkUo19fy2VkVRmiOsstJSTKhKtbTgQrOWrBv2MVVqYpQKSS2tpOY4mbfHKOMef75TUdr30QJPamI0ut7NKrtKRScqKxRxkpaWSxU/HFEUJocRd1q7B2IjxCra0pCrdBL8Ej+3XKrpc/vI+r710djZfR2K0tK5b/yKkUDFHTjWMOoT4KcKlQo3QQAI9Pb2NjU1/S/H45304Tj9v+65554AeA0XQAAEQAAEQCBIBHbu3PnlL385SB7BFxBQVVRPx11ACUiiUqUmnqBZVM2Rfdq6uiXjR1Uqt030jN306AEpT65wKtX4Y0yU0vWkltZId0/fweHRCa7E1ekeRVGiI6qaGNtzH1mAGD2ZshvkqlJxE1nauzZ+MEr0r+4YzbDKjj9Ba7eTnQRLqFSWEbknmemJ4wM9XbRaV1t0+Bq5lBrb095Mqqv3HB63FOri+uHQSeCZZ5658847UZfKSQZnJCLAVKr/+Z//KVbw+MhHPgKVSqLgBs/U0dHRl19+OXh+wSNBCLzyyiunTp0SxBiYAQJVEdi4cePKlSur6oLGICA+AeRSiR+jelgogUo1Pz0cpeXN1287ytKXKgJDVSpa75xszFf6X0uzRaWKD3V3dEWpLEUrW7lmY9GFeG3RPd0ki6qtxylRqarqKjxVpVJt7e5e394/YfPWSKEyDmwNVHV+enwkNnywj2xKqGWCKS0bOvuGJuN8cfT4+OCODuI+rQvfFunW9LtHByf4AvOO4XECBEBAagJQqaQOX9iMxx5/YYt4nf3FHn91Bo7pPCQAlcpDmBhKHAJQqcSJRSMtEV2lmp8a2EqTm+7bM5aoChRVqVw1Jsswriv+WIsyI0z0b6DJVs2R/lcdWVSs9/JVqh2jKi8qaWYb4pRxwPnD2s9P9JNdCBVlHdmRsP/w6MQ1o+IV15gdZlOTZ4cHersjG9qYYlW6Mr2jL06AAAhISAAqlYRBC6/JUKnCG/u6eA6Vqi6YMYkvBKBS+YIVgzaaAFSqRkdAjPmFVqnmpwboOr+WrQOVrvMzqVKNafswV2/J9XC8/z5LLpU5QKlt+LJ6bpfS2neOa66m4tc5MchVpbqv39xKjzfnXH+7pdT6EkWs3OtS0QSuyIbOfWezaiaVOhalSpX9P1qCXaUF4O2XaPF17F/HxxTHIBBAAlCpAhjU4LoElSq4sRXCM6hUQoQBRtRE4Mknn4xEIjV1RScQEJcAVCpxY1NPy0RWqab2dxAdJTIw5ZJStCQkqlI5dRjXM+4L8egIlmys7PTxng6a2tW+lfxsf3LStGM+FlWUlsf0GuuuKpXr7PpJe/V0d4ltuLtMXaqJ/jZF2XaMimUno4rS3n+OE8OGukk5rZPEZKpSdVs0PHK1Y+AN0yEcgQAIBJIAVKpAhjWoTkGlCmpkBfELKpUggYAZIAACIMAIQKXCnUAIiKtSZWLdtGSSss61qlSfrgapozuIzMNJPCyyVGPa2hcbiZX9NxjdUEkuVTZ+dqB7AxWo2rYNnIur6iRZVbcuOmqUcLq0r11RIoem6fTZyf0kDax9/5R+n9H0qKpyqSwCmT4MzfAqmUs1QoSyPWdpY6JSWVUncoZXqaKjxqiqqjrb81dxTAk89thj73vf+5BvhttBagJQqaQOX9iMT9BH2LyGv3UjkEgkZmZm6jYdJgIBEAABEChPACpVeT5huSquSkX30dPTjJw/TYWlhEoVnxiJxV6NLxXI7NTpWOz0FLdUz+hh5FJlx3tp+fbmtm0Hx40C5NmT0RZFad0xqhWmMhWi1Nhj7aQkeUuL0ty+57RmQzYRjyfc5lFVdT6bisdThuClUkmrglyqlsfGDXNVVZ14ok1ROo+yCZ2qE1QqHlZNxzt37mxqaoJKVRM8dBKFAFQqUSIBO0AABEAABEAABEAABDgCUKk4GCE+FFelqi0o8dF9u3q0vepqOHhqNE4Fo3gim70+uE1RFJbQND81fDA2ZapIzLjU6I5WRVHaosPT2ezYrhZF2TacyY7tIpJW645YPKvX1drc3X84FhsZn+SW31kPpydGtZyvietkQd7AJqcwZ56huVTTpGhXc3sPGZn+O9zT3qwo9/ZrqxCpJmX20Y+4FX/6KfOnNfeqthAEuhdUqkCHNyzOQaUKS6ThJwiAAAiAQHAJ5PP5XC4XXP/gWUgJQKUKaeBtbgdNpaLVoEzVpdojUqBqrIetNKR9LZWnbOxIDpS+BSGbqDuWVdXxx1rNWlrz07Hezja6UrAyWyKDhkq1RC6Vmj3bz4pkmSO3dPSN6XsOEpWqLfqsrmGNxGJ7ySJETqWK9PHLIclVqFTOGFvOQKWy4MATOQlApZIzbrAaBEAABEAABEwC2OPPZIGjABGAShWgYC7DlaCpVMtAoXeNjz6lZWNDvZZbAAAgAElEQVT1D00a6/v0q46f8/HJof5oV0dkx+BEgl69PjnJDri2ZLmf/TE5zotE7Hh0kopM1IYXuNLs5lCTR3f17Bs1VjKSpYL6I2VZT/iroz27uIaqqpIzPUd/RcaKj+7r2XXUMoGzvTkpjjQCZ86c2blz5/x8LfX8AREEBCEAlUqQQMCMSgg8+uije/bsqaQl2oBADQR+9KMf/eAHP6ihI7qAQMMJQKVqeAhggB8EoFL5QVW+MaFSyRczWAwCIAACyyAAlWoZ8NC13gSwx1+9iYdsPuzxF7KAB8pdqFSBCiec0QlApdJJhPsnVKpwxx/egwAIhI4AVKrQhVxmh6FSyRw9CWyHSiVBkGBiCQJQqUqAwWm5CUClkjt+XlkPlcorkhgHBEAABKQgAJVKijDBSEYAKhXuBF8JQKXyFS8G95XA6dOnBwcHfZ0Cg4NA/QlApao/cxFnhEolYlRgk6gEpqenX3nllUKhIKqBsCuMBI4dO/bAAw9U7jlUqspZoWXDCdx7773t7e0NNwMGBJXApk2b7rnnnqB6B79AAARAQDoCUKmkC5kvBkOl8gUrBg0oAezxF9DAyu3W5OTkHfRRoVYFlUrueMN6EAABEAABEAABEAgoAahUAQ1slW5BpaoSGJqHmgBUqlCHX2DnH3/88Sb6+MAHPrCkVgWVSuBIwjQQAAEQAAEQAAEQCC8BqFThjT3vOVQqngaOQaA8AahU5fngaqMITE5OfuADH3jnO99ZiVYFlapRYcK8IAACIAACIOAVgfHx8eHhYa9GwzggIAgBqFSCBKLBZkClanAAML1UBKBSSRWucBlrpFMxoaqpqalUXhVUqnDdGfAWBEAABEAgiASwx18QowqfVKhUuAkIgWpVqq1bt07iAQJhJXDmzJmhoaHXX389rADgt7gEYrHY7bff/q53vctQqUrlVUGlwq9/iQisX7/+a1/7mkQGw1S5CGzYsGHdunVy2QxrQYARgEqFOyGQBKBSBTKsVTtVlUr1jne8w/b9B09BAARAAATEJ3DHHXc8/vjj7DcEVKqqf1OiQ+MIrF69es2aNY2bHzMHnMDatWtXrVoVcCfhXkAJQKUKaGDD7hZUqrDfAcz/qlSq2267TVGUx/EAARAAARAQj8CHPvQhV73sjjvuOHbsmPE7DyqVgQIH4hOASiV+jKS2ECqV1OELufFQqUJ+AwTVfahUQY1sdX5Vq1Jt3769ugnQGgRAAARAwH8CzrpUTU1NNn2KWQGVyv9oYAbPCECl8gwlBnIjAJXKjQrOyUEgnU7H43E5bIWVIFAxAahUFaMKdEOoVIEOL5zzmMDLL7/8ne98J5/PezwuhgOBZRP4xCc+wSdSuepTbBKoVMuGjQHqR2Dv3r3GYtX6zYqZQkOgv7+/t7c3NO7CURAAARAQnQBUKtEjVB/7oFLVhzNmCQYB7PEXjDgGzws+kaqMPsUch0oVvBsAHoEACIAACIAACIBAAAhApQpAED1wASqVBxAxRGgIQKUKTaglc5QlUi2pTzGvoFJJFl2YCwIgAAIgAAIgAALhIACVKhxxXspLqFRLEcJ1EDAJQKUyWeBIGAKPP/54hfoUMxkqlTChgyEgAAIgAAIgUCOBAwcOPPjggzV2RjcQEJUAVCpRI1Nfu6BS1Zc3ZpObwN69e//0T/80m83K7QasDzcBqFThjr9k3l+jD8mMhrnyELh27dr09LQ89sJSEDAJYI8/kwWOAkQAKlWAgrkMV6BSLQMeuoIACICAfASgUskXsxBbjD3+Qhz8eriOPf7qQRlz+EMAKpU/XDFqgwlApWpwAASZHiqVIIGAGSAAAiBQHwJQqerDGbN4QgAqlScYMUgpAlCpSpHBefEJQKUSP0awsAYCUKlqgBbALlCpAhhUuAQCIAACpQlApSrNBleEIwCVSriQBMsgqFTBime4vNm+ffvnPve5cPkMb0NAACpVCIJcgYtQqSqAhCYgAAIgEBwCUKmCE8sQeAKVKgRBbqSLUKkaSR9zgwAIgICDAFQqB5JQnoBKFcqww+kaCRw8eHDVqlW5XK7G/uhWBwJXhvv6hi+XnejMwA72ePrnZduVv7jERGee1ibZsWPH02fKD1Xfq1Cp6ssbsy2LwFn6WNYQ6AwCpQmMj4+fOSPUO3RpW3EFBEAABEJAACpVCIJcgYtQqSqAhCYgoBHYuXNnU1MT9vgT+oa4cubpvh19L+k61c85sUiXjYyrl6+wZryipDcq8dPoq1omco7gVKacbYw5nh5+qc94wg5MBc3pwgD5TmVobUZHs0vZCEGlKosHF0EABEAABEAABEAABBpDACpVY7iLNitUKtEiAntEJgCVSuTomLZdGe7bsUOTbH7+9I6lUqtUlehHFUg8l4d5/UtVVX4ic3r18kt95SbVkrDOPF0yx8pqD1GpTM2LiFO6SmVKZpW6QKyESsXFCocgAAIgAAIgAAIgAAKiEIBKJUokGmsHVKrG8sfschGASiVLvIhORKUc1VeVSqWCFJuIQwOVioOBQxAAARAAARAAAe8JPPjgg5/+9Ke9HxcjgkBDCUClaih+YSaHSiVMKGCIBASGhoa+9rWv5fN5CWyFiYyAzyoVnYTkWC31IMlQRL1yfdh1LmculbWbnktlPVtJOhixF7lUeHFIROC55557/vnnJTIYpspF4IUXXjh8+LBcNsNaEGAENm7cuHLlStAAgYARgEoVsIDW6A5UqhrBoRsIgIAUBJxFnQxpx1wJyKlCdBGf0UQ70Fo6VvyVIFAql0o7b13xZ6zg4wbj7FFVkg5WZsXflcu0tpa1CzeW8xAqlZMJzghLAHv8CRuaYBgm6x5/hfncXCadSiYSqUwhGKGAF1UTgEpVNTJ0kIEAVCoZouS/jVCp/GeMGUAABOpFwNSk9EJOJXKprNoQJ/EQlapv+IppMCc5cSqVcyKzR8m6VDWqVNzI2iExkjmopXFxBaqcre1noFLZieC5wASgUgkcnCCYJqtKlZtNzmiP5Ox8ECIBH6onAJWqemboIQEBqFQSBKkOJkKlqgNkTAECIFBXAlzyEROGzhhlqpgddimqepWKjcNNxDvICVv8aV29+vnTtGaWVj1d08tM2UvL39Kqubvmdtlzvbjn9sWDFgPYE6hULlBwSlQCUKlEjUxA7JJVpVLnTZkqMZsLSDTgRnUEnn322Wg0Wl0ftAYB4QlApRI+RHUxECpVXTBjkoAQyOfzmUwmIM4E2A1OPGIa0OUrw08TJYfLP7KoOV6oVKXlJCPRialXwwM76JkzZPfBKyqnUun5X2U37CPtdzx9hvhoyfmqPJ5QqSpnhZYNJ3DnnXeuXbu24WbAgKAS+MIXvrB69WoZveNlqnRWRg9gMwiAAAi4EIBK5QIlhKegUoUw6HC5ZgLY469mdHXtaKpURH4yRCKq77C0I0MPYnZ5pVLZhiWDn9E0KXJMVCqbWMbMGThjKz7lhosYSR7WclpEsvq5W/PS56BSlWaDKyAAAiAgCQHIVJIECmaCAAhURQAqVVW4AtsYKlVgQwvHfCAAlcoHqD4MaahUjoQjTaiyJFIRKYnUJ2daj2tKVKnq6cZEqqqSjhWoVKbGpDnulktlMuGUNd1C8yI3AhOwduygawkdLawnoFJZeeAZCIAACMhIIM8t+kshm0rGEMJmEAABJwGoVE4mYTwDlSqMUYfPtRKASlUrufr208QjmnxkCFKa/MTWyvEZSU6VyrKSjisyxVVPZw7VoFIZchJ/4JJLpa0HJPOQWawP6hQvYLHLFSZVQaWq7+2I2UAABEDAFwKcTDWTmjOmyGZm5/LY+M/gEdyD3/72t2+88UZw/YNnISUAlSqkgbe5DZXKBgRPQaAMAahUZeAIdImJR1fOPN1Hk5uM9Ci7YmWoUVwuVTk3llSprFqS/sxYcsgJXuY07rlUxGbdPF4Lo0sIWcKU1lEbqUIXSGuoVCZ9HIEACICAvASy6YS+058hU+nSVSKVyUGqkje2lViOPf4qoYQ20hGASiVdyHwxGCqVL1gxaEAJvPbaawcOHJifx67PAgdY06R0iYeu5nNbB0eSlZ7++WXqSYUSj1Wl0sUvbqmgdyv+yOD6aFCpBL7dYJrfBB566KFvf/vbfs+C8UNL4OGHH37ggQckcL8wn81mHR8+silNpkok05m8qqqFuZShW83MzECqkiC0tZsIlap2dugpMAGoVAIHp46mQaWqI2xMBQIg4DMBujiO5C7RgwpXwLG6VHrm0xI/tcQo60RGtlR59/Tq6Y4pBs7QslaGskbrrBsVrOhclj5Y8VceNK4GiMDq1avXrFkTIIfgilgE1q5du2rVKrFsslmTz6SSTItKzOZs19Rcdi43b6RMFfjkKkOtSqRms1gBaCcXhOdQqYIQRfjgIACVyoEklCegUoUy7HAaBIJK4MzTxrI+lkVlUXecT1i+Ug25VFVORCWnciv+VJKoxT9MiY2oVHpeFVb8BfXOhV8lCEClKgEGp70hIIFKNZ9J6oJTIl22SHqOK6ee1JQtvetMMo1iVd7cM+KMApVKnFjAEg8JQKXyEKbEQ0Glkjh4MB0EQAAEqieAulTVM0OPhhGAStUw9OGYWAKVSi1kzFV8qYyROGUPUN5Us2ZScwVVLeTm0obARdWqBKQqOzWpn7/22mujo6NSuwDjQcBJACqVk0kYz0ClCmPU4XOtBF5//fVnn30Wdalq5Yd+QhCASiVEGGBEZQS6urq+9a1vVdYWrUCgagIPPfTQf/zHf1Tdrc4duGJTyVlHcSpqDF+QKjlLSlSxRyFvl6pQrEpng58gAAIiEoBKJWJU6m+TryrVtWvX6u8RZgQB/whgjz//2GLkuhGASlU31JgIBEAABLwgwNWbcilOpaoq38C5LJBKVeZ2gCSvCnXVvYgLxgABEPCeAFQq75nKOKJPKtXk5OSRI0fOnTsnIxPYDAKlCEClKkUG5yUiAJVKomDBVBAAARBYUoXiC1LRxX6uzAq5jL4loFatKpHKZM3a666dcBIEQAAE6ksAKlV9eYs6m+cq1eTk5ODg4IEDBwYHB0V1GnaBQI0EoFLVCA7dRCIAlUqkaMAWEAABEKiAAJcsNWMrTsWVV59JZdwXBBozuEhVKFZl0JHsYGRkZN++fZIZDXNBYCkCUKmWIhSO6x6qVIY+dYA+kEgVjjsoXF5CpQpXvAPqLVSqgAYWboEACASYQG7WXLKX5LSoAqdfcQWpCrlszq3Qen4ubY5jbAA4gy0AZbx1sMefjFGDzUsSgEq1JKJQNPBEpbLpU0ikCsWtE0on5+bmZmZmQuk6nA4OAahUwYllCDz5/Oc//4UvfCEEjsLFxhD413/91zvvvLMxc1c5a06TlxLJ1OxcTu/MaVQJsyCVJl0lkrNzeVOrKuRmk1aJKmF7msq4Slv6ZPgpFgGoVGLFA9Z4RAAqlUcgJR9mmSqVU59CIpXkdwTMBwEQCDgBqFQBD3Cw3Fu9evWaNWuC5RO8EYjA2rVrV61aJZBBZUzJZ+eynOZEWuZnk3o+VCKVNfQork7VjJ4mZU+iSqSJgIW66mWAC38JKpXwIYKBtRCASlULteD1qVmlKqVPHThw4ODBg8N4gAAIgAAICEbgN7/5jaqqUKmC96s8wB5BpQpwcEVwTSaVysGLL0jFLQLkT+salvUnqUTFj+ZSrAp11XlAgh7ff//9f/EXfyGocTALBGolAJWqVnLB6ueHSnXgwIGf/vSnMTxAAARAAAREIgCVKli/wEPhDVSqUIS5cU6KrlIVsnNWQclEVciaO/YlZ40lgIW5lCFJJWwL/GZmZhLJUov6nFIVilWZtHEEAiBQLwJQqepFWux5alapmFuuGVUHDx5E6XSxww7raiRw7Nix9vb2fN7yN8gax0I3EGgQAeRSNQg8pq2FwDPPPPPss8/W0hN9QKACAocPHz506FAFDRvRpJDPkAV9XJqUaQVfNJ0rSKVydapoLXWn9pQoV3yqkMukLdKW6+SmGTgCARAAAY8JQKXyGKikwy1TpWJeu2pVqVRKUiYwGwRKEcAef6XI4LxEBKBSSRQsmAoCIBBWAkyionlRyYz9j2OcGJVImwWpuDpVXHqVS/WpRGrWXuPK5EyLVbGJzRwt8zKOQAAEQMBHAlCpfIQr0dCeqFTMX5tWhXQqiW4DmFohAahUFYJCM5EJQKUSOTqwDQRAAARUlU+VmpnhhShCh9Oo+EwrriCVvYeqMqnKWAxIDhKkPpVRct2GvZCfm80w/SufSZXLv7J1xFMQAAEQWA4BqFTLoRecvh6qVAwKr1UhnSo4Nwo8oQSgUuFGCAABqFQBCCJcAAEQCC6B8hKV5SqXZWU5PzPjvrCPaE+WFX36FoClaRraV1lRq3R/XPGNQG9v77333uvb8BgYBBpDACpVY7iLNqvnKhVzcHJy8siRI0inEi3csGeZBPbv3//xj388lzOqlC5zPHQHgQYQgErVAOiYslYCr9JHrb3RDwSWIPDLX/7yF7/4xRKN6nq5kJ0lxai0R4KToagZFi2Kv8jnV+m9iVSVnXdmS1VRrIqv0U6HLZd/VVdQmEzduHHjypUrAQIEAkYAKlXAAlqjOz6pVMyaycnJGs1CNxAAARAAAX8IQKXyhytG9YUA9vjzBSsG1QkItsefVi9dV5l4FYpazNWqIlXVzWpVXEGqRCptbv5XRlhySlX8gDogtTCfzdjGo0sFc07xy+iDg/oQgEpVH86Ypc4EoFLVGbig0/mqUgnqM8wCARAAgRATgEoV4uDL5zpUKvliJpXFQqlUFg2KiFBWIciSRjWTmjOvGovyyEI/et5FgnKtQVWYMxWoVGa+ZOyc45VaU1hyCFzwnABUKs+RYkARCEClEiEKjbcBKlXjYwALQAAEQKCOBKBS1RE2plouAahUyyWI/mUJiKNS2SSqWXPjPuaA5bqlODq/KC/JK010r76EnphFftqLVXHLBJOzZmZWCWSQqkqAadTpH/7wh21tbY2aHfOCgE8EoFL5BFayYaFSSRYwmAsCIAACyyMAlWp5/NC7rgSgUtUVd/gmE0SlskhQji39VNV63boyL2fWsUqknWUzqVTFK1WmVMUvE0xnKwm+NZ3LGBV11SuBhzYgAAIVEYBKVRGmwDeCShX4EMNBDwk88cQTf/Znf5bNVvRhzsN5MRQIeEgAKpWHMDGU3wSmpqbeeOMNv2fB+KEl8MYbb0xNTTXWfasEZUmTIobZalXZrnNKE02WKlHc3JEGlUjNcupWyp655UakhESla1WcVFWYdynZ7jYkzoEACICAnQBUKjuRcD6HShXOuMPr2gjs3LmzqakJKlVt9NBLEAJQqQQJBMwAARAAAatEZamITuDk59KWJXvWNCpV5Zbs6WrRzMxMMj3nVtzcIVVpXSzLBEuEJM8VsCIzZPJuddXpSEw4KyGXlRgep0EABEBAIwCVCrcCIQCVCvcBCFROACpV5azQUlgCUKmEDQ0MAwEQCBMBW5aUXaLKz6WTnPRk3dTP4KQVn0qmZ8066LSXvQaV1oNKVbzylZx1LhM0RqcHBW5RIRnaIpVx0hcdqTCXMo2GVGUliWcgAAJLE4BKtTSjMLSAShWGKMNHrwhApfKKJMZpIAGoVA2Ej6lBAARAwCDAJyglZ7n0J0760SSfhEUaMkbQDgoFuuFfITeXTvIKlFmDytKDWyaYWKIgVSGfsahfiVTGpco6sTeZpssGs+ZCQt30VIZzzWIIniyLwObNmz/60Y8uawh0BgHxCEClEi8mjbAIKlUjqGNOWQmcPHmyq6srn3f5iCarS7A7fASgUoUv5hJ7/J/0IbEDMF1sAvv27XviiScaaCNb8WcUmyrk5uw5UWRrPiYAuZhJ5SFrNpRLufTk7Fyeylh0BD7bKTVnnncMT0ayaF5Jx86Djj7khJbeZaZUuewu6NoRJ6sjsHHjxpUrV1bXB61BQHgCUKmED1FdDIRKVRfMmAQEQAAERCEAlUqUSMCOCghgj78KIKFJ7QQE2OOvkMsZqUZZS94SlXkSaV5hMj215E1ZK0vZFuhpapG2+o6vgV4mP8ueQ0Wysjily7TDeVSgmV2F+aw1C4tIVVa5zNkVZ6oiAJWqKlxoLAsBqFSyRMpfO6FS+csXo4MACICAYASgUgkWEJhTjgBUqnJ0cG3ZBARQqSw+8EWdiKjjsvcelX+s6/potpU+znzGqGaVSKZtslcyZfa0pmDp3bVUKEsi1IxlOaLZ0u2IqmAJvSiWc+kire1eod7lNj7OmQSgUpkscBQgAlCpAhTMZbgClWoZ8NAVBEAABOQjAJVKvpiF2GKoVCEOfj1cF02lmteqOiVSmey8dTEeUafSSVNkMnSkBL+ln3M5n5tQVGoVoXO1YLnlhi4B4qc3Sl65WEBshlTlArCqU8ePH+/v76+qCxqDgPgEoFKJH6N6WAiVqh6UMUdQCMzMzLz++utaldKgOAU/wkagKpXqL//yL++5556wIYK/4hBYt27dV77yFXHsgSUBI7B+/frm5maBnMrOZeaMBYCGXVlrfShdoCIr6KyNuYbJWa6GZiGXsW4YaC9IxRboWapQ6bOQlXqVaUpcGpdtJ0AUqzJiiQMQAIHyBKBSlecTlqtQqcISafjpBQHs8ecFRYzRYAJVqVQf+chHoFI1OGCYHgRAIOwECpmUqRnRAk/OXCtVVcvv3VdKwVJV7oplGuuTpaQqVghe62NXwVgEXXO1sAVg2G9v+A8CFgJQqSw4QvsEKlVoQw/HayAAlaoGaOgiGgGoVKJFBPaAAAiAwBIENCEpkUw7lgLqPblMpoQuEhXyuXw+l5vL5gqqsfDOUZDKrGRl0aWS6eycNQOLZlVZs7f02XmNqvSehKS1S131RCqrj4OfIAACIScAlSrkN4DmPlQq3AcgUDkBqFSVs0JLYQlApRI2NDAMBEAABEoQyOdytkJV1oYFbn9AY8s/I0mKrxGVcZRkN2q2J1Mps/R6mrVzyX8itdGts1euUWn9+A4zZfYatE6DZxYCr7/++tjYmOUUnoCA/ASgUskfQy88gErlBUWMERYCUKnCEulA+wmVKtDhhXMgAAKBJ5BNJ+277uW0suszMzNcQaqCkSWVnJ0vjSU3m0ymM7lCYc7cElDPxmK9bFKV9SK/0nCmfB6VZgNnbWUdStse5ivY4y/M0Q+w71CpAhzcKlyDSlUFLDQNPYHLly+PjIygenrobwS5AUClkjt+IbN+06ZNHR0dIXMa7taPQCQSaW9vr998nsykZ0iRlCa2D2DJglRmglVqbsm5Oe2IU7q0bvqkRAbLWBQvrhuRnJacpsANBY1qSVxlGkClKgMHl+QlAJVK3th5aTlUKi9pYiwQAAEQEJ4AVCrhQwQDTQKrV69es2aN+RxHIOApgbVr165atcrTIX0fjBd5yP57ySS3NV/JLKeyyVTEZk7pchSuKnORt8bZzwmjao2qMJ/PzmVm0ynHMkPn4CE7A5UqZAEPi7tQqcIS6fJ+QqUqzwdXQQAEQCBgBJhKFansgT3+AhZ96dyBSiVdyOQyWEaVSrUtv+MqntuynFRVNZb8LZHlVDBqU7mkN5W8aJGcnPlXznuBG8myNNHZ0jhjpoNVMoHRLQwHUKnCEOUQ+giVKoRBd3EZKpULFJwCARAAgeAS6O3t/VA1j3vuuSe4MOCZ6ASgUokeIcntk1KlosydUpVrRSgz1SmZKR0rXm1yKF18XXZLqhbfq6IK6LWVTM+kdB1uyXyw0h4G8sq1a9cmJycD6RqcCjMBqFRhjr7pO1QqkwWOQGApAuPj4z/84Q/n5y0VGZbqhOsgIAeBvXv3vvLKK3LYCitDQ2Dnzp09PT2hcReO1pvA7t27v/e979V7Vu/mK+TmMul0Kj07p1Wosg89b1RVL5NMxVWWcuYrlbpo0agSs7ZN/+x2kCWFRl6Xs7aVS3PjlOmCvSKW0QQHIAACwSEAlSo4sVyOJ1CplkMPfcNGAHv8hS3iofJ3xYoVXV1doXIZzoIACIBAwAmY0lCpZKp5s4lTyeKkJWvVKe4CS3VKJGfn8qyYuxtSTuxyWVPo1sM4Z+aDzZTywWiLAxAAAdkJQKWSPYLe2A+VyhuOGCUcBKBShSPOIfUSKlVIAw+3QQAEAkzAlHisKpPuMlcpKmFZz0caWC5m7RJUIZdJcYXbqViVTLtJVda8q7RjJN0YMmU241C7zJpZMxXsIcgNhkMQAAH5CEClki9mflgMlcoPqhgzqASgUgU1svBLVVWoVLgNQAAEQCBoBEyVypkopaqqedllOV3ZixqoQi6TTuqFo7SfNqnKrlGVQ6ynXCVSGXMNI7fmL5FeemlhufEDde3IkSNYEB2oiMIZSgAqFW4EQgAqFe4DEKicwKOPPvrud787m81W3gUtQUAWArfffvtDDz0ki7WwMyQEMvQREmfhZv0JBP8Gm88kEzOJZDKZSs85BJ68UbVqxplppQtGpIrUbL5sbJyl3GdmdJ2Jy8eaWarGOmePxaBs2tDBuArq2XQiYRPEyloZuIvY4y9wIYVDhABUKtwHhABUKtwHIAACIAACIAACYhLAHn9ixiUwVsm7x58HIeAKUs0kM7b1fNxFmoRVyGa47Ca32alUZVsBmEiluESrZKas2MXrWdbEr0ImlSA62+xcNj+vGcopWmGVqqBSud2HOCc9AahU0ofQEwegUnmCEYOAAAiAAAiAAAh4TgAqledIMSBPIMQqlWUdHklV4vOSOMEoQctIaYlVfBueo3nsVqyKJUI5ql6ZnciRxZ4l2lqXKrLhk+lS+xxa5wnQM6hUAQomXDEJQKUyWYT5KOAqVXysb8fA1HyYIwzfQQAEQAAEQEBWAlCpZI2cJHaHV6Xiak4Zq+nIAc1L4i4mM/OqyuUtGW3KRdhNqloi4YlbX1hyXWAhn8/l5jKZDF27WG6ZYTnjgnOtq6vr7/7u74LjDzwBAUoAKrhlO5AAACAASURBVBVuBEIg2CrV1KGIoihKRBeq3hjoIM+XfHQMvGHcHlMDm5Zs72iwY9TojwMQAAEQAAEQAIHaCEClqo0belVIIKwqFSc7JWezWedefZpypVWrKuTm3Eqkm/XN3XC71FUvmYrFrS+0FKSyjmuIZ+Z6QPdlhkusTbSOimcgAAJCEYBKJVQ4GmaMRCpV/NxgNNLaQhWhlrZIz9BkqgJsUweJUNX64FGSUUVVqpbN3T27ekr9697coigOlWpdR7e9S2e7oij3djrGoecNlYrpYpsGptxNHY0Sd/jp3Nt5c/Yknc2wzfbUmzkCPsrhw4f/5V/+JZdzFCANuN9wLxQEWlpa9u3bFwpX4aQ8BGL0IY+9sFQyAv/93/99/PhxyYxevrlm4hJbz0cW3OWcUpUpBpEpa8pdclORHIXaufWFM4ZBbl5m9CJXXA11aprT+JKCmNu4OAcCICAOAahU4sSikZbIolIxsUlpbuno7unZ1d2xjqg7rTtGKxCqUqM7WokUdGiKqVQdBznJiCo10ZNmCKYOdlhlI5pL5SIzUYHJUHzMAaznoVKZZIJwtHPnzqamJuzxF4RYwgcHgRUrVnR1dTlO4wQIgAAIgEDgCNBMp4St/lMhZ+hAMzMztosUgZvqpO/mV5JRwVTFyJpCew11I0WqxJzmuGbL1Jx5Vjty09mWWGboGAMnQAAEGk4AKlXDQyCEAXKoVEzrWReNxXVo81MDdDFf9/Gsfqr0z/mp2NAE0bPoOFCpNFLIpSp9y5S6ApWqFBmcDwABqFQBCCJcAAEQAIFlEDBlIKeYxA3rIgglkrNzeds+gVqPwlzK3PrPoVFxiw9nkrO2TQAL2cwsv3zPENESafesdlfLwldXnYsVDkFANgJQqWSLmD/2SqFSpY5F29paInwOlKqqZ/eQ1X8PDVcgU+nsDJWKCTT2clJk5R1yqXRY+OlCACqVCxScCgoBqFRBiST8AAEQAIFaCHCCkWNVnnM8F0GI1V63NeWUL6cMVb4glZ6DZWRrmWMlM7ZpuKc1JXxx/WU5jEajX/rSl2SxFnaCQIUEoFJVCCrgzaRQqdxjcGkfqQzlshaPNs9MjY3EYuzf6SlNyTJUqusT2qW9JCMrspe1HJvKlFCpNkQHjdG0gz7Sc2ufNo55lZ43VgKyLLBSRqpudamy07Hezo42VoBLUda1RXYMjhtJZKphYXb6eE+ENWtuae/qi12zcpqPjx/sbqdLI5V1HT0j06otecr2lPTOTo8OWIp/HZ+2iIAawImJg9vamhWluaV9+/C0ddpgPzt8+PAXvvAF1KUKdpRD611LS8tTTz0VWvfhuJgERuhDTNtgVQAInDx58sSJEwFwxBMXjOpOZYtDWaZaskS6LjTRvQFnbQlQ/4+9d3+O4zrvN+FE+briKlY5VbGrXJWwUiqXc1nn66ztzVraLOU42s1l1UYWYRZWYFOmVIJj+ILAMpTAciAWEco0RUgR5BIpcCSLlAlJBE2DpiBRIAXKNGQJNiFSoChhunump2em+0/wr9465/TlnL7M9Ax6evryeYtF9PTlXJ4zkqiH73nbcK1T2bv70DR5g1Uul4mqcj2aWDOLG5NR12rkz65dldHi2snA4V133bVz584MDBRDBIFOCMBSdUIrv/dm11LRpCdp6NBq8OIwPcSypRxJ5Fgq5xlqatrXpfJmXbX73LWlkpen7ySN2yXep6x68XfOrNh/aUQnvndyaq8kDY1MTM8cmB7fQ5XW4PjCDXti9o5IidZ9n54gNmtsjL7h0Bmb11KpK4eI92tV/IsCHLpz2LpnanT06LrdJX6CAAiAAAiAQMwE8I6/mIGiOZFAUd/xJ1LgP5HX+VX14K17/H38cVDuEiscxTsqv1fiHFVZ1Zp8k6bJl1S33jjIfsiKoiqKqnmMl2kaTftlhe7OwYCEr/zUVYelEr8y+JQTArBUOVnIbU4jk5ZK21w9Nkkqog9Nul4mGIRY+9yyVKvLT9jv+JsgXmbvhP3xieXVwOrpQ9NLW55YnJIk6YFFz9mtLXreMUFMljmazDtIby7VyveIbxL3NqpL0+Tk5Gkrq4npOWlw7Mi6k+dk3eOU3LIU3v2Lm/Z/8/X1I2ODVK45YxMtlX6OdnPn1KKTk2WrrvGTdioXm440NH02Qtl672TxGQRAAARAAAQ6IwBL1Rkv3N0hAViqDoGF3y7kLrENg27mU5m8u8/zLH/V1Ur2TZzBUtSK/W4/S1f5iqL7ZJTCSy/f1XI5F6oKlsr+tuBnrgjAUuVqObueTNYs1SYrmk7TjSYXHJ8SOv9AS7Wy8O2RkT1Bv769sBJoqaTpZW8X4rv83KvieUvrUD0U+huph0VjdfbLI0ND08u2WmJnmXLyGCjJkU3sJkE5rc3tIbLruJNaRe9Zf5ymSjkPCo9sHf86GZ+3Gv2N42Rj45fnrIwpNp3dB0MS2NhQ8DsIgAAIgAAIxEMAlioejmglhAAsVQiYbk9TIcQ2DDacUufUUXnSs/jtfC0NFrtoNGpVxa3BTvcPVmoNw82f8uRbVWriH6ZNNjLxLp8563ba/XnuiSee+Ld/+7f+9I1eQaBnBGCpeoY2Uw1nzVJtLOyfnjkwY22EGxyZPt26LFKgpdposURUCTnayDRN2sI9R3zPiDbKbVE8z7TO4FCwFNszTLfq8d3Rhpq6urW5try0eGx2emLUuskuHs+k1dhT4sRZR8xAXaMqzz9mVm8+0FJpi5NEUk0vef6bbm4cuYcIr9I1OjDWy/iCnVvlThtHIAACIAACILAdAn8fFL9PI+jK32+nLzwLAowALFWvvgmtHZWhu6/9k1XvBkPOYIkVsgKSogTtRHKk1Gqt7jFi7hz5QljlCBXi3SdxBAIgkBABWKqEQKe8m6xZKhenenmObmHzKR73FtsxORvuqGShSUn6xnm7trpT+PwycS/BlsppwW1ctFFh55nWCXicPUAbkbgpNDeXDowOsa15LPdq98heWiLdk0vF19IibfGWih37337I32OaQjF1dmlodOqAvfnRPhj/MtVX5+iAPS24sy7K0fe+970PfOADuu5NWy/K/DHPXBP48Ic/fP/99+d6iphcqgkMDAzc6otbaPhO3/q+970v1ZPB4DJCQNO0arWakcGmZpiGpsqKFu6CTFNwVGrNa434clXC3jwyRd4k+S6S606Rd95QyUpF05vejjzI+FpXov/y3IiPIAACfSMAS9U39KnqOLuWyjRNq4qTJ6tI4BuQSzV91rZXQ8NOihMRQzTJyGepVg/uJgXFnTvtA5rhxLUgnHfylZjWiWqpthbGiRIaundq7sTS6vrWlkpsCEueSsJSMS8W9LslxQpvqfbv3z8wMABLJfxDhg95IbBjx46JiYm8zAbzyB6BgYGBhx9++DcR4tChQ7BU2VtgjDgvBAx7K59SDTZVvKMq+x2VWJDKWwSdL0hVbYQxE6pgUVslK9Vao6Wl4vVXwLDMhq5p1YqqKrK/TFbYOHAeBEAgbgKwVHETzWZ7mbZUHn0TtAKOpdLXT8wunJ4bkSQqXOh5xyWxbX3BloqmO315fMbOLbIPxkmRp7DzTssdWao1Mjxpz+yauO3OM032sVUuVdiOvytHyJidsfF1qdiOP/8mQQ9TWCpYKs9XAh9zRACWKkeLmcmpwFJlctkw6MIR4PbjlctlWfUmVbVxVJ58Jg8+zmD5q1V57jUD3i3oq6vuPiMkcAX5r3rFKXylaC19l9toX49qtVqlUunrENA5CMRPAJYqfqZZbDETlmrl8MjI7iFvYW9TXyKv2ZPcN9AFLACrKjUzN038z9TUpCTtPXLFzqVyfE0LS8W8zP4VX9s92PHHayO3P6uueQe5VOb6HNmmt3fuDbcV0zS3TpBK6MGWihHwFVwXnvfsK/ReK8Rn5FIVYpmLOklYqqKufFrmDUuVlpXAOECgFYGADXeyqukkj8mo14TX8fk37LXOZ+INFkmQauGcnBEaDb3qFrkiT5H394l/32uaJu/WwgpS1VRnD6FaczpI7wHe8ZfetcHItkEAlmob8HL0aCYslX6G6qg7p5dlF/3m6alhSZLunFnR3JPeo+YK2a8nSdLgyOSJtaV9kjQ4Q4UTtVdfn12yilIdn94TsuOPmiNvqXLSTQ8sFcul2j295E5TXz9K1ZIkdWKpzK2TdOvg2JF1p4DSlRIt4xVmqUz1NK2fzj9imvr6kbFBaWh4epENqfC5VK+++urBgwebTd+ffrzfPHwGgewRmJ2dfemll7I3bow4LwRgqfKyklmax0MPPfTggw9macSpGGtAEpPjd9wDVfP9aUnIZ9K8+/m4zX5uK5FUlWnwLcu+XYa8/vJftZk2q4rdb/tELvuhPv6EpeojfHTdOwKwVL1jm6WWM2GpTFNd3keUlDQ4NDo1M3NgenwPfTneoOBU2FY4N1fINPVz0+S+OyePr+umtjQ1KElTS9TbUEtF/ZX7W9COv9VDQ5I0MrfmX9MeWCpzg76cT5KGRsanZ2YOTI2Sklgj04doJpid+dV+xx8ZrE2MNTVFK7LfSWtp2e0I1dPZI/tJxpk0NDxGINsvUpSGxp6y33BYeEvl/x7gDAiAAAiAQCwEYKliwYhGOiKAd/x1hEu42V8aylY85GdQcfL2+UxWZXRFrYjpUQEbC4WxmPxLA/12jNdf/qtuS9x9WShNBUvlLh2OckQAlipHi7mNqWTEUpmmqW+emR2/l3oWSZJ2j4ztO75KXsrnht9Smc2N0r7ZFZoHtHF0VJKGDlpb9zx1qTyN2C/dY6lYuw+u+P4yqCe5VHSWSwfGrEkODY/tKy1f001WNGqP5cqiWSoiqtZfmLHaIk0dX7tcGg3d8ccIiJCHhkcnZhff4CjDUrnfFByBAAiAAAjESQCWKk6aaCsaAViqaJxC7zIatarilHOyNZVS1f11ncR8poAb7E6MJn1Xn7A5kLbsr4FlP9JSL3G1rspt5JNdF57sNkx/aSpYKnv98TNXBGCpcrWcXU8mO5aq6ynSB9l+t7B37XESau2REUkaK10jT7FCTkPf8xelEnf86eoWCVXX9c0z0yTpy8lX2t6o8TQIgAAIgAAIFIQALFVBFjpV04SlimU5jIZeq1QUVVEq1ZpOHZOvXU4kBb1gz3e/UITd1l+0XHuV1sDiHuA0lH+nHp/A5b/KtUIOuQLq5fSXprpw4cJzzz3nmQI+gkDWCcBSZX0F4xl/MSzV+tweSRocK5G66QGxvM/d9keOvjy3TtKalqYHJWlwfOFGwCNCLhWrJ8W1Mfkcl38U+DROZpPA1atXz549axj+vyLM5nwwahDgCLz44ou/+tWvuBM4BIFECcBSJYobnVECY2Nje/fuBYyeE+BEUrt8JjIWIY9K0fRaxZOwxdVV53O0/AWpdHfroKy2SOCyCPDJVO57APHnvp5/QdABCDgEYKkcFIU+KIalMs1Xj8yeDTVHW8tHZg6QSkzk12F3I6F6bnryqF2Syfs1WV84MDPzHNFZprZach4/MFta3nRKlnsfwueME8A7/jK+gBh+KwJ4x18rOrjWewKwVL1njB5AoC8EOspnMhqaa5bIzjtWZN1fBou8y6/B+yz/KwX5mur+qwEs+GQqZ88fSQML320Y0ApOgQAIdE8Alqp7dnl6siiWKk9rhrn0jwAsVf/Yo+eeE4Cl6jlidNCSACxVSzy4CAJZJWDUXOtkFVXXq5WKptXqjXqjQdPTjWajUddrVU/OFF/givdR3A5A51Cp1j2ExAQu52qjXg9PiafJVLKiqJWqptOKIJzpklUtZD8jSf+qVrQWDXvGho8gAAIhBGCpQsAU7DQsVcEWHNPdFgFYqm3hw8PpJgBLle71yf/oYKnyv8aYYREJ8AWp7HwmbmOdY5m8B7JS5aUP14xSqbrey3rM/05BficgV5CK5XVFT42qa57NhmVut6G7nvbwojfsPtvt0YULFxYWFrp9Gs+BQEoJwFKldGESHhYsVcLA0V2mCcBSZXr5MPjWBGCpWvPB1V4TgKXqNWG0DwLJExDzmdjmPdO0nY7XTNmffa6Ha8Z6TZ9R54tVBRSkqrivHnSvCglZsuorxB4IyL/ZsOxRVdzwyraJC2wq1pN4x1+sONFYWgjAUqVlJfo7Dliq/vJH79kiUC6X33zzTVTRzNaqYbQRCayvr7/33nsRb8ZtINARgfV1Wsax5TOwVC3x4GJPCPzLv/zLP/7jP/akaTRKCdSdIlNcPpPpT1BifkqWyVsC+RQq2giXFsW3YpqWP7LEFYec26bnVLYil93h2ELM45u4NsRDo6k7U7GelS2Zxpfd8u87FJuJ8xMsVZw00VZqCMBSpWYp+joQWKq+4kfnIAACIAACIJB/Ao8++ujw8PDp06dbTBWWqgUcXOoRgdtvv/2WW27pUeNo1iJg1DVVqdTCi0G1JmW47+nz7+sjLwT0vXm5tTYiw3HzrKhxooXY3VEYulatsYJZ7kl6FPisuyVQdGieZ2P/CEsVO1I0mAYCsFRpWIX+jwGWqv9rgBGAAAiAAAiAQK4JrK+v33rrrQMDA3fccUeYq4KlyvVXIKWTg6VK6cJww+LSogI30/kkFZd5VZZVPViOeXfxuZsCnf2IRF350rrIwAJUFcuu4hvhZtCrQ1iqXpFFu30lAEvVV/yp6RyWKjVLgYGAAAiAAAiAQG4JPProowN2BLoqWKrcrn2KJwZLleLFYUNzS1jJFec1fe6om5oiK5pd74qcdx8ol1tpIzHhym2BrzFVLpd9JbKsvr2ai3iqwLrq7ljjPqrVatVqNe5W0R4I9JkALFWfFyAl3cNSpWQhMIxMEHjxxRe/9a1vNRruH2YyMWwMEgSiEPiP//iPxcXFKHfiHhDogsD6+vqnPvWpm266aWBg4P3vf78/rwqWqguqeGSbBJ544on//u//3mYjeLyXBNzXAaqarx87bcrdCcg7Jn+5KrcBvoy6Z59eQKpUiKoyNNUqUeX+oJsHg/O33N5xBAIgEEoAlioUTaEuwFIVarkx2W0SwDv+tgkQj6eZAN7xl+bVycfY+HQqv6uCpcrHKmMWIBArgZorgmRFE3bg8aZJ1ZqmafL5UR73JA6K20boGi7+loBUKa9/4rt3LRU7CtFafA84BgEQCCQASxWIpXAnO7JUv/Vbv/VP//RPxxAgUFQCX/jCFwYGBo4ePVpUAJh3ngn87u/+7h133JHnGWJu/SZw8ODBm2+++Xd+53fsnX/kp5NXBUtlIkAABHwEGm42FTFAsqrpTYMUh6oqjhtiBauMmlsVPdg9WY0LCVdUb/l6pSdaqiq+f7VmRM/ACu4LZ0EABBgBWCp8EwiBTi0V/ydLHIMACIAACIAACIBAXAS+853v/CZCHDp06H3vex/+GAcCIFAMAlQWed7K5wiqctkWUnxBqsA66xYte5sgaaLVpkBWJ71S1WpV136xfpWKxjuyql0IIlhVUavWg6V64oknxsfHe9AwmgSBfhKApeon/fT03ZGl+u3f/u2vfe1rbyJAoKgEpqen//AP/3Btba2oADDvPBP42Mc+NjExkecZYm4pIBDosz7ykY/cd999yKUyEYkTuHr16sbGRuLdosPOCYSpKttRCflRjjby98Pv02u5KVCv2LlaZDdhgH+yRJmvkZYZWP4BdX8G7/jrnh2eTDEBWKoUL06CQ+vUUj3wwAMJjg5dgQAIgAAIgAAI5IQAU1G8qGJ+ik0Pliony5ypaeAdf5lYLsOwy5F7ZJFS1dkVPj/Kp434OXr26fGX2LHhdMbdar0r0NM71VS2JfO0FCDV1Jrnnu1+hKXaLkE8n0oCsFSpXJbEBwVLlThydAgCIAACIAACRSQQ5qcYC1iqIn4n+j1nWKp+r0CU/utVuaxUag1bVZlGs1FvNEh1KhZCfpRllOxrwk++urpvU6DR1DWytU92WuD2EDrnzKBUKatWltAX2TBotRi6t7BR02pCQXhvCy0/w1K1xIOLWSUAS5XVlYt33LBU8fJEayAAAiAAAiAAAn4CTiIVnz/F3wZLxdPAcTIEYKmS4bytXoikYmlLnnf82a1ySU9ln3uybyLSiHtfoFKtc1foobtnUFbtFC3XU4k5UwGpUqJI4xonGVhKVefOWIf2eLp9IeCDDz4oSZK/XZwBgUwTgKXK9PLFNnhYqthQoiEQAAEQAAEQAIEQAgMDA2F+ij0BSxVCDqd7SACWqodwY2q6XhEKp/uUDv8OwAD35I7CNU5OwXX3Ij1ydZfjpGyTRN4uWLHcFb2X7Axs6AF11bmcL0/z4kf+jYTs3YXdZ1WJLeMTCGSaACxVppcvtsHDUsWGEg0VgMDRo0c/+clP1uu+v4ArwNwxxdwT+Ku/+quHH34499PEBPtC4NFHH73vvvtadw1L1ZoPrvaCwOXLl1977bVetIw2YyMQUA1KViq1esMwmvUa57BaFqRyM6XKZXf7nneQrslynBRnwdwOqLwio2gYQcNTtbbGyTViLFHMyhbjNzZ6B4fPIFAIArBUhVjmtpOEpWqLCDeAgENg//79AwMDuh6Qt+3cgwMQyCiBHTt2TExMZHTwGHYOCMBS5WARMQUQ6BGBABfE2R16GO6eTFMoSOW+AbCuVTw+iStx5TgpTihZFdBdmVVm6VsBw/MlffFkOPVVLgu5YuUyk1/83TgGgSIRgKUq0mqHzxWWKpwNroCAlwAslZcIPueIACxVjhYzk1OBpcrksmHQIJAcgQAX5KiqlgWpdFIVnQW3KdBOrxK1ECe0FMtnEXUlq1Xdqt9uP0ca5LsNKFYlB9ZV57YRlkkfRl2rKM4IrXFWtlFXPbklQU8gEDsBWKrYkWayQViqTC4bBt0nArBUfQKPbpMgAEuVBGX0EU4AliqcDa6AAAjYBAJUlaxqDftywE8u88l9f59QS53UhXLfIsjlTvESymqZs1hUMXk69L4C0Nk56NzHpWuRWlf2ee+DRFa1zMcyJyYmPvOZz9jP4ycI5IQALFVOFnKb04Cl2iZAPF4oAqdPn/7yl7/caLT6w1ChgGCyeSLwr//6rydOnMjTjDCXbBGApcrWeuVjtM8+++zTTz+dj7kUaxakJJVGomZnOIXNn898UrWme5vRqFWDM5gMO/eKWCL3AXLEp0Fxiom/yXOLwV8zTZNzYP4CWR2pqrvuumvnzp2e5vERBLJOAJYq6ysYz/hhqeLhiFZAAARAAARAAAS2QQCWahvw8GiXBPCOvy7BZeWxRs3d6ydkPhmNeqPRNEyy2467he62I9v0tKqzwY+bqyCggutg8alW/jwqsUAW78y4XgLHpFR9Lw+EpeKh4Tg3BGCpcrOU25oILNW28OFhEAABEAABEACBOAjAUsVBEW10RgCWqjNeWbq74a/1JNYp51KhglWV9z19vKPyp0FRNnxV9ABHxbfAFcgKxBowprK7K5E8AksVCA4ns04AlirrKxjP+GGp4uGIVkAABEAg/wQuzO+bv9BymldPze6jMXvqassb21wk7ZRad9Wmhe1dvro4u6/NAK4tzrajsb0xkKcJh9lFHuWF0j6H7YVSu0GGjeDi/L6AwZNZO41bj4ZP0z+2sN4inoeliggKt8VIAJYqRpgpa4qrRsXqkXt+95WcojXMxZtkLoOJF1BC0XR33vwtAY7K5IYkV3Tnk6q5TXiOAsbkqqof/ehH//Vf/+V5Ah9BIOsEYKmyvoLxjB+WKh6OaKUYBGq1WrlcLsZcMcvCEZBlWdPC/6xsmua1q4u8FiH+whe2Wrp6jakVqnt8dwWfsJ+l6C8Qj3LRWgVHfnkfdA1OJx05TxFZI4TVIzk/u3itxXeADG9fafHqtRb9tm6hRePuJb8Jam2pQkHR6bhWS7BUF+atybqWyunFPwBncNwlSkMAyX9oYzadBmGpHBQ4SIyAJEmf+9znEusOHSVIgK9HJbon8okroy6MKeA9fUQL1R2lRB72CS7WBPesrOreelQmPyCyW9BpUmn5X17T7KhYlTAbfACBDBKApcrgovVgyLBUPYCKJnNLAO/4y+3SYmKmGe0df8RHWOk24Vk2HE5XfHAnAw5dgWJfJBLE9lacELEve/OMSEeO1TJNkzTo2Cj3ITE7yStrWAuB4olXTkxRhad6MfllD57rvONDd+KsTV7+iMeeudspUWSoziUXsjBx07SW0losdhvzjI6u8g/dHZsp9CLc6elIuOb9AEvlJYLPIAAC2yCgKeWyXJYVRVGVSsUutV5vkIpU9YZPInE9BWkhV3QF16OyHycb9ZRKzdc8X69KqZK38ES2VLRpToE5Q2n9CkB7RPgJAtkiAEuVrfXq1WhhqXpFFu3mkQAsVR5XFXOyCESzVKZ5kWTekESpHlsqfmE4IeKeFk+KlorIEd4rhTwlOBRbtZCTtomjzwnCi2WQtTBQvsfdvjs/EudInue1kWudxJa5e+xJ0Rvc+4WJOw9blsr5TJdYlGGUDBkVH6V53oW5j5v02xKwtVC4xfkAS+WgwAEIgED/CQQVhioHJUlFGKrhKKly2S5I5ZwKyaUyDJ/qilpXPcKIcAsIpJUALFVaVybZccFSJcsbvWWbACxVttcPo29JIKqlchrpkaViGsiVIGS/GCdrnO1p/ElSwcnNpfK24LTlacrjUJjQob+fIgWa2I4/amTcPWucACLCyElTYlSIBuJylxxUnR+Q6Qhh54V5BuCkm/FdcPe0t1Re5eT0WrrAYRcJ0864q6SX8HDp8YP0H8NS+ZngDAiAQHwE6ppaqWq11nlUfHeBnqrcRQaTI6TKZbdelXMywFIZ9apCdhaSnCtfBA1LrKvuewQnQCA7BGCpsrNWvRwpLFUv6aLtvBGApcrbimI+HIGuLFWYmnDEBJ+eE+gyrDvdNB9uSOQktTOiEOH8ke1uXEvlKCo+3YmeZJvguKaYpRKmMF+aZ96H3LZvdpaoImcu3MisLKHZ+Yt2ZXOrX/ZIeOvr4QAAIABJREFUt0XNxR7YpJx9i3RIwmidD5Ysc+buXOAPShdcyAG5VJYXs7cKslw5fvquH2TD5EgKLsxdC+RSeRcUn0EABPpIwNFCdMucrChEWhFrRfYANpoGqQBFjus1rVpRFNnZWRdwIKtVveWuQW6efEEqrqSVMxzuZYP0qYam2n27Totrjx4ade2VKzeEkclQVV5K+JxFArBUWVy1+McMSxU/U7SYXwJvvvnmM88802w28ztFzKy4BJ599tnLly+Hzt81IPZOOnImwOBw8sJKwLHFh8dlCKlMrkBxRkBMik9IkU59J8kjLJfKlWKkQTo8emCPWUjLcgfAJR853VvWJjBZyaSVmKx5WWTcLiy7JG4bdNrt4IC1bJs4ApZXb1ZDbOJ8q/wZgbkLWbRUlv+anZ+3ErjIXKyTNm3/Bk9uoYVe7LXghxTpGLlUkTDhplgJ3H///d/85jdjbRKNpZcAqVTVXZD8qXqt4n0+ihYyaqrTJytIZQEKtFSGTpKonJDV4HQq2sRdd33l8//+lNemdZHqld4Vw8iKSACWqoir7p8zLJWfCc6AAAiAAAgEE+AkESlQtW/+glOmynogQFh0ZalIO/aD3OY+bgCcJXEsFT9q0gILpx1y3ymiuewMKHvQJbcvq/K61Xuwq7J1D+siQNXRdoUp8COLeGx7IlImi9NG9qy4n8LGQ8FAkTEIV1nf7j1sgmwK5JiwciFzj3sX2iK5SLY9Mg7cgDyHPuCBBGCpArHgZE8J3H777bfccktPu0Dj6SHQvaVSNfb3kwE1zEkGU91fQcqataE7eVFksx/PwmepPIaqrFT9LwrkG7jrrrt27tyJVwDyTHCcAwKwVDlYxBimAEsVA0Q0AQIgAAIFIeD6C0tSXLh2gVZQsjKJiL4RlIQtPggfTnkwXK4roa/kcxOFLDc0OzvLBJOrlnwDsH0TeWSe1JNywpVHnO6ZX+QtFWmN3ObkUrE7/VqHT8iyWnNH26O1v7o4Oztfok6NjpOMPKBTOvGLzhgIZM7KicxJO1Zw99Bn6aXgidNObTFnd0TWjgR9ROyFrxFm3x7lJyxVFEq4J14CsFTx8kx7a0azode0SkVRFNneVOfkLXkPZEV185Rk/s1+AYWhQjKYaHkp1rDQAgElWCpDFxO15EqtYRrsdYQNuhvRz9ayVPSC0dTdfYLWTORKDbn/fmw4k3YCsFRpX6FkxgdLlQxn9AICIAACeSBAXAYTUlQk2dKE00CWrrInS26zhYjHZbgb7qz0Jbs1qrpISajZU4vMuZD2mfyy5AhRS+5J0lmArCESRVBm9D6nKe41hVRCOc7FHnvQTzpTqrqs0ZJJhYY9o6CW2p27tjg7u3iBGy0H2duhY5e8LqldJ07imLdFZy+nZRKFtWO9cPw9Jas8axFhEPQWWKqopHBffARgqeJjmcmWnEJUmhU13a5RRefjmCS+7DmbaYCqUmsihAaXvMUVpLJuctqWFYXf5VemhorcZD/uScKyO1lfX79w4YL9ifw06hVXvnX5OkK+PRyDQB8IwFL1AXoKu4SlSuGiYEipJfD666/Pz8+jLlVqFwgD2w6Bp59++tKlS21acCyVL/XGciheK+S1VGE2xNUr1M5cdRKvRFlDzcgsS4DiLInfUtnzsKyW686Ep8gshFwqa0ugb5S27bowT+8njQQYqC7tjD1W4SdL7+JHy3XKd8QfCy3YH9re4PF9no+2hvOuLHebjTF6j/adwk9YKgEHPiRC4Dvf+c63vvWtRLpCJ5kkIFaVqnvnYHDFqpSqeLnNo24uFZ/E5Rgq0pNtqcoBbwH0joR+DqnTHngvToJASgnAUqV0YRIeFixVwsDRXaYJ4B1/mV4+DL41gUjv+LMsFREftrixtvKRzxfZhjJ3qx1Lceo0l4qOU0jesUdOhQvZ1sd3wS66LsZJjCKuqYVbEXOp7EFy8sXplUtosjrruaW6ulgixbN4S2UPhwF3vRt3nhwK0/frNueMa9mYh3KQesmTMQQVt3LHxkpW2XsAnR6sA98SeAbsfISlclDgAARAIDUEhISoaiNgXLRYlVKpicWpnFQpmoYV8Bh3A/NUpBa7cF8bS2XUq4pScWtXiVpMbEpoFx9AIM0EYKnSvDrJjQ2WKjnW6Cn7BGCpsr+GmEEogQ4tFbMk/kQb64y9B43II0cAhfbN3IrrTSzzZTdiP8dydoTMHad911LZd5OfzLAwXcJac91KkpbKV3qcH2SLY2e0/ES8Goh+DoccTMbbKXNMpUUiGn0LQXrwySZnbFYenLU3UGjYuUc4G/IBlioEDE6DAAj0lQBXXKrs37gXPDT+Gb6kFbvbt1tQVqoBFdhbWapGzd7cZ1V2NzjrFbJFMHioOAsC6SIAS5Wu9ejXaGCp+kUe/WaRACxVFlcNY45IIIKlCjBQfnlB86dmZ0+xYhmORWozCnfHn3WjN6PHrTzls1RUP0VzMZ7sJFd7WeZn9tRVv1gJPiOoHDbo0DFcZTXmfaKnDRTPaO27CatZa9ujfa7Fz9BReZ4h02ThTo2uOBk2PXDPk0dtLPZKwVJ5gOIjCIBATgjwAqjsd07+WTYdv1QuK5qQ1eQTVP6KV057TiueHX+uoaJJWNRJcVpM5vKrnLZwAAJZIQBLlZWV6u04Yal6yxet54sALFW+1hOzEQi0sVRE6NAsG3oQnrkjtMnUkuU+2v4QJIjtPqz2iGqxcnzIAOz9bu4xvaFtF+wGyxZR8+LLEnJlDd+aKJjIPaULJmPC3+Y/didFRyi244Hl/2ibIPuKlfHEDCAdP98gu+ofQ+gZa5efPWWLKrVgi1fZ7Nzx0+7cj5alcuu7h/XOj9CeR+BP5FIFYsFJEACB/hPgtVPbRCVDV50a5lyxKqNRq7ovDeSKUYU2GGSpGjXhZYDXf1YlW/6EbYka3uzX/28MRtA9AViq7tnl6UlYqjytJubSawKNRkPTtF73gvZBoC8ENE2r18Xar8I4rEpJ9FwUJcSUB7kzitJqlUtFdQnfCLnZCcubkI68OwSF8VsfvN7Hd4//huAznK/xtRF2wqPewm5zz9td20LN36ltyng+7vPtj9hSOkWp7Ad8zOkFazXJqGjMX+SwI5fKhoefGSLwD//wD7t27crQgDHUfhHgcpXKnHoKGA6/885KvApIoCorqv1iv6iWitS/cvRXuVy+8eZPv3X7TvJqv5rqSK/WYwsYLk6BQMoIwFKlbEH6NBxYqj6BR7cgAAIgAAItCFhChwoRO3Oqxe24lH0CyKXK/hpmbwa33377Lbfckr1xY8TJE+BVkHcbHzca/jV7as2gLwHk1RLRSaRMuuG+wS+KpfJ5LqVSu/+uu3bu3GnyLwsMbYobIQ5BIN0EYKnSvT5JjQ6WKinS6AcEQAAEQAAEQCCUACxVKBpc6BkBWKqeoc1hw7yACilP1dTcrCZZqfg2+MlMUFE4zn6+ULXk3FEu86JLVuguP/MrX/nKn/3Zn/FJXlFqZuVwYTClfBGApcrXenY7G1iqbsnhORAAARAAARAAgdgIwFLFhhINRSYASxUZFW40haylcoBbMmpuQSq5UnWFFUmgklVNfI2f46ACWmK0nTuc/Xy+VviCWZ467VgxEMgmAViqbK5b3KOGpYqbKNrLM4FTp06NjIw0GsLrWvI8YcytSATuvvvuH/7wh0WaMeaaLgKwVOlaj2KMZmFh4cSJE8WYK2YZAwFHCsmKWtU9Vcq5rCZZ1Q3Tzr2S1areMHy9Ow4q2FIZdc2TiiXTjYJ8O/zLB1GQiieD4wwTgKXK8OLFOPReWKpLly7FOEI0BQLpIYB3/KVnLTCS2Am0ecdf7P2hQRAQCcBSiTzwCQRAIIUE6lqlWhOTotgobSdFC09Zr9mr17QgP8UeCLVUAS8D9CVi0Sb4Ou0V8qo/BAjkgAAsVQ4WMYYpxGupLl269OSTT8JSxbAwaCKVBGCpUrksGFQ8BGCp4uGIVrolAEvVLTk8BwIg0G8CfG11pRol5b5ZDXjHHy227u7vs4+UoNdL81oMBan6/QVA//ERgKWKj2WWW4rLUjE/9eSTTz7zzDNZ5oGxg0ArArBUrejgWsYJwFJlfAEzP3xYqswvISYAAgUlwO+8C96/5wfjJkLRJ4ymrrlVrWw9Zf0MsFRNTXnXviuaFvMPAWdAII0EYKnSuCrJj2n7lsrxU0/SQCJV8ouIHhMjcOzYsc985jP1ej2xHtERCCRG4HOf+9wjjzySWHfoCAQ8BGCpPEDwMQECly5dunjxYgIdoYs8E+ALUnW6885o1OtBfoq8DNDZE+izVIbuGq2oWizPK4C55YkALFWeVrP7uWzHUr300kvMTDm/I5Gq+5XAkyAAAiAAAiBQYAKwVAVe/L5NHe/46xv6HHXM1ZFSrIJU0WYXnD8lq5repEWmQi2Vm4dV3sBmv2iwcVdmCMBSZWapejrQ7iyV308hkaqny4TGQQAEQAAEQCDfBGCp8r2+6ZwdLFU61yWLozLqWlXrKNeer2VFN+/JSkXjCrO7LkrMpeIKUl1/6YDnRYNZRIcxgwBPAJaKp1Hc404t1SOPPOJkTnkO5ufnT9JYoPEcjefteIHGKRqLNE7b8WMaZ2j8hMYSjbM0fmrHORov0lim8ZIdL9M4T+MVGis0LtC4aMerNFZpXKLxmh0/o3GZxs9prNnxOo1f0HiDxps01u34JY1f0bhCY4PGW3ZcpXGNxts0Nmlct+MdGjdovEvjPTu2aJRpyDQUGqodFRpVGhqNGg3djjqNBo0mDYOGiQABEAABEACB1BCApUrNUhRoILBUBVrsFE7V8U1y0Ev8gi0V77Y2Tk3tTeG0MCQQ2A4BWKrt0MvPs51aqpmZmVOnTj355JPz8/MeS/Xkk0+++OKLL9Ng+miZxot2nKPxUxpnaSzZ8RMaZ2j8mMZpGos0TtnxAo3naVAJRn5boHGSxo9oPEvjBI3jdjxD44c0nqbxFI2SHcdozNPwTy2vZ9h82dwZCYaFIXr66acZMUaPsWRgGeRnn32WMWf82Vo4S8NWii7aC2wN6Xou0rUlv9Gl/jFd9jPsO8C+EfTbQX6jX5af0i/OOfY9ot+pZfYFe+mll+jX7eXzNF6hsWLHBRoXabxKY9WOSzReo/EzGpdp/JzGmh2v0/gFjTdovElj3Y5f0vgVjSs0Nux4i8ZVGtdovE1j047rNN6hcYPGuzTes2OLRpmGTCOioKzVajqNMEFpGHhbsYkAARBIGwFYqrStSBHGA0tVhFVO8RwNvaIK+VP8WIMslVFDQSqeEY5zSACWKoeL2sWUOrVUDzzwgGma169fZ66qVCo5+mZ+fj5PpdMNGk07GjTY//YzBVCjodlRpVGhodJgTkFRFKYYmG5g6uE9GsxKvPvuu0xSMGHB5AVTGcxrvP3220xzMOXB9AeTIcyMXLlyhXqSX1Fn8kumUN6k8YYdv6DxOg0mYX5ux2UaP6PxGo1LNFbtoIbn1Ys0LtBYofGKHedpvEyD+aNlO16kcY7GT2mcpbFE4yd2nKHxYxqnaSzacYrGCzSep8Es2IIdJ2n8iMazNE7QOG4HBKXzDyl/ME/jGI0SjafseJrGD2nwgvL48eMnTpxgkLsTlIuLlqNka83WnX0L2FeCfT1aCMrl5WX2HWPft/M0XrFjhcYFGhdpvEqDfZcv2fEajZ/RuEzj53as0WD/pPyCxhs03rRjncYvafyKxhUaG3a8ReMqjWs03rZjk8Z1Gu/QuEHjXTveo7FFo0xDpuH8y0SlUaFRpaHRqNmh0/ALymazadAww+NjH/vYgw8+GH4dV0CgtwRgqXrLF60HEbh+/frbb78ddAXnQKDfBAIsFV+nXdXxd479XiL03wsCsFS9oJq9NruzVGyega5KVdXsUcCIQYAjwP5nvmlHgwb73/6ZmZkPfOADqqrWajVmBzRNY7KAiQMmEZhTYH5BlmWmG5h6eI8GkxLMUNy4cYMJCyYvmMhgWoMqDvIbNR5Xqf14i8kQZka2Iygv2/EzGq/RuERjlQbVO+S3izQu0Fih8Yod52m8TIMXlC/acY7GT2mcpbFE4yd2nKHxYxqnaSzSOGXHCzSep9GRoGR+7ZlnnvkhjadpPGVHicYxGvM0eIWX72M2XzZ3xqFUKj311FOPPfbYE088EZhByQSl4yh/ROMkjQU72OqwlaKLJmRQthWUS0tL7BvCvi3sm8O+R8t2sO8Y/boJGZSvvPLKCo0LNC7SeJUG+zKvrq6y7zb9mr9Gv/I/u2zHz2ms0Xidxi9ovEHjTTvWafySxq9oXLFjg8ZbNK7SuEbjbTs2aVynwf55v2HHuzTeo7FFo0xDtoNPoqzQqNLQ7KjR0Gl0JyjNdAQsVTrWAaMAARBIBwGfpXJf+lcud1anPR0TwihAIAoBWKoolPJ/z3YsFaPjcVV5SqfK//Jjhh0S2L9//8DAgK7rHT6H27NBwKDRtKNBo4sMSlsvdC8oe5pBedmOn9F4jcalS5d279790EMPMa3DFM9FGhdorNB4hcZ5O16mEa+gXFxcPEXjBRrP0+AF5Uk7fkTjWRonaBy3o3UG5TE75mnkW0rys2PzZbMv2fEUjadp/JCGY3gZTsaWcWbM2Qos2BEmKE+dOrVI4zSNH9M4Q+MnNJZoOJkssFQmAgRAAAQcAh5LxRekUqod1Wl3muQOjIauVVTF/rvUclmWFbWi1bjy7dzdOASBxAjAUiWGOtUdbd9Ssek5rurJJ59EOlWqlxyD2wYBWKptwMOjaSewY8eOiYmJtI+yN+MzaDTtKJqgvHTpErOTq6urr9K4SOMCjRUar9A4b8fLNGIRlJubm2xVYal68+1GqyAAAtkkoCllK8g7/lxnVZYr9G9L77nnno9+9KNdzM1oaG51K7sP96esVGoN7CbsAiweiYUALFUsGDPfSFyWioG4fv36s88+i3SqzH8tMIEQAi+99NK///u/NxqNkOs4DQIZJvCf//mfZ86cyfAEMPSME4ClyvgCZnL4c3Nzhw8fzuTQMejcEzAajbr1y+AKUpXVGlNId911186dOzvF0KhVrExv10sFHSlVZFV1yhb3x0IAlioWjJlvJF5LxXBcv34981wwARAAARAAARAAgQQJwFIlCBtdWQTwjj98FdJBoKmpqhaqhZpuWlVZ0ey/Ku3CUjW4VwTaakpWFEWtVCqqonj0lVxBgfZ0fD2KNQpYqmKtd9hse2GpwvrCeRAAARAAARAAARAIJABLFYgFJ3tKAJaqp3jReFQCdqoU2Wvne8bg1BJfkKpjS2X3YvupslLVm+LWPqMubgZ0nZhvWDgBAr0hAEvVG65ZaxWWKmsrhvGCAAiAAAiAQA4JwFLlcFFTPyVYqtQvUSEGWOc34cmepCq+IJXKJzedPXv26NGjkQFx7RBNFZ4oZQh32vsLI/eDG0FgewRgqbbHLy9Pw1LlZSUxjyQIvPvuu5cvXzYM8S+ekugZfYBAzwmsra298847Pe8GHYBACAFYqhAwON1DAnv27Nm9e3cPO0DTIBCBgCeBiTgktUretmfU+SpS2xFGnjyqNjlS9aq7+U/RmhGmgFtAIC4CsFRxkcx2O7BU2V4/jD5ZAnjHX7K80VuiBIr8jr9EQaOzEAKwVCFgcBoEQKAABLx77ZxtefaBUvVvBozKhS9sVS479dfDH29WnRcMlskbBhEgkBgBWKrEUKe6I1iqVC8PBpcyArBUKVsQDCdOArBUcdJEW50TgKXqnBmeAAEQyBWBcFUlV/TuZyps4YvgqEzT5Oq1y5V6913jSRDolAAsVafE8nk/LFU+1xWz6g0BWKrecEWrqSAAS5WKZSjwIGCpCrz4mDoIgIBDwK+qZNV5sZ9zl2m+/vrry8vL3ImwQ1119++VI6ZkwVKF0cT5XhOApeo14Wy0D0uVjXXCKNNBAJYqHeuAUfSEACxVT7Ci0cgEYKkio8KNIAACeSdgNPVataIqlYqmN4LLoUZ9x19NtTcNks1+WnBjHp589hV2/Hng4GNvCcBS9ZZvVlqHpcrKSmGcaSCwubn58ssvo3p6GtYCY4idwCuvvPLWW2/F3iwaBIGIBGCpIoLCbTESGB0d/dKXvhRjg2gKBBIjENFS8S8QjL5v0GjqWkUhOVie5Ct2gV6x5JcsK2pFI8XeESAQAwFYqhgg5qAJWKocLCKmAAIgAAIgAAJZJwBLlfUVzOL4b7/99ltuuSWLI8eYQSCipeL27pXVWqfYjIabyWU0NH7vIJehxQ5lpVJz7+60J9wPAowALBW+CYQALFWc3wNd3dpS9bbva217Q5xjQlsgAAIgAAIgkAECsFQZWKTcDRGWKndLWqAJdW6plGjb/QIZtjFUrrJSqsiqCiSIkxEJwFJFBJXz2wprqVYPDUuSNHx4teUCr8zuGRk5vNLyHu7iuWlJGi213DGzdXZ6ZHD44KvcU50cbl1eWjrbza+1G510g3tBAARAAARAIFkCsFTJ8kZvhAAsFb4H2SXw7rvvXr16te34uVyqritMBSoqstGvqpHiWfz+P6Kr5IqO7X9tFwY3hBCApQoBU7DTBbVUa3N7JUkalCRJGntsTQ1d9OVpSZL20ddnaOqWN1TdNHWZO/vClCTtnbvEnfGnVt1YGB+UpHuPbDgZVW+VRslAwoMNgA5yeV/4bS2vTJ8LnSQuRCdw4cKFmZmZZtNZvOiP4k4QSDuBgwcPnjuHf1OkfZlyPD5YqhwvbmqndujQoZmZmdQODwMDge0T4AqhRy9LJXRbrypuqhQ5CtjZZ9Q1wVUpQW8lFFrFBxAIJgBLFcylaGfzYKmaG0fulSRpOsq7WMn6svsHxxeubS5OkYyqvYdWHFG1cWyUy4dyLRU97/FA08vmRol03SICUqvWHiOKbPqsbn3ZqKUamT4elCQ1O+ZoMno3tVRTi7wH29pcPjq3uLYpnOM/EHcmwVLF8o823vEXC0Y0kk4CeMdfOtelOKOCpSrOWmOmIAACyRHg3vEnV+od98tZLponpdYaIW0Ywq2equshz+A0CHgJwFJ5iRTzc/Ytlb6yn5imyJZKXd5H7p88TcVUc2uJfhzZv8xEVZil0q+suBbp8fEhkoVV2midS0X0UIClMuW15Utb7veNWqrRYxvuGffI1WTsHLVUgo9Tz00PS9Lex9bchzxHZB8iLJUHSpcfYam6BIfHskAAlioLq5TnMcJS5Xl1MTcQAIG+EeDlUYscJ0OvqlXvVr2GmEfV4nE6vQa3v7DLzK2+YULHKSEAS5WShejzMLJuqZijiW6pNo6R5KThfZaTIvSbVkYVE1VhlspdJ3l5+k5JunN6WXbPWUeeulTCx82Fb4+M7PH8mly4ZpqipRI9VDtLdaU0RvctDo14WqYfWUUtWCrfQnV9Apaqa3R4MP0EYKnSv0b5HiEsVb7XF7MDARCIl8AzzzwzPT0dpc0m547KcmAylOFs6+OrnxtcHla5XFZr7ctN8Uqs81cKRpkN7sk5AViqnC9wxOll21LJS9O7JWlsZjrajr+tsyTtiORAecoKNTdKXyfZUaNPbbSxVM2N0pgkDY6VrpimSRVSi91+3KXRYxc9lmqI2CWaadW1pbqyMHmnJA2NTh2YmRF/jY+Qvq3a8LBUEf9hiHDb97///Q9+8IO6bu/WjPAIbgGBrBD4gz/4g6mpqayMFuPMH4GBgYFPRY73ve99+SOAGSVPQFEUWfb/rWPyA0GPINAxgYjv+KPtNjWVLy0lq9Wa/SY+o1mvVcTCU3KlRp9yzBV9VtE8//8UPGJObCGbKhgRzrYkAEvVEk9hLmbZUm0tjEvS4OSizIpDCfvgfAuor5+YJIoqMAeKFqsqHSD2qqWlYrsFh6fPsd2BW2ue1+09MiZJI9PP2O/g4z6uXBG9BquhTvcMdpdLpV6eGxuSpHtGR4ckZ7sinbU10+F9S1vsPyawVL5vA06AAAiAAAikjcDng+JDNIKufD5t48d4skgA7/jL4qphzIxAJ5bKNM2GKKp4aSUey6pV+ZxPiyrL1Yglrfinun6poLjGRq2iVmqN9olc4mP4lE0CsFTZXLe4R51dS0X37g1Nn1VNq4R5S0t1jaRASXcOj457047sLKSFdcq2haViuwXHggtI0YeFLX6m6fnorp26eD9JpDpCErK62vEnL04OSkNfL63rpnmlNDYkDX+7tLplmvr68ftJGhVfD54OA3WpXPo4AgEQAAEQyAqBXbt23XbbbVkZLcaZOQKwVJlbMgzYIdChpTJN0/siPtFOsYQptzKVUJIqYiKVaZrxWyq7RTng3YIODRzkhgAsVW6WclsTyaqlovWY7PJSUXKpzLWTpZWtJVJIfGjYUx9qmOz2syRXuKVamSF79IaG3dpSsyumWG2KNuSWiCIfA6qne22XuOOPDtExbqF1qfQbm1aqlGma15dm7pGkwSGyi3BodPY8V5rdZLIMlmpb/5jgYRAAARAAgb4QgKXqC/bidApLVZy1zt9MJycnd+3a1fG8jLqmKrJfUMlKRbN3AZJGDb6YlaJFTmQSHwsdntFo1Mmvtu0Ksqwc3ZaF9owLKScAS5XyBUpoeJm0VM3Vg6R++cyKxihFslT0Vq/0Yc/zBctbWKpZ10+NEAG1++CqubX8BJecNbGXWKIH7DPko9dSWeXe98y57+QTLBWdi3vVO2B+qGTwurq+XJqZGCGebWiYWjJpaGRs6vHjS6+ub8l0myF2/LFlxu8gAAIgAAJZIwBLlbUVy9h4YakytmAYbmwEjEa9prGo6Y0AWWRnMBGfpVQjlaQig9MrrgCTK75dggYpguV1ZESQ6c1AXyUUfi8rUbcdxoYJDSVPAJYqeeZp7DGDlooVh9rLaZ7tWiqSvnRvaYOuT7il4pePlsSyH3EvhG7xs27R14+wV/JJe8bGRkamTm+SC35L5bYcbKkW1hZLh6fGqJsidmpsurS8oTdNs6lvri3OTY0xXUVWyL/9AAAgAElEQVQqqO8+uHKWJJBNn3OHiaOuCTzzzDN/8zd/U6/7/qPbdYt4EARSQ+COO+54/PHHUzMcDAQECIFlGmABAj0i8PLLL587hz8h9Ygums00AcFSWYkBbSdkCMWvxHf8GY1axeunXKNVLsuKu9vQ6sjgB1FGMfa2/HNxAyxVLpZx25PInKViuUijR5lTYvPfpqWij9tiKNRSrZfGdjtqbPXgbknav2JuLR/hX67nyaVil55jBa9MUu98UJIGh4d3S9I9M3NTw5I0PHlyQ7RUVEvdO7Nwdo1u2wu2VEtrc3uHhsemZktn1javLM09fnzp7Or6lkpElRW6em1t6djszHPrqEtlM4nh5/79+wcGBvCOvxhQoon0EdixY8fExET6xoURgQAIgAAIgAAIJEygzimlqFXQhZcCClJJ9E28nBKPFatyO52s0FxZrQVmWyWMBd31nAAsVc8RZ6KDzFkquuWNJAmFhHeHnbgKXulDrtJK5NL9i+wlfKGWSluaGpT2Pk6VE81+Gj+51YmlYm8kHCtdsaVYc6P09SFJGpp5am5UkkZZUfa1OVL8nAQrTeUdsHfHn2mqp6fIdj87hoZHRiemj5xnbyGks8eOP/FLsJ1PsFTboYdnU04AlirlC4ThgQAIgAAIgEBiBGqqI5AE4RQ6gAZfkqrMbfcLUFSyolY1rVaraVpVLJPl7OrzFqRqhHaMC7kiAEuVq+XsejKZs1Trz9lVn9wkpqnR3eS9duPkzJFlsXS4SMaWPtri5OAQq6FON8cNTZ9jksoMtVSmvjRFN9A1za2T4/6CU6Sjljv+tp6bPULeyWdbKtM0mxtLZ4VcqvXHSWWrITKdqJaKTVBXtzbXlpdOzM1MjY0MOzlf9CIslfgl2M4nWKrt0MOzKScAS5XyBcLwQAAEQAAEQMAh8MADD/zt3/6t8zH2A758egRNJToqLvPJc4Hs7OOrtNNxG3pVcZyYSkq1G5wkI4WxUGwj9gVOa4OwVGldmWTHlTlLFYSnix1/GwtTo8xSjU5Mz52l9aFo0+GWyjRfPTgsSeMn145/ndWx0jfOLy2d5X49MiZJI9PPcGfY1cu8OeMsFZtMU1e3tlTNNFlV+N0HD9JCUsvkKrm0peq6Zkk0Ppdq64WpsamZmcOlxbPLa9doC0F0sOMvkEp3J0+ePDk4OIi6VN3Rw1MpJ/CFL3zhySefTPkgMbyiETh9+vSPf/zjos0a802MwJkzZ06dOpVYd+gIBGIkcNddd+3cuTPGBr1NCaJIqbbKZfJmS7kb98SMKFJbKmTfHteEojW8BalCHvIOGZ9zQACWKgeLGMMUimqpfOjOH9w7MbPwhm5qRBnZBZ7s3CvrdnXxfkkaJJvrxk5smebmwrdHmOqyfmd5WSPiyT0jI4dXuP58lsq+tnFsTKJb/3gVRS+SMlhDh0gj/KWVwyP0XYP2Zj/6mr+Re8enD8wdJ95KtcwWcqlswvgJAiAAAiCQLQJ4x1+21itzo8U7/jK3ZBiwQ6Dnlso0hTQoWeVrRjnDME1Dr7iJUCQjynVU4iv6uAvc4+6ho6YUhW8QBalcREU4gqUqwiq3n2OOLRUVOna9J4uExzq5fPTTk5IkzZx3z9Aj3/3XSsQkSWOla5476ceWO/7sB4ItlfX6vzsPrjYFFeUZBm+p7Aat3X7HH5+ZnhgdIbsFaYwvWBlcsFQ2KfwEARAAARDIFgFYqmytV+ZGC0uVuSXDgB0CCVgqj6cql2W1WuO26xlNXfMYKt5RGTWVf6mfK6+cOXgOHE3l7P4jm/1aJXF5GsDHHBCApcrBIsYwBVgqBnH10JAkOV7HBttcInvv9tG9d+Scurxv2HJAgyPjh5fW7XQl64FuLZX9+r+x0hXSkldF0cLrrLy695I9UuGnpm6uLa9csVKpsONPgIMPIAACIAAC2SEAS5WdtcrkSGGpMrlsGDQlMD8/Pzk52XsYDc0to27bI7lc5v2Tfbos7OgTE6ki2Sah/jppNUJBrN4TQA+JEoClShR3ajvLhaWKTpdsnZN2j8+9IJSOWjw2tXeQlZoyt9ZW1q5tsVg/OUlen7ef7dfT14+SPKrhfctb15dm7rVerDc0PEKKQx2YmTshtGnXqzo+R6u8H3yBvhyQjFTMpWpurR6bJOprcO/BFevFfBtHSQ31yZPrdBibq4+RfqfPkoeppRoa3uPbVNjiDN2HOH0uOiXcCQIgAAIgAAKpIABLlYplyMUgHnroob/xxe///u//3u/9nu80OXH33XfnYt6YBAhsn4BR54qbl8PCUxa9yT8T0TZ5LJWMzX7bX7zMtQBLlbkl68mAC2apzI3nJkdoYSkrJcr5sXuc5THR9/c5Z4mVmjlPkpI2T4yTuk9fL200rYXQryyXDk+N7aESiH8i4HjooFuZyrFUW6tPTY8y2TUyvXjNTn0yTfOt42OWBLPbGpldpf3CUvXkH4PIjf7Xf/3XTTfdpOvcYkV+FjeCQMoJfPCDH7zvvvtSPkgMr2gEGjSKNmvMtxcEHnrooYGBgc+2jL+2Y+fOnbBUvVgFtJldAmR3n6oEZ1CVZaWicTsBySwFSaVo9v8/tQRQrwjtR3yqZZO4mDkCsFSZW7KeDLholopApO/Ns9KlrB/czr03FmZo9hP9fW7xDfv1fPLy7IHFzUj/irVWiuuHa5/VXP/2wqZpquemh4dGp0+sbvmb1dWt9VWakEXroNs3kIrpe2Zd5RXlS7EyO7JnpMNnorRbxHv2798/MDAAS1XEtS/AnHfs2DExMVGAiWKKIAACRSTALNWvf/3r30QIWKoifkUw5ygEjGa9pmmViqIq5FelqtXqzaA38NW4fYKKFnSHrztBbKEglY9PQU7AUhVkodtMs4iWqg0SXAaBUAKwVKFocCH7BGCpsr+GmAEIgEAoAViqUDS4kE0Cqqq+9957qR07t3lPqdp/3d5ytIKkCt0iSDVZtUIdGTFl1JNFkmAtO8fF1BCApUrNUvR1ILBUfcWPzjNGAJYqYwuG4XZCAJaqE1q4FwRAIGMEYKkytmAYbjsCibzjr90gQq/zr+tTtNDbuAv8E+WgglRGo1YJ23JYlpVqrQFZxfHM7CEsVWaXLtaBw1LFihON5ZzAa6+99uijjzabkf5KKOcsML3cEXj88cdXVjrbT5w7BphQ6ghMT08/+OCDqRsWBpRBArBUGVw0DLkVgXRbKoPPpYpgqRp8rXV/QSpSv12oWRVcwl2p6DBVrb40WbgGS5WFVer9GGGpes8YPYAACIAACIAACHRDAO/464YangkiAEsVRAXnMkwg3ZbK1CuOSFKq9TacDaGKlfd2Q0izspuVy2X2yz5h/VS1RpvecDnVBGCpUr08iQ0Oliox1OgIBEAABEAABECgIwKwVB3hKvLNp0+fXl9fb0EAlqoFHFzKIoGUWyo+mUqutNRUDS7vqix706GEq8REyWpV5zf30bcP8olWviayuLzFHTMsVXHXnp85LBVPA8cgAAIgAAIgAALpIQBLlZ61SPlIhoeHb7311kcffTTMVcFSpXwFMbxOCVy6dOn06dOdPpXc/WJ+VGiCkydRyluQyptGpWi8oOJm06iprqmSvc1wN+Iw5QRgqVK+QAkND5YqIdDoJhcErly5sri4aBjY856L5cQkRAJnzpx58803xXP4BAJ9JvDVr351bGysz4NA91kgsL6+/pGPfGRgYOBTn/pUoKuCpcrCMmKMuSJQ52tNBSU4kXrorloql8tKVdytJ7RQ9udZibj4rCt/aSvxXnxKLQFYqtQuTaIDg6VKFDc6yzgBvOMv4wuI4bcigHf8taKDayAAAqknMDw8PDAwcNNNNwW6Kliq1C8gBpg/Arw3Inv1lIpWqzca9UZDr1W53CdWUspbv6rJ7wSktyiVWr3VXxVzmVfexvIHN68zgqXK68p2Ni9Yqs544e5iE4ClKvb653z2sFQ5X2BMDwTyTmB9ff3DH/7wAI33v//9HlcFS5X39cf8UknA0PmEKqvAeeAPWfW8n49TTsIDsqqFqiruGUVr5bNSCQuDIgRgqfA9IARgqfA9AIHoBGCporPCnZkjAEuVuSXDgEEABDwEWDoVE1UDAwO8q5qcnBwYGPj1r3/9mwixc+fOu+++29M4PoJAqgi8/PLLzzzzTKqGFDKYRq2iCBv7BOlkffBt0eNf+0df5yc8Faaq3PQruaIHjafRCClsFXQzzvWBACxVH6CnsMvuLNUPfvCD4Tji/0sk/jmR2J1I/FMiMZRI/L+JxD/GGn/+538+MDDw+c9/3tPqYC/j84mElEjckUj8P4nEPyQSf59I/B2Nm2666aMf/Sg77sXvf5tI/N+JxP/Vs7g9kfibROJzicRfJxKfTSRuSyR2JRL/ZyLxV7749Kc//T/+x/9wLBWfV7Vz505YqhT+nwiG1DWBlL/jzzsvo17TKqoil2Wy80+taFpFKTvhLUhlmrykImlWpIaV13XJSqUmOieukFWgpWrQzK4wxeUdMz73gwAsVT+op6/Pri3VH8caf5JI/Gki8WeJxP+SVHw8kfjzROJ/bjs+/vGP/+mf/mnrZj6RSPxFz+J/TSQ+mUh8KpH4dCLxv/U+/uIv/uJTn/rUX/Y+/vdE4jOJxC2JxK09i/8jkfCZhA5OfIhGlAcSsSKkk0Qkz65EhNVtici3zyYiEv+aSdFbb73Vo6icjKqbb74Zlip9/yOCEXVPIGOWyjNR4Q2AAUKJ27pHiqZbTwepqjKnqgxNdcSX+5TTNV/oSlZrznkcpIkALFWaVqN/Y+nOUvVvvOgZBEAABEAABECgKAR27SK+piizxTy3TeC+++5ju/z4LKpbb7319OnTqEu1bbpoIF0EMm2pmrWKbG8CDHr7n+nu3CuXvT7JqGv+yuukrjovqcqK5lkvgzdfLHnLaNJS7k1UsPKw6udHWKp+0k9P37BU6VkLjAQEQAAEQAAEQIAnAEvF08BxawLr6+tOIhVzVcxPsadgqVrTw9XMEci0pSK0aWJUuewrSEVXgrNUAUlR5OkAVeXkUZXLZaXaFJeUd1RypVar8vsH6d5B8X586hMBWKo+gU9Zt7BUKVsQDAcEQAAEQAAEQMAiAEuFr0J0Avfdd5+zv4/3U6wFWKroJHFnJgg0m81Go5GJobYYpGEE5zG1tVS0TaOu+YpVMVXldV+sIBWvsfzHipZ5nC1IZ+YSLFVmlqqnA4Wl6ileNJ4zAmfPnv3a176Wgz8T5GxdMJ1YCHzrW996/vnnY2kKjYBAXASOHDly9OjRuFpDOzkm4CRS+f0UmzUsVY5XH1PLHwG94lok744/z2ytnCz3/nK5rGqC/BKqYAk3ih8CNx96usPHHhOApeox4Iw0D0uVkYXCMFNBYP/+/QMDA7puF3FMxaAwCBCIh8COHTsmJibiaQutgAAIgECyBO67774wP8UGAkuV7IKgNxDYFgGhxJRTPT28SUFVefYIGrq3jJWsVmt6o96o16riJc+T4f3hSs8IwFL1DG2mGoalytRyYbB9JgBL1ecFQPe9JABL1Uu6aBsEQKC3BE6fPt26A1iq1nxwFQTSRUBIf2K1ztsPkBarktWakEhVrypCxpSqNYTrdlV1WanWhQvt+8MdPSAAS9UDqBlsEpYqg4uGIfeNACxV39Cj494TgKXqPWP0AAIg0DcCsFR9Q4+Oe0Ngbm7uq1/9am/aTkWrQimpFnvxjGard/Q1uApXpKh6YO2phlap6DBUqVh2E5YqHevQ71HAUvV7BdB/lgg8/vjjf/zHf1yv17M0aIwVBKIR+OQnP3ngwIFo9+IuEEiIwC9pJNQZusk1AViqXC9vESeX+Xf8tV800TDJiubNdSL7/ORyuSx786PstoWMrHLZk2Vl3xXw02jUa5oTtbqYfhXwAE7FRQCWKi6S2W4Hlirb64fRgwAIgAAIgEB+CeAdf63X9uqp2dlTV1vec2F+H4v5Cy3va3Px2uLsvu210KaDnl+Gpeo5YnSQLIECWCrTNHTPdr2yrKiVqqZp1YqiEEHlRJCp0qnDsm+J5KjIpkGxYftxWan4NFmyS16M3mCpirHO7WYJS9WOEK6DAAiAAAiAAAj0hwAsVWvuVy/Oz+6bXbxm3XWhZBkp7odz9epVdttFW1txN4UcOs+S9knjJdt0EWkVGO4jV0+F3BLwnPtU6/lu5yos1Xbo4dkUEiiEpTJN02hoYoVz2xp5fxJNJayTWJBK0ZrCVf+HSD3JKlSVH12cZ2Cp4qSZ3bZgqbK7dhg5CIAACIAACOSbACxV2/WlMsjKcrpQ2tcutco0iaWKkBVFPJQoj/h0Kv9V0zTFk2RgjtUyWb9ig2xu4lNt59v1DbBUXaPDg+kksH///qGhoXSOLfZR0bLoXi3FfQ5wR02hIJVSbVOuw5+1xTXvOfT5sNjnW+QGYamKvPru3GGpXBY4AgEQAAEQAAEQSBMBWKoIq3GVbMa7SG7sraXihxKolsSToqUiGw+DDZr4FN9JvMewVPHyRGsgkDgBo6FrFc9uPFlRqzVvuSqSgaXzCVgtaq+zWYgVsIiUklVNd4pR+Xtu22LidHLTISxVbpZyWxOBpdoWPjxcMAJPPPHExz/+cVRPL9iyF2W6f/mXf3nw4MGizBbzzAiBX9DIyGD7P8zeWCpiwfggRoxTS26n3EnTNDlL5W3Bac3TVE8JwlL1FC8aB4FUEeioIJUh3l0uK9UA7+XbexipzFWqqGRjMLBU2VinXo8SlqrXhNF+ngjs379/YGBA1/U8TQpzAQFGYMeOHRMTE6ABAiCQXQJBdaksI+TmMXE7/uhuQUcZiXeKysliQp6lu/a4q+0slaOo+G2G9OTsIin8zjXVU/KwVD3Fi8ZBIEUEGkLJdaUqlqvyDtTjqFpnSfFJV3K7XYTenvA5CgFYqiiU8n8PLFX+1xgzjI8ALFV8LNFS6gjAUqVuSTAgEGhJwHVSdvknVxgJD5LddmxLIDntsVRMFVn3E3lk+awAecTt2nOvhj7CcqnI76wL0i8dBj1wrZnblDDo2D/AUsWOFA2CQCoJNDWVqyPVriCVaLTKZVlpUx29XnVeLShX8PfW8X8FYKniZ5rFFmGpsrhqGHO/CMBS9Ys8+k2AACxVApDRBQjEToB79R4TRhecMlWsL9cTsc/dWirSkaO0XLXUxlLx83W1mtMOcql4QDgGgU4IfOMb3/jkJz/ZyROFuNeoCQWp2mzLM2q80XLlllKpOUWpvNiabqaWXGlTk937LD63JwBL1Z5REe6ApSrCKmOOcRH4yU9+8pWvfKXRaJ05HFdvaAcEEiXwjW984+TJk4l2ic5AoB2BY8eOlUqldncV+jpnqVjO1NWrp0jWkvV+PaKTuESqbnOprL2Bs7OzTDBFtVSLfE0rN5+LjortMJw/5XuZYG/WE7lUveGKVvtG4K677tq5c2ffuk9px3VXIZXL5TaOyuSEk2uonKMwVcVtEVS0lHLI8LBgqTK8eDEOHZYqRphoCgRAAARAAARAIEYCeMdfW5iupSJJUrRoFHmGGCsr7P2AVlNd5FLRlmdnSfOLLKPKtVRWR/466GzHnzN+O5HKGaF9xW3KPtObn7BUveGKVvtGAJYqAL1R19xUqnYFqcympjhKqkzqUfFPsyuyrPp2AOoV5ylYqoBF2OYpWKptAszJ47BUOVlITAMEQAAEQAAEckcAlqrtkjqWihzwO+lsUeVmMLG2PJbKdlnOT19dqquLs0Qt2R3RjxftBCjqmGZnabqW6Js8lsqeiGW1UJfKBoKfINAlAViqMHBMNkUoGsVLKqd+VYCqKguqik/AgqUKW4Tuz8NSdc8uT0/CUuVpNTEXEAABEAABEMgTAViqtqtpySPintydfdYGvdIFcnWfXRCdteWxVILYCi0yRbKzSvYuQm5MVEWRbX1eF2aarqWiY7MtGHKpOHw4BIFtEHjuuee+//3vb6OBfD9qGEa7CXI798qeClNGo1bh8qxo7pSlqnhJFWzCjHpNq6iKQn9VKlqt3mw7lnZjLdB1WKoCLXaLqcJStYCDSyDgIVCtVq9fv+45iY8gkA8C77zzjqqq+ZgLZpEbAnfccYckSbmZTi8mwuTR1Yvzs3Rnn+Wn/MbKsVGcpWo1HjExKsRSEas1f5H9bjVGBkD7ci0V3w1p1g62FdHXEX97jMfY8RcjTDQFAnkgwFuqoKSoIFVVlmXnFX+k7pWHg6FXFe66szOQvDuwUqtDVnl4BX2EpQqiUrxzsFTFW3PMuHsCeMdf9+zwZOoJ4B1/qV8iDBAEvAQsJyUYqIC0JvPi/L7Z+QvX6OPxWSrbQ/kslePLPCWxvMOnn2GpArHgJAiAQK8JtLNUtH+jUQsTT2VV47WT0eB3EHKCijsUtg72en4ZbR+WKqMLF/OwYaliBormck0AlirXy1v0ycFSFf0bgPlnjQDdzWdXjNo3fyHi+IX9d3ZaU/BPYXeeZ8cfFWSsU26foOkeWwYtuGXPWaGjiPPo9DbkUnVKDPeDQM4J8O8DVKrNVrMNLFZV0flHmjW3brvlpWSy6c+fWiVXag1eb/Gt4NiEpcKXgBCApcL3AASiE4Clis4Kd2aOACxV5pYMAy46gYvzbjWoKO6JZTbFkEtFVJRQqV3o3fJldqZVu1VCLlU7QrgOAoEErl69+vOf/zzwEk5GIyAmU7UVR6Kqcsqtu30ZDfsNgwovooymrnmrXClVvW1/bsOFOoKlKtRyh04WlioUDS6AgI8ALJUPCU7khwAsVX7WEjMBgR4QsHKpaGEp9w19PeioR00il6pHYNFsvwjgHX/bJy9oqmo9SoNGndZVl9UQy2TUtarWCGiJVLkS8qqUwNsCnizYKViqgi14yHRhqULA4DQIBBD45S9/ubCw0Gy2TAoOeA6nQCADBF544YXXX389AwPFEItE4Bvf+MY3v/nNIs0Yc+0VAViqXpFFu30iAEsVA/gmX0pKroSYJ19HRoQ3CPoeMk3T4LVYuaxUg3RW0INFOgdLVaTVDp9rLyxVtVp944033n333fBucQUEQAAEQAAEQAAE2hDYtWvXbbfd1uYmXAaBCARgqSJAwi1ZIgBLFctqiSXPA0tGGTrZr0cuxdBjo6q41dRlsbRVDM3noAlYqhwsYgxTiNdSMT/1/PPPnz9/PobBoQkQAAEQAAEQAIECE4ClKvDixzx1WKqYgaK5fhOApYppBTwJTuWyrFSqNb3eaNT1WkXly58Hmyqj2dBrGgnyVLtyUwafvtWmaHtMM8xWM7BU2VqvXo02Lkvl+KnnaSCRqlcLhnZBAARAAARAoDAEYKkKs9Q9nygsVc8Ro4NkCWxsbLz22mvJ9pnX3gz+dX9uqlPQkapxdT9IrSneYjnv9qtoejNEV/XEUnW5AzGV6wlLlcplSXxQ27dUjp964YUXmKJCIlXiy4gOEyJw+fLlH/zgB6hLlRBudJMsgaNHj168eDHZPtEbCLQh8J3vfOeBBx5ocxMug0AEArBUESDhFhAoLgFqnIK8lHNOFl/M58vBcm50ZJVardU9ssrQVO4+tRYHcFpdS1Y1b19xtJ18G7BUyTNPY4/bsVR+P4VEqjSuMcYUHwG84y8+lmgpdQTwjr/ULQkGBAIgEB8BWKr4WKIlEMgrAaOpawHZUbKiVnVxL19TsE2cePIfykpFs58WkrbiKUvF2zKiqrK+NrBUWV/BeMbfnaUK81PPP//88vKyggCBnBL4/ve/v3Pnzvfeey+n88O0Ck3gT/7kTx544IFCI8DkQQAE8kvg8OHDO3fu/PWvf/2bCLFz58677747nj9qoxUQAIHsETAapC4V/RW4dU98WV9ZVqq1Or2/plWUgE2A1F3JiixzEivsFX9Gs17TqhVVUVRFrVS1Wj1wCBZUwXuV1Zondyt76GGpsrdmvRhxF5aqWq2ynCn8DgIgAAIgAAIgAAIgAAKZIPDpT38alqoX/zeBNvtC4NSpU4cPH+5L1+hUlFSK5n37H83JEgqvc3aKHcqq7hNKRqNWDVFcIRv6hFcGlv0DyeBSwVJlcNF6MOQuLJVpmtVq9eLFi88//7xTi4r96eTUqVPnzp27gQCBnBKYnZ39xCc+8fbbb+d0fphWoQl85jOf2bdvX6ERYPIgAAL5JfDoo49+4hOfgKXqwf9MoMn+EMA7/vrDnfbKv6dProRvsqNpUeQ9gXwOFbVUvqQno6Gpvrs8bkssjGWaRo0vcqVUwwfSR1addg1L1SmxfN7fnaViLMJcFV7wl8/vCmZFCeTpJRpYUhDgCeC7zdPAcUoI3HbbbZ/97GdTMhgMI9MEUJcq08uHwfsJwFL5mSR2hrdUihalW3FjnnezX/SXDMoVJwWLL0hVLnMXoownvffAUqV3bZIc2XYsFRunx1WdOnUK7/hLcgXRFwiAAAiAAAjklcCuXbtuu+22vM4O80qSACxVkrTRVwIEYKkSgBzWBb/jL0oN9AavtcrepCfxKsmfIvXW7WJUrKK7m1Vl9yd6L19uVtjQU38elir1S5TIALdvqdgwHVf1PA2kUyWyeugEBEAABEAABPJMAJYqz6ub7NxgqZLljd56TuBrX/vaJz7xiZ53gw4CCdSr3O68duWgRAvlSXoSM6LKpBB73VewyjT521TNMJse7+WtjBU46kychKXKxDL1fJBxWSo2UMdVIZ2q5yuHDkAABEAABEAg7wRgqfK+wsnND5YqOdboCQTyT0AsCSWrWiNALREMvF6iaVJak6fDZ2WRJCpfIXb3Zld2qZpQkMrOrnJvzfIRLFWWVy++scdrqdi4qtXqpUuXkE4V3yqhpbQQeO6553bv3t1o5OfvK9JCFuNIAYEvfvGLpVIpBQPBEEDAJcDe0+J+xhEIdEsAlqpbcngOBEAgiICvlpSsarrgqshePc8r+zwFqcRX9Mnttu15lBbbBdj2qaDBp/gcLFWKFyfBofXCUiU4fHQFAokS2GTtjbQAACAASURBVL9//8DAgK7rifaKzkAgEQI7duyYmJhIpCt0AgIgAAJJE4ClSpo4+gOB3BMwGrUKt/PPqR0ll8tBp0mFc56JJx/LrYvO3yQcCylUrDtFzM0Sbs/kB1iqTC5b7IOGpYodKRrMMQFYqhwvLqYGS4XvAAiAQI4JwFLleHExNRDoIwGjrqmBTsqRVvaBJ1WqWVXsK3Svn7ATMHhCvmQqT25W8FPZOgtLla316tVoYal6RRbt5pEALFUeVxVzsgjAUuGrAAIgkGMCsFQ5XtxiTu3AgQP//M//XMy5p3DWRr2mVVSyv8/9pQjb/bxCSah/LlfqUSblsVSe3KwoLaT/Hliq9K9REiOEpUqCMvrIC4Gnnnpq165d9Xqk/5DkZdKYR1EI/N3f/d1jjz1WlNlinhkh8AqNjAwWw0w1AViqVC8PBteSwM033/y+oBgYGAg6/b5f/OIXLdvDxWQI8E7JXz2Kf0lfxG17YvZV2ZOblcyket4LLFXPEWeiA1iqTCwTBgkCIAACIAACBSSAd/wVcNF7NGVYqh6BRbMJELj55pu/8pWvHIoWAwMDsFQJLEr7Lurcjj656v0rbl5hKdUIu/1MU8i+Kkc0W+3HmbI7YKlStiB9Gg4sVZ/Ao1sQAAEQAAEQAIE2BGCp2gDC5cgEYKkio8KNqSPALNVvIsRPfvITWKq0rF+z5tSrCtiaxxVCD7gaNAfhhYCKT3sFPZLFc7BUWVy1+McMSxU/U7QIAiAAAiAAAiAQBwFYqjgoog1CAJYK34PsEoClyuzaWaXVFc03A27DXyRLZeiO8yqTlwUavhZzcgKWKicLuc1pwFJtEyAeBwEQAAEQAAEQ6BEBWKoegS1gs7BUBVz03EwZlirbS2nU6w3fDLgdf1EsFb99MKcFqSxEsFS+70ohT8BSFXLZMekuCTz88MMf+tCHdF3v8nk8BgIpJvBHf/RH3/3ud1M8QAytiATeo1HEmWPOcROApYqbKNpLjgAsVXKsk+uJS6ZqW5eqwd1c9r4sMLkhJ9ITLFUimFPfCSxV6pcIA0wRgf379w8MDMBSpWhJMJT4COzYsWNiYiK+9tASCIAACKSIACxVihYDQ+mQACxVh8AycTtfC91fXJ2bgsGlXZXL+S1IZU0Zlopb+wIfwlIVePEx9Y4JwFJ1jAwPZIcALFV21gojBQEQ6JgALFXHyPBAagjAUqVmKeIciOFWVw+vNGUIaVRlWc1vQSqLLSxVnF+y7LYFS5XdtcPIkycAS5U8c/SYGAFYqsRQoyMQAIHkCcBSJc8cPcZFAJYqLpIpa0c0UEql1hBqolul18tuKFpze1MwGrpWURVZttuUZUWtaLW60PH2+tjm07BU2wSYk8dhqQIWsrm1cU0NOC+eCq5NpKtbW1tqxLJF2/z3jDgefEqAwCuvvDI9Pd1sYuUSgI0ukiYwMzNz9uzZpHtFfyDQksChQ4cefvjhlrfgIghEIgBLFQkTbkolAViqVC5LHIMSd/MRdSQrikp/OSLJFkrbLEhlNDTuLYFOo/aB7JNkccyvizZgqbqAlsNHimip5OXZA4uboSJpfW6PJN05s+J/Yyi//leOjA6OjB9e8rZzblqSpOlz/K3Bx1tnp0cGhw++Gny13dmttbNLS938Wttq1zSugwAIgAAIgEBKCOAdfylZiBwMg1mq/ynGx2mI58innTt33n333TmYNaaQDwKwVPlYx+BZGHpVsVVRq59R3gQY3INpmo1axW+9AnpTqn3PqoKlCl3FQl0ooKVaPzoqSZI0Mr14LdhU6ednhiVp+NBqq2/C1mrp/hHSztDozAvrbuYVtVQz51s9al27sTA+KEn3Htlw8nLeKtGRkVaDY9+y3e4ykWHdxLTThN0UfoIACIAACIBASgnAUqV0YTI4rIceemi3Lz7ykY986EMf8p0mJ2CpMrjIuR0yLFVul9aamFHXKopXI8nuvrzwulVRyDT4AliWmpIVRVErlYqqePuVK/0tfQVLFWVN839P5i3V+ZlgV+MKnYBF3Dw9PTIoSYMj02e2Vg6PjOzx/BoekiRpt+fkyMjhFU9bW5dKkyPS6NENU9tYoZlNi98bJQLsGTHR6XJwAtPaY3tJ4tVZW5ZRSzUyfTwoSWp2TJIkd1LUUj2wuMXH9eUjjy2uXeNPCceLD5DeYKk8i4iPIAACIAACqSUAS5XapcnHwG6//fZbbrklH3PBLHJMAJYqx4vLT81o1GsaiVq9YdT5FKttFKQS2iGOSqnqTbEMlbcAlqI1+GElewxLlSzvtPaWdUu1cZSInqHh9kbJswLq5bmx3WOlK+byPkkaHPKJKm+DQ4O2JGquzo1NzS3bW/2aut40zdZpUK5dEkchry1f4gQWbWT02IZ4E/tEtZTbjuejaZrq8r5hSdo7txb0ND1HZgpLFYon0oV33nnn4sWLhiH+qz3So7gJBNJOYHV19dq1a2kfJcZXMAJf+tKX9uzZU7BJY7rJEbj77rvvvPPO5PpDTyDQFQFYqq6wZfohobC6Uq13Oxld3OkXniglVshSa337nx1Yqm7XOl/PZdxS6Yv3S5K098iVrlaFbrUj7ubeUqAZ4hrdKN1rW6o3joySVCtpaM9UiXdM9O61x0YkaXzBVU9+nbS58G2vAhvZM7lwzVJdjqUSpZKnHc9Hc+MYybUK022zNAlMbJCbHA4jE8A7/iKjwo3ZI4B3/GVvzTBiEAABEACBAhCApSrAInumaDR1u9j5NgpSefKo2uRI1avupsNtJG95ZtLpR1iqTonl8/6MW6o1Uul8cMa7E6/lWm3dcB2SaZpbl5cWniottKlEvlB6amHJ2binb60emxwZlIb3r9i79ViXWwvjkrT7IFfRitdJ+uaVLd30WiqSpSWNlt7q3lJtnJwclqShe6dmDswIv/aP09JZw7OXyPBgqVp+LyJdhKWKhAk3ZZMALFU21w2jBgEQAAEQyDkBWKqcL3Do9MhWvEpIWlP7vR1NTSjL3j4/qsltMlRav0gsdMjbvgBLtW2EuWgg25aKSiEhdandorDK6Hv3L206NctNc+NYm6rlRCP5N+JtbWzKprm1evwFe5fdjeNjkjT0PV6a8ZZq48g9kjS1JIgtVkN9jCZziTv+RKnEt0OME6meTjYAqmuPjw1J0t6vjA4Njsycc8u4m/r68W+TKvDTZy0rJzbYjhSuBxGApQqignM5IQBLlZOFxDRAAARAAATyRQCWKl/rGcdsjJpaLsuq1uKVfOJmv/aOyjRNTmvJFc8uQ6Ou11r0FsekaBuwVLGhzHRD2bZUtHT68AOzsxOjtOC5JO3eO354yS4ZFbQy+ubiNE0wCn/HX9BjQeeaVkaVNDi1RGyzujRNfNHcG/zNjk6y1dJ+3mGpdMfiqLVjsXNLpb4wKUlDY8fWddPceGpsSBqePLa61SSGanJEkgb3HlxxvRUsFb8w3R3DUnXHDU9lggAsVSaWCYMEARAAARAoGgFYqqKteLv58kWkwlSVrrr798pKNVI99BaWynJeYb21G3H067BU0Vnl+c5MWyo3B2r36NSBmZnp8b276Rv/RmaW5Rarpq+fIFvkpKGpRXqbfmUl6LV6rd7Tx97uRzobmaTVqdSVQ6SO+/AhbrcfGQK1VN9eVE1TvzQ7IkljT206I2PFpMacLC3RUi2RdCnnlXy87bKbJblU+tZ1dwPj5tmZvYOSNETqZg3dO7viXqFDQfV0B323B++8886rr77aPsO22/bxHAj0kcClS5fefvvtPg4AXYOAn8AXv/jFL33pS/7zOAMCsRDYu3fvF77whViaQiMg0DsCsFS9Y5vJlj3lpspBeVIk18oJVYtUDJ3PvhJ3/DW4vYBltdZLarBUvaSbnbYzbalWDo8MD0ljR0kmkRXNzcUpIqC8G+vs685PdWVuzt4f59ou6riCf3Per3djZe5+mo01OGIlLl1bmrmXiqGvlza4jYS0L31pimtvcHzhhjUE9dw0Gege7qV8gqWi9drdq2GWympNV9eXj82M76HDGKaJZYNDI2NTcyeWVte3VLqxGLlUzurjAARAAARAIBMEdu3addttt2ViqBhkFgncfvvtt9xySxZHjjEXigAsVaGWu+1keZlULgfnSdW5d/tFL79OarZXFJKDJSRf0e2FtvJqU4K97ejb3QBL1Y5QMa5n2lIFL5G8OEnqkfMv2gu+0TlLLZWTteScdg5EQ9TcOHKvNHJ/adXOVGK+ida6omrJ88bA5tb6MkvLWl63H9HXj4yRQUrSnrGxkZGp0zTBym+p3KbEMVh1qRbWTpdmp8ZGWAbZ0PDYvtLyFarstM21F+amxqx9kCS16nsrS8ilcpYUByAAAiAAAlkgAEuVhVXK8BhhqTK8eEUaOixVkVY7ylyNRo3JJKKTPPWj2PPc3r0ucp+MRsNNvjJq3N5BWa1WFOqxqLWSZUWtaHrTvTvK8FveA0vVEk9hLubQUpmspro0fa7VKuq6m4DVmaUileW4h2kn9nsDgyyVbxTq5TmiqAaHh3dL0j0zcyT5a3jy5IYpWCqqpe6dWTi7RtVWoKVaWnts79Dw2NTh0tLa5sbZubkTS0uvrm/J7tRMXd1cWyodnll4A+/4860EToAACIAACKSbACxVutcn86ODpcr8EhZjArBUxVjnDmdJVJVaDXkDIGeplGjb/cJ6924vtHOqxJ9KpcaJrbC2opyHpYpCKf/3ZN1S6bLKKRlrvejWttaWaqN079DIxPF1+kRnO/7eWJg5MBPya2p0tySxIlkh9xxZ/tXCuCQNjpWu2EqruVH6+pAkDc08NTfqvExwbY7uKnRKUwVaqmXuC6ouTpHtfnYMDe8ZHZ8+ssLV58KOPw5Xl4fnz5//7ne/22x6N3Z22RweA4E0Edi/f//S0lKaRoSxgID58MMPHz58GCBAoEcEHnnkkYMHD/aocTQLAnERgKWKi2Rx2hEs1TamLRSkEsWU75OsapFqtLceDixVaz5FuZphS9Wk5cWlyUVadIlbsM3SGKlqzhV84i6yQ5Zu9fXjbAcetVRTi1thsUhKSzl1qc6RquZdx+ixja3nZo/Ql/KV7pUktqevubF0VsilWn98L6mCTrbysa2IbS0Vm5iubm2uLS8df3xmamxk+B6BASyV73vQ8Qm8469jZHggOwTwjr/srBVGCgIgAAIgUCACsFQFWuyYpsrVropelsrXt1CQilgpWXW39xnNeq3KbQak1yv6djf/wVL5lqGQJzJsqeydfVNnxGyqG8eJpNp9cCU830U/PSk5WUum2fGOP99XZevszMigNLyvNHuvJN0zPT0mSfcc5POYfE+YpmnnUjnXmrq6RSudN1cP3kmmcNB9zR+5tKXqusYmy0urrcUHxqYOzMweW1xaXtvcUvWQicNSOaS7PoCl6hodHkw/AViq9K8RRggCIAACIFBAArBUBVz07U6Ze8efXAksXdW2B4NTXURBKVrQpj5D59//Vw584WDbrrgbYKk4GAU+zLKlMvUz9P15d04v2VXJTVKWnOQ5jT210WJVqa8ZLb1l3UIt1dDwnpGR4F+0BrmTS+VtV107NkkqS+1b2mra4klenhmRpDsnj3OvH/Q+57dU9h0bx8gcRo9t+LzS6sHd0tChFdOqns52/K3M7iHvOuRjaHhkdGJ65vHjxFvZeyJ9rdn94WdkArBUkVHhxuwRgKXK3pphxCAAAiAAAgUgAEtVgEWOfYq8YmrxXj5Dr6rVwAQosSCV3CJLSky5El4P2Pm0YKk6Z5bHJzJtqUxTXd5PyzcNjYxPz8xMj49QWTO8b1l1F4umHUmukzKbKwd3S9IedzcctVR7x0MqSc0cGN/L7/hzWzbNrZXZe0mXew+t0B5tS2Waprw2R1zT0OiBpU0x2ctugLvZPmWa1LMNStKdB1eb/nrnTgqVc8A/qW5dW1s+e3zuwPT4vSND7B2CkjR+0nJ4sFQcrC4PDx8+/OEPf5gvvd9lQ3gMBNJH4Oabb/7ud7+bvnFhRIUm8C6NQiPA5HtJ4L333rtx40Yve0DbIBADAViqGCAWr4kmV5uqLKu1gJpRhmOilGpd3KonPB32JkEHar0iu2WqlGrIxh7n9lYHsFSt6BTnWsYtFbE6m2dmx79spRINfXl89oxHCvks1asHhyRp5LE1Z5X1KytL1qv0nHP8wdba2aWly06+Fr2kbSwdGCW9Do3OnncuieKpubVymN4zODS6r7S8bic1WW2LN9OT9uv/xkpXyGevV6LltEaPbYi5VFZz/h+6vLm2vLJh1+3ytuZ/AGdAAARAAARAIE0E8I6/NK1GDseCd/zlcFHzOCVYqjyuagJzamqq645IUalqzXZRpKhUReGvlv//9u7nRa5yzQN4qYNx065EyKJduHAXELLQCOlWDFEwctFFmiE4chfehSTMNN5xMWIjPeLN4mp7MTpjSHDugFGiSMIQMBEzMDotPY4ijkKSTif9s/6OoavTZVW63+pT3ee8dd5zPoWY6n7Ped/n/TyFkK+nzrk2N9+uqfvqqAx3tupKxOY2v0KjPXvPN1Kqnjy1GUw/peq7VZf+tPpAveNfryZcP3x57tz5fv75ryvN/7t06o0/rF2pdOTVU5fbCdVqIZsETws/nfvn1vVWq9/Ie37s7/+t/VXE7oOXr1xufXPw2d/9/vjahVnN5g//unoP9X/8eKZ1X/efL/9l9eqsifOr+dXqHaueHwt8RXHzry62vhW4di/2vtGcQIAAAQIE4gtIqeKb12pFKVWt2p3uZqVU6fZu0JUvdQdVXbFU1w9dD+jr/LZgpjtNLXfem2r2ZvdlWf0ZSKn686rq0bVLqda+7ve7iQurVyK2cqLO+zlt+f6NC81rFyb+9tnnX5r46392BVStT0h38NTxoVn433Nvj/9+7OipH367ArJ98JXLpyda11w9++yRic9+6kiff/zry7euEluv7Mjbl1dnkFJ14HpLgAABAhUVkFJVtLFl2ZaUqiydUEdPASlVTx6DvQVWFm/OdnwfryubuvXDbNedqZY6I6fVe6b3nr/ZbHaHVDe2PqHHjFKqHjg1GqpfSrXww4VTE3851xEF9d/umwuB09vBU5Y5fz7zxyNH/njm52bz+n9MjD3/h4l/v3zltwxrfYaF61dmLrcu+Lrw7U/t5/et3jH9yJ8vrR+U6c9Lfz5y5O/e7u+cTBM7iAABAgQIFCIgpSqE1aTrAlKqdQl/llpASlXq9iRR3MrizeubZVXXZudurn8LcG0j/d2QavWclfnrHSnY7I3tPVFwnVFKtS5R7z9rl1LVu912v0OB06dP79+/f3FxZ//13WERTidQjMDBgwfffffdYuY2K4FtCly8ePHSJf97ZZt6TttS4Kuvvvryyy+3PMwBBAYrIKUarH+FVl9ZWpy/ufaaX1ha2vjNvJWuL/tdu77p0/+6Qdp3YG9dmHV9fuOk3cdv8ZOUagugmgxLqWrSaNvMRWBycrLRaHjGXy6YJimbwNDQ0Pj4eNmqUg8BAgQIEKi5gJSq5h+AeNvvyqiuZkmcbr/0akff9lvdqJQqXrvLvJKUqszdUVvZBKRUZeuIenIUkFLliGkqAgQIECCQl4CUKi9J8/QUuO2GVBnuL7Wy0PllvwzPAuy5fmtQSrW1UR2OkFLVocv2mJeAlCovSfOUUEBKVcKmKIkAAQIECEipfAYiCKzMX++4s3qmxKn/S6+23oeUamujOhwhpapDl+0xL4FPPvnk8OHDS0s7vpg1r4LMQyA/gRdeeOH06dP5zWcmAjkIfNp65TCRKQhsJnD27NkzZ85sNuJ3BEokIKUqUTOqWsqGq6K2vr3UbZdeZXgWYBY8KVUWpeofI6Wqfo/tkAABAgQIpCngGX9p9i2Zqj3jL5lW1btQKVW9+x9n96tPAVx/VN/szY3Pnb+9iuWbnZde7fTJfr/NLqX6zaLO76RUde6+vRMgQIAAgTILSKnK3J0K1CalqkAT67AFKVUdulyKPbaiqtksN6Sab0daV69evTaX4VmAGTcopcoIVfHDpFQVb7DtESBAgACBZAWkVMm2Lo3CpVRp9Kn2VUqpav8RKBvA4o3ZjntYZXkWYOYdSKkyU1X6QClVpdtrczkLrKysLC9vfQlszquajkAUgeXl5ZWVre9CEKUWixC4JfD4448/8cQTOAgUJHDw4MHHHnusoMlNSyAvASlVXpLmyUXgthtSZbj0qo9lpVR9YFX4UClVhZtra7kLeMZf7qQmLI+AZ/yVpxcqIUCAAAECbQEpVZvCm8ELdD8LML8bUt3amZRq8C0uQwVSqjJ0QQ2pCEipUumUOrchIKXaBppTCBAgQIBA0QJSqqKFzZ9ZYGVhbv0e66s3pLqe3w2pbpUgpcrci0ofKKWqdHttLmcBKVXOoKYrk4CUqkzdUAsBAgQIVFNgbGxsamqqr71JqfricnCBAt03pMryLMB+i5FS9StWzeOlVNXsq10VIyClKsbVrKUQkFKVog2KIECAAIFKC8zMzDQajeHh4exZlZSq0p+IlDa3PD93rX0pVZZnAfa/OSlV/2ZVPENKVcWu2lNRAt98883777/vBupF+Zp3oAIffvjh119/PdASLE7gdoF/ar1u/62fCeQkMDEx8eqrr+Y0mWkIZBXYu3dvo/XKmFVJqbLKOi6CwMrS/Nzs1avX5hYKWUxKVQhrcpNKqZJrmYIJECBAgEBNBEZGRkZHR2uyWduML3DgwIF9+/bFX9eKNRdYu5yq0Wjs2rUry3VVUqqaf2BKuP2Vwh4LLaUqYbsHUJKUagDoliRAgAABAgQyCEipMiA5ZPsCUqrt2zlzZwJ79+5di6iyZFVSqp1hOzslASlVSt0qrtbtpVRLXgQIECBAgACBggX2798/MjJS8CKmr6/Ak08++eijj9Z3/3Y+OIHvvvtu7Ut/7X/3uK5KSlXc34XNXDYBKVXZOjKYeraXUp04caL9n1RvCBAgQIAAAQIECBAgQKAvgbvvvnvT44eHhz///PP2Xw6lVG0KbyovIKWqfIszbXDbKdUbXgTqJ/D00083Go3XX3+9flu34+oL7Nq1a3R0tPr7tEMCBAgQIFACgXvvvTdLRNVsNqVUmf5a66BKCEipKtHGHW9ieynVjpc1AYEkBSYnJxuNxsJCMc+0SJJE0dURGBoaGh8fr85+7IQAAQIECJRVYGpqamNEddslVO3apVRtCm8qLyClqnyLM21QSpWJyUEEWgJSKh+ECgtIqSrcXFsjQIAAgVIJ7N69uzOlCuVTazVLqUrVO8UUKiClKpQ3mcmlVMm0SqElEJBSlaAJSihKQEpVlKx5CRAgQIBAh0DnhVS986m1k6RUHXjeVlxASlXxBmfcnpQqI5TDCDSbzRs3bvzyyy8oCFRS4Ndff52bm6vk1mwqXYFnnnnm0KFD6dav8pILPPfcc0899VTJi1Re9QSGh4cbjUaWfGpt71Kq6n0G7CgkIKUKydTr91KqevXbbgkQIECAQDoCIyMjo6Oj6dSr0sQEDhw4sG/fvsSKVm7iAlNTU9nzqbW9SqkS77ny+xCQUvWBVeFDpVQVbq6tESBAgACBpAWkVEm3r/zFS6nK36PqVTgzM9PvpqRU/Yo5Pl0BKVW6vcuzcilVnprmIkCAAAECBPITkFLlZ2mmTQSkVJug+FX5BKRU5euJiooSkFIVJZvWvFKqtPql2sEKfPHFFy+99NLS0tJgy7A6gSIEjh49+vHHHxcxszkJbFvgVOu17dOdSKC3wEcffXTy5MnexxglMHABKdXAW6CAaAJSqmjUpV5ISlXq9iiuZAKe8VeyhignTwHP+MtT01wECBAgQCAnASlVTpCmSUBASpVAkyKUKKWKgGyJyghIqSrTShvZKCCl2mjiNwQIECBAYOACUqqBt0AB0QSkVNGoS72QlKrU7VFcyQSkVCVriHLyFJBS5alpLgIECBAgkJOAlConSNMkICClSqBJEUqUUkVAtkRlBD744IM9e/YsLi5WZkc2QqAt8Mgjjxw/frz9ozcEyiDw361XGSpRQyUFpqenv/3220puzaaqJCClqlI37aW3gJSqt09dRqVUdem0fRIgQIAAgdQEPOMvtY4lVq9n/CXWsLqWu5ZS/Snbq9FoTE9P15XKvpMXkFIl38JcNiClyoXRJAQIECBAgEDuAlKq3ElN2CkgperU8L60Ag8++ODfbHjdeeedd9xxx4Zfr/5CSlXaVipsSwEp1ZZEtThASlWLNtskAQIECBBIUEBKlWDTUipZSpVSt9TaLfDWW2+NjY11/85PBJIXkFIl38JcNrCWUv1Dttddd9312muv5bKuSQgQIECAAAECvQWkVL19jO5QQEq1Q0CnEyBAIF8BKVW+nqnOdvTo0d0bXvfdd98999xz//33bxjZLaVKtdPqzkPgvffee+ihhxYWFvKYzBwEyiXw8MMPv/nmm+WqSTW1F/if1qv2DACKEvj+++9nZmaKmt28BAgQINCngJSqT7A6HX727NlGo3Hx4sU6bdpeCWwtMDk52Wg0pFRbSzkiQYGhoaHx8fEEC1cyAQIECBAgQIBAFQSkVFXoYkF7kFIVBGva1AWkVKl3UP09BKRUPXAMESBAgAABAgQIFC0gpSpaOOH5pVQJN0/pRQpIqYrUNfeABaRUA26A5QkQIECAQGaBl19+ec+ePZkPdyCBNASkVGn0aSBVTk9PHzt27McffxzI6hYlUFqB8+fPHzt2bGlpqbQVKozAtgVeeeWVTz/9dNunO5FAEQL/0noVMbM5CTSbzZMnT544cQIFgRQFXnzxxQceeCDFytVMoIeAlKoHjiECBAgQIECAAIEBC3jG34AbUPXlPeOv6h2u8v6kVFXubo33JqWqcfNtnQABAgQIECBQegEpVelblHaBUqq0+1fv6qVU9e5/ZXcvpapsa22MAAECBAgQIFABASlVBZpY5i1IqcrcHbX1Fvjsxd7w5QAABtBJREFUs8/eeeed3scYJZCcgJQquZYpmAABAgQIECBQI4HnWq8abdhW4wocPnz40KFDcde0GgECBAgEBaRUQRoDBAgQIECAAAECBAgQIECAAAEC0QSkVNGoLUSAAAECBAgQIECAAAECBAgQIBAUkFIFaQwQIECAAAECBAgQIECAAAECBAhEE5BSRaO2EAECBAgQIECAAAECBAgQIECAQFBAShWkMUCAAAECBAgQIECAAAECBAgQIBBNQEoVjdpCBAgQIECAAAECBAgQIECAAAECQQEpVZDGAAECBAgQIECAAAECBAgQIECAQDQBKVU0agsRIECAAAECBAgQIECAAAECBAgEBaRUQRoDBAgQIECAAAECBAgQIECAAAEC0QSkVNGoLUSAAAECBAgQIECAAAECBAgQIBAUkFIFaQwQIECAAAECBAgQIECAAAECBAhEE5BSRaO2EAECBAgQIECAAAECBAgQIECAQFBAShWkMUCAAAECBAgQIECAAAECBAgQIBBNQEoVjdpCBAgQIECAAAECBAgQIECAAAECQQEpVZDGAAECBAgQIECAAAECBAgQIECAQDQBKVU0agsRIECAAAECBAgQIECAAAECBAgEBaRUQRoDBAgQIECAAAECBAgQIECAAAEC0QSkVNGoLUSAAAECBAgQIECAAAECBAgQIBAUkFIFaQwQIECAAAECBAgQIECAAAECBAhEE5BSRaO2EAECBAgQIECAAAECBAgQIECAQFBAShWkMUCAAAECBAgQIECAAAECBAgQIBBNQEoVjdpCBAgQIECAAAECBAgQIECAAAECQQEpVZDGAAECBAgQIECAAAECBAgQIECAQDQBKVU0agsRIECAAAECBAgQIECAAAECBAgEBaRUQRoDBAgQIECAAAECBAgQIECAAAEC0QSkVNGoLUSAAAECBAgQIECAAAECBAgQIBAUkFIFaQwQIECAAAECBAgQIECAAAECBAhEE5BSRaO2EAECBAgQIECAAAECBAgQIECAQFBAShWkMUCAAAECBAgQIECAAAECBAgQIBBNQEoVjdpCBAgQIECAAAECBAgQIECAAAECQQEpVZDGAAECBAgQIECAAAECBAgQIECAQDQBKVU0agsRIECAAAECBAgQIECAAAECBAgEBaRUQRoDBAgQIECAAAECBAgQIECAAAEC0QSkVNGoLUSAAAECBAgQIECAAAECBAgQIBAUkFIFaQwQIECAAAECBAgQIECAAAECBAhEE5BSRaO2EAECBAgQIECAAAECBAgQIECAQFBAShWkMUCAAAECBAgQIECAAAECBAgQIBBNQEoVjdpCBAgQIECAAAECBAgQIECAAAECQQEpVZDGAAECBAgQIECAAAECBAgQIECAQDQBKVU0agsRIECAAAECBAgQIECAAAECBAgEBaRUQRoDBAgQIECAAAECBAgQIECAAAEC0QSkVNGoLUSAAAECBAgQIECAAAECBAgQIBAUkFIFaQwQIECAAAECBAgQIECAAAECBAhEE5BSRaO2EAECBAgQIECAAAECBAgQIECAQFBAShWkMUCAAAECBAgQIECAAAECBAgQIBBNQEoVjdpCBAgQIECAAAECBAgQIECAAAECQQEpVZDGAAECBAgQIECAAAECBAgQIECAQDQBKVU0agsRIECAAAECBAgQIECAAAECBAgEBaRUQRoDBAgQIECAAAECBAgQIECAAAEC0QSkVNGoLUSAAAECBAgQIECAAAECBAgQIBAUkFIFaQwQIECAAAECBAgQIECAAAECBAhEE5BSRaO2EAECBAgQIECAAAECBAgQIECAQFBAShWkMUCAAAECBAgQIECAAAECBAgQIBBNQEoVjdpCBAgQIECAAAECBAgQIECAAAECQQEpVZDGAAECBAgQIECAAAECBAgQIECAQDQBKVU0agsRIECAAAECBAgQIECAAAECBAgEBaRUQRoDBAgQIECAAAECBAgQIECAAAEC0QSkVNGoLUSAAAECBAgQIECAAAECBAgQIBAUkFIFaQwQIECAAAECBAgQIECAAAECBAhEE5BSRaO2EAECBAgQIECAAAECBAgQIECAQFBAShWkMUCAAAECBAgQIECAAAECBAgQIBBNQEoVjdpCBAgQIECAAAECBAgQIECAAAECQQEpVZDGAAECBAgQIECAAAECBAgQIECAQDQBKVU0agsRIECAAAECBAgQIECAAAECBAgEBaRUQRoDBAgQIECAAAECBAgQIECAAAEC0QSkVNGoLUSAAAECBAgQIECAAAECBAgQIBAUkFIFaQwQIECAAAECBAgQIECAAAECBAhEE/h/lIQ6sWMLmI4AAAAASUVORK5CYII=;" vertex="1" parent="1">
          <mxGeometry y="60" width="1591" height="788" as="geometry" />
        </mxCell>
      </root>
    </mxGraphModel>
  </diagram>
  <diagram id="5Q4HJRPySbX0v-WoSNjg" name="相关类的关系">
    <mxGraphModel dx="1418" dy="775" grid="1" gridSize="10" guides="1" tooltips="1" connect="1" arrows="1" fold="1" page="1" pageScale="1" pageWidth="827" pageHeight="1169" math="0" shadow="0">
      <root>
        <mxCell id="0" />
        <mxCell id="1" parent="0" />
      </root>
    </mxGraphModel>
  </diagram>
</mxfile>
